<svg xmlns="http://www.w3.org/2000/svg" xmlns:xlink="http://www.w3.org/1999/xlink" viewBox="0 0 1341.37 1344.52"><defs><style>.cls-1{fill:none;}.cls-2{fill:#fff4db;}.cls-3{clip-path:url(#clip-path);}.cls-4{fill:#8f2918;}.cls-5{fill:url(#linear-gradient);}.cls-6{fill:url(#linear-gradient-2);}.cls-7{fill:url(#linear-gradient-3);}.cls-8{fill:url(#linear-gradient-4);}.cls-9{fill:url(#linear-gradient-5);}.cls-10{fill:url(#linear-gradient-6);}.cls-11{fill:url(#linear-gradient-7);}.cls-12{fill:url(#linear-gradient-8);}.cls-13{fill:url(#linear-gradient-9);}.cls-14{fill:url(#linear-gradient-10);}.cls-15{fill:url(#linear-gradient-11);}.cls-16{fill:url(#linear-gradient-12);}.cls-17{fill:url(#linear-gradient-13);}.cls-18{fill:url(#linear-gradient-14);}.cls-19{fill:url(#linear-gradient-15);}.cls-20{fill:url(#linear-gradient-16);}.cls-21{fill:#eb9f50;}</style><clipPath id="clip-path" transform="translate(70.57 73.72)"><rect class="cls-1" width="1200" height="1200"/></clipPath><linearGradient id="linear-gradient" x1="80.61" y1="442.96" x2="207.97" y2="442.96" gradientUnits="userSpaceOnUse"><stop offset="0.01" stop-color="#ffe2a3"/><stop offset="1" stop-color="#f38280"/></linearGradient><linearGradient id="linear-gradient-2" x1="164.28" y1="481.68" x2="201.88" y2="481.68" xlink:href="#linear-gradient"/><linearGradient id="linear-gradient-3" x1="376.56" y1="148.68" x2="519.56" y2="148.68" xlink:href="#linear-gradient"/><linearGradient id="linear-gradient-4" x1="422.77" y1="199.77" x2="473.45" y2="199.77" xlink:href="#linear-gradient"/><linearGradient id="linear-gradient-5" x1="975.18" y1="148.68" x2="1118.18" y2="148.68" xlink:href="#linear-gradient"/><linearGradient id="linear-gradient-6" x1="1021.39" y1="199.77" x2="1072.07" y2="199.77" xlink:href="#linear-gradient"/><linearGradient id="linear-gradient-7" x1="376.56" y1="757.09" x2="519.56" y2="757.09" xlink:href="#linear-gradient"/><linearGradient id="linear-gradient-8" x1="422.67" y1="706" x2="473.35" y2="706" xlink:href="#linear-gradient"/><linearGradient id="linear-gradient-9" x1="973.57" y1="757.09" x2="1116.58" y2="757.09" xlink:href="#linear-gradient"/><linearGradient id="linear-gradient-10" x1="1019.69" y1="706" x2="1070.37" y2="706" xlink:href="#linear-gradient"/><linearGradient id="linear-gradient-11" x1="693.67" y1="442.96" x2="821.04" y2="442.96" xlink:href="#linear-gradient"/><linearGradient id="linear-gradient-12" x1="699.84" y1="481.75" x2="737.44" y2="481.75" xlink:href="#linear-gradient"/><linearGradient id="linear-gradient-13" x1="80.61" y1="1055.71" x2="207.97" y2="1055.71" xlink:href="#linear-gradient"/><linearGradient id="linear-gradient-14" x1="164.28" y1="1094.42" x2="201.88" y2="1094.42" xlink:href="#linear-gradient"/><linearGradient id="linear-gradient-15" x1="693.67" y1="1055.71" x2="821.04" y2="1055.71" xlink:href="#linear-gradient"/><linearGradient id="linear-gradient-16" x1="699.84" y1="1094.49" x2="737.44" y2="1094.49" xlink:href="#linear-gradient"/></defs><g id="BG"><rect class="cls-2" x="70.57" y="73.72" width="1200" height="1200"/></g><g id="Object"><g class="cls-3"><path class="cls-4" d="M262.23,159.2A26.93,26.93,0,0,0,236,133.7a17.69,17.69,0,0,0-33.12-8.47,70.09,70.09,0,0,1-28.35,23.84,126.12,126.12,0,0,1,55.58,2.13l.1,0a5.18,5.18,0,1,1-.36,2.07h0a1,1,0,0,1-.28,0,124,124,0,0,0-59.8-1,92.3,92.3,0,0,1,44.7,25.31,26.91,26.91,0,0,0,47.78-18.39Z" transform="translate(70.57 73.72)"/><path class="cls-4" d="M71.62,153.27a.9.9,0,0,1-.28,0h0a5.14,5.14,0,1,1-.36-2.07l.09,0a126.17,126.17,0,0,1,55.59-2.13A70,70,0,0,1,98.3,125.23a17.7,17.7,0,0,0-33.13,8.47,26.93,26.93,0,1,0,21.56,43.89,92.25,92.25,0,0,1,44.7-25.31A124,124,0,0,0,71.62,153.27Z" transform="translate(70.57 73.72)"/><path class="cls-4" d="M140.89,143.37a72.83,72.83,0,0,1-11.52-30.89s0-.08,0-.13a5.13,5.13,0,1,1,2.09-.23.32.32,0,0,1,0,.09,70.91,70.91,0,0,0,9.72,27.68,25.7,25.7,0,0,0,2.35,3.32c.23.26.46.52.71.77h0a40,40,0,0,0,4.92.46h.3v-32s0-.07,0-.11a5.17,5.17,0,1,1,2.11,0,.43.43,0,0,1,0,.11v32a43.67,43.67,0,0,0,4.75-.38l1.28-1.52c.62-.85,1.19-1.74,1.74-2.64a70.8,70.8,0,0,0,9.73-27.7,1,1,0,0,1,.08-.25,5.16,5.16,0,1,1,2,.44.22.22,0,0,1,0,.08,72.79,72.79,0,0,1-11.62,31c22.66-4.87,40-28.18,41-56.62,0-.35,0-2.2,0-2.55A17.76,17.76,0,0,0,183,68.14a18.58,18.58,0,0,0-2.81.24,31.28,31.28,0,0,0-59.27,0,18.58,18.58,0,0,0-2.81-.24,17.76,17.76,0,0,0-17.7,16.21c0,.35,0,2.2,0,2.55C101.47,115.08,118.53,138.22,140.89,143.37ZM130.31,70.75a25.45,25.45,0,0,1,29.14-8.56l.5.21a25.4,25.4,0,0,1,10.91,8.35,3.89,3.89,0,1,1-6.23,4.67,17.55,17.55,0,0,0-7.55-5.77l-.37-.16a17.63,17.63,0,0,0-20.16,5.94,3.9,3.9,0,0,1-6.24-4.68Z" transform="translate(70.57 73.72)"/><path class="cls-4" d="M213.14,207.16a67.11,67.11,0,0,0-53.52-46.33A72.76,72.76,0,0,1,171.29,192s0,.06,0,.08a5.2,5.2,0,1,1-2.08.45,1.29,1.29,0,0,1-.08-.26,70.82,70.82,0,0,0-9.76-27.74c-.51-.85-1.06-1.68-1.59-2.52,0,0,0,0,0,.07l-1-1.57c-.76-.1-1.52-.21-2.29-.27-.95-.11-1.92-.15-2.9-.17v32a.43.43,0,0,1,0,.11,5.16,5.16,0,1,1-2.11,0s0-.07,0-.11V160c-1,0-1.95.06-2.91.17s-1.75.2-2.62.32a43.6,43.6,0,0,0-2.72,4,70.67,70.67,0,0,0-9.76,27.74s0,.06,0,.1a5.16,5.16,0,1,1-2.09-.24c0-.05,0-.09,0-.13a72.88,72.88,0,0,1,11.62-31,67.2,67.2,0,0,0-52.92,46.26h.09a22.24,22.24,0,0,0,28.49,28.48,36.29,36.29,0,0,0,67.88,0A22.26,22.26,0,0,0,213,207.16Zm-42.28,26.58A25.4,25.4,0,0,1,160,242.09l-.5.2a25.43,25.43,0,0,1-29.14-8.55,3.9,3.9,0,0,1,6.24-4.68A17.63,17.63,0,0,0,156.71,235l.37-.16a17.55,17.55,0,0,0,7.55-5.77,3.85,3.85,0,0,1,3.12-1.56,3.89,3.89,0,0,1,3.11,6.23Z" transform="translate(70.57 73.72)"/><path class="cls-4" d="M860,159.2a26.93,26.93,0,0,0-26.23-25.5,17.69,17.69,0,0,0-33.12-8.47,70.09,70.09,0,0,1-28.35,23.84,126.12,126.12,0,0,1,55.58,2.13l.1,0a5.18,5.18,0,1,1-.36,2.07h0a1,1,0,0,1-.28,0,124,124,0,0,0-59.8-1,92.3,92.3,0,0,1,44.7,25.31A26.91,26.91,0,0,0,860,159.2Z" transform="translate(70.57 73.72)"/><path class="cls-4" d="M669.43,153.27a.9.9,0,0,1-.28,0h0a5.14,5.14,0,1,1-.36-2.07l.09,0a126.17,126.17,0,0,1,55.59-2.13,70,70,0,0,1-28.35-23.84A17.7,17.7,0,0,0,663,133.7a26.93,26.93,0,1,0,21.56,43.89,92.25,92.25,0,0,1,44.7-25.31A124,124,0,0,0,669.43,153.27Z" transform="translate(70.57 73.72)"/><path class="cls-4" d="M738.7,143.37a72.83,72.83,0,0,1-11.52-30.89s0-.08,0-.13a5.13,5.13,0,1,1,2.09-.23.32.32,0,0,1,0,.09A70.91,70.91,0,0,0,739,139.89a26.72,26.72,0,0,0,2.35,3.32c.23.26.47.52.71.77h0a40,40,0,0,0,4.92.46h.3v-32s0-.07,0-.11a5.17,5.17,0,1,1,2.11,0,.43.43,0,0,1,0,.11v32a43.67,43.67,0,0,0,4.75-.38l1.28-1.52c.62-.85,1.19-1.74,1.74-2.64a70.8,70.8,0,0,0,9.73-27.7.75.75,0,0,1,.09-.25,5.15,5.15,0,1,1,2,.44.22.22,0,0,1,0,.08,72.79,72.79,0,0,1-11.62,31c22.66-4.87,40-28.18,41-56.62,0-.35,0-2.2,0-2.55a17.76,17.76,0,0,0-17.7-16.21,18.58,18.58,0,0,0-2.81.24,31.28,31.28,0,0,0-59.27,0,18.58,18.58,0,0,0-2.81-.24,17.76,17.76,0,0,0-17.7,16.21c0,.35,0,2.2.06,2.55C699.28,115.08,716.34,138.22,738.7,143.37ZM728.12,70.75a25.45,25.45,0,0,1,29.14-8.56l.5.21a25.28,25.28,0,0,1,10.91,8.35,3.89,3.89,0,1,1-6.23,4.67,17.55,17.55,0,0,0-7.55-5.77l-.37-.16a17.63,17.63,0,0,0-20.16,5.94,3.9,3.9,0,0,1-6.24-4.68Z" transform="translate(70.57 73.72)"/><path class="cls-4" d="M811,207.16a67.1,67.1,0,0,0-53.51-46.33A72.87,72.87,0,0,1,769.1,192s0,.06,0,.08a5.2,5.2,0,1,1-2.08.45,1.29,1.29,0,0,1-.08-.26,70.82,70.82,0,0,0-9.76-27.74c-.51-.85-1.06-1.68-1.59-2.52,0,0,0,0,0,.07l-1-1.57c-.76-.1-1.52-.21-2.29-.27-1-.11-1.92-.15-2.9-.17v32a.43.43,0,0,1,0,.11,5.16,5.16,0,1,1-2.11,0s0-.07,0-.11V160c-1,0-2,.06-2.91.17s-1.75.2-2.62.32a43.6,43.6,0,0,0-2.72,4,70.67,70.67,0,0,0-9.76,27.74s0,.06,0,.1a5.16,5.16,0,1,1-2.09-.24c0-.05,0-.09,0-.13a72.88,72.88,0,0,1,11.62-31,67.2,67.2,0,0,0-52.92,46.26H686a22.24,22.24,0,0,0,28.49,28.48,36.29,36.29,0,0,0,67.88,0,22.26,22.26,0,0,0,28.49-28.49Zm-42.28,26.58a25.28,25.28,0,0,1-10.91,8.35l-.5.2a25.43,25.43,0,0,1-29.14-8.55,3.9,3.9,0,0,1,6.24-4.68A17.63,17.63,0,0,0,754.52,235l.37-.16a17.55,17.55,0,0,0,7.55-5.77,3.85,3.85,0,0,1,3.12-1.56,3.89,3.89,0,0,1,3.11,6.23Z" transform="translate(70.57 73.72)"/><path class="cls-4" d="M860,757a26.93,26.93,0,0,0-26.23-25.5A17.69,17.69,0,0,0,800.69,723a70.09,70.09,0,0,1-28.35,23.84A126.27,126.27,0,0,1,827.92,749l.1,0a5.18,5.18,0,1,1-.36,2.07h0a1,1,0,0,1-.28,0,124,124,0,0,0-59.8-1,92.3,92.3,0,0,1,44.7,25.31A26.91,26.91,0,0,0,860,757Z" transform="translate(70.57 73.72)"/><path class="cls-4" d="M669.43,751.08a.9.9,0,0,1-.28,0h0a5.14,5.14,0,1,1-.36-2.07l.09,0a126.32,126.32,0,0,1,55.59-2.13A70,70,0,0,1,696.11,723,17.7,17.7,0,0,0,663,731.51a26.93,26.93,0,1,0,21.56,43.89,92.25,92.25,0,0,1,44.7-25.31A124,124,0,0,0,669.43,751.08Z" transform="translate(70.57 73.72)"/><path class="cls-4" d="M738.7,741.18a72.83,72.83,0,0,1-11.52-30.89s0-.08,0-.13a5.13,5.13,0,1,1,2.09-.23.32.32,0,0,1,0,.09A70.91,70.91,0,0,0,739,737.7a26.72,26.72,0,0,0,2.35,3.32c.23.26.47.52.71.77h0a40,40,0,0,0,4.92.46h.3v-32s0-.07,0-.11a5.17,5.17,0,1,1,2.11,0,.43.43,0,0,1,0,.11v32a43.67,43.67,0,0,0,4.75-.38l1.28-1.52c.62-.85,1.19-1.74,1.74-2.64A70.8,70.8,0,0,0,767,710a.75.75,0,0,1,.09-.25,5.15,5.15,0,1,1,2,.44.22.22,0,0,1,0,.08,72.79,72.79,0,0,1-11.62,31c22.66-4.87,40-28.18,41-56.62,0-.35,0-2.2,0-2.55A17.76,17.76,0,0,0,780.84,666a18.58,18.58,0,0,0-2.81.24,31.28,31.28,0,0,0-59.27,0A18.58,18.58,0,0,0,716,666a17.76,17.76,0,0,0-17.7,16.21c0,.35,0,2.2.06,2.55C699.28,712.89,716.34,736,738.7,741.18Zm-10.58-72.62A25.45,25.45,0,0,1,757.26,660l.5.21a25.28,25.28,0,0,1,10.91,8.35,3.89,3.89,0,1,1-6.23,4.67,17.55,17.55,0,0,0-7.55-5.77l-.37-.16a17.63,17.63,0,0,0-20.16,5.94,3.9,3.9,0,0,1-6.24-4.68Z" transform="translate(70.57 73.72)"/><path class="cls-4" d="M811,805a67.1,67.1,0,0,0-53.51-46.33,72.87,72.87,0,0,1,11.66,31.12s0,.06,0,.08a5.2,5.2,0,1,1-2.08.45A1.29,1.29,0,0,1,767,790a70.82,70.82,0,0,0-9.76-27.74c-.51-.85-1.06-1.68-1.59-2.52,0,0,0,.05,0,.07l-1-1.57c-.76-.1-1.51-.21-2.29-.27-1-.11-1.92-.15-2.9-.17v32a.43.43,0,0,1,0,.11,5.16,5.16,0,1,1-2.11,0s0-.07,0-.11v-32c-1,0-2,.06-2.91.17s-1.75.2-2.62.32a43.6,43.6,0,0,0-2.72,4,71.13,71.13,0,0,0-6.34,13.37A70.25,70.25,0,0,0,729.31,790s0,.06,0,.1a5.16,5.16,0,1,1-2.09-.24.57.57,0,0,1,0-.13,72.79,72.79,0,0,1,11.62-31A67.19,67.19,0,0,0,685.88,805H686a22.26,22.26,0,0,0,21,29.81,22,22,0,0,0,7.51-1.33,36.29,36.29,0,0,0,67.88,0A22.26,22.26,0,0,0,810.83,805Zm-42.28,26.58a25.28,25.28,0,0,1-10.91,8.35l-.5.21a25.45,25.45,0,0,1-29.14-8.56,3.9,3.9,0,0,1,6.24-4.68,17.63,17.63,0,0,0,20.16,5.94l.37-.16a17.55,17.55,0,0,0,7.55-5.77,3.89,3.89,0,1,1,6.23,4.67Z" transform="translate(70.57 73.72)"/><path class="cls-4" d="M257.87,757a26.93,26.93,0,0,0-26.23-25.5A17.69,17.69,0,0,0,198.52,723a70.05,70.05,0,0,1-28.36,23.84A126.31,126.31,0,0,1,225.75,749l.1,0a5.18,5.18,0,1,1-.36,2.07h0a1,1,0,0,1-.28,0,124,124,0,0,0-59.81-1,92.28,92.28,0,0,1,44.71,25.31A26.91,26.91,0,0,0,257.87,757Z" transform="translate(70.57 73.72)"/><path class="cls-4" d="M67.26,751.08a.9.9,0,0,1-.28,0h0a5.14,5.14,0,1,1-.36-2.07l.09,0a126.32,126.32,0,0,1,55.59-2.13A70,70,0,0,1,93.94,723a17.7,17.7,0,0,0-33.13,8.47A26.93,26.93,0,1,0,82.37,775.4a92.25,92.25,0,0,1,44.7-25.31A124,124,0,0,0,67.26,751.08Z" transform="translate(70.57 73.72)"/><path class="cls-4" d="M136.53,741.18A72.83,72.83,0,0,1,125,710.29s0-.08,0-.13a5.13,5.13,0,1,1,2.09-.23.32.32,0,0,1,0,.09,70.91,70.91,0,0,0,9.72,27.68,24.77,24.77,0,0,0,2.35,3.32c.22.26.46.52.71.77h0a40,40,0,0,0,4.92.46h.3v-32s0-.07,0-.11a5.17,5.17,0,1,1,2.11,0s0,.07,0,.11v32a43.87,43.87,0,0,0,4.75-.38l1.28-1.52c.62-.85,1.19-1.74,1.74-2.64A70.8,70.8,0,0,0,164.8,710a1,1,0,0,1,.08-.25,5.16,5.16,0,1,1,2.05.44.22.22,0,0,1,0,.08,72.79,72.79,0,0,1-11.62,31c22.66-4.87,40-28.18,41-56.62,0-.35.05-2.2.05-2.55A17.76,17.76,0,0,0,178.67,666a18.58,18.58,0,0,0-2.81.24,31.28,31.28,0,0,0-59.27,0,18.58,18.58,0,0,0-2.81-.24,17.76,17.76,0,0,0-17.7,16.21c0,.35,0,2.2,0,2.55C97.11,712.89,114.17,736,136.53,741.18ZM126,668.56A25.45,25.45,0,0,1,155.09,660l.5.21a25.4,25.4,0,0,1,10.91,8.35,3.89,3.89,0,1,1-6.23,4.67,17.55,17.55,0,0,0-7.55-5.77l-.37-.16a17.65,17.65,0,0,0-20.17,5.94,3.9,3.9,0,0,1-6.23-4.68Z" transform="translate(70.57 73.72)"/><path class="cls-4" d="M208.78,805a67.11,67.11,0,0,0-53.52-46.33,72.76,72.76,0,0,1,11.67,31.12s0,.06,0,.08a5.2,5.2,0,1,1-2.08.45,1.29,1.29,0,0,1-.08-.26A70.82,70.82,0,0,0,155,762.29c-.52-.85-1.06-1.68-1.59-2.52,0,0,0,.05,0,.07l-1-1.57c-.76-.1-1.52-.21-2.29-.27-.95-.11-1.92-.15-2.9-.17v32s0,.07,0,.11a5.16,5.16,0,1,1-2.11,0s0-.07,0-.11v-32c-1,0-2,.06-2.91.17s-1.75.2-2.62.32a43.6,43.6,0,0,0-2.72,4,71.13,71.13,0,0,0-6.34,13.37A70.25,70.25,0,0,0,127.14,790s0,.06,0,.1a5.16,5.16,0,1,1-2.09-.24.57.57,0,0,1,0-.13,72.79,72.79,0,0,1,11.62-31A67.19,67.19,0,0,0,83.71,805h.09a22.24,22.24,0,0,0,21,29.81,22,22,0,0,0,7.51-1.33,36.29,36.29,0,0,0,67.88,0A22.26,22.26,0,0,0,208.66,805ZM166.5,831.55a25.4,25.4,0,0,1-10.91,8.35l-.5.21A25.45,25.45,0,0,1,126,831.55a3.9,3.9,0,0,1,6.23-4.68,17.65,17.65,0,0,0,20.17,5.94l.37-.16a17.55,17.55,0,0,0,7.55-5.77,3.89,3.89,0,1,1,6.23,4.67Z" transform="translate(70.57 73.72)"/><path class="cls-5" d="M193,391.33a26.68,26.68,0,0,0-3.49-4.31c-.28-.28-.59-.53-.89-.8a.37.37,0,0,0-.13-.12A26.43,26.43,0,0,0,146,396.3a37.71,37.71,0,0,0-48.37,48.37,26.43,26.43,0,0,0-10.21,42.46l.13.12c.27.29.52.6.8.89a27.23,27.23,0,0,0,4.31,3.49,71.53,71.53,0,0,0,64.23,12.06,37.85,37.85,0,0,1,2.63-31,69,69,0,0,1-28.45-13,.81.81,0,0,1-.09-.1,5.17,5.17,0,1,1,1.31-1.65l.09.05a65.35,65.35,0,0,0,9.37,6A66.8,66.8,0,0,0,152,468.49c1.5.5,3,.95,4.55,1.35a23.33,23.33,0,0,0,4.21.8A42,42,0,0,1,165,465.2l-25.42-25.42a.47.47,0,0,1-.06-.09A5.16,5.16,0,1,1,141,438.2l.09.06,25.44,25.45a36.83,36.83,0,0,1,5.15-4.09c-.67-2.9-1.3-5.78-2.25-8.61A66.71,66.71,0,0,0,159,431.41a1.08,1.08,0,0,1-.12-.24,5.14,5.14,0,1,1,1.76-1.13.34.34,0,0,1,.06.06,68.92,68.92,0,0,1,12.95,28.32A37.83,37.83,0,0,1,205,455.56,71.53,71.53,0,0,0,193,391.33Zm-84.59,30.23a27.93,27.93,0,0,1,14.06-14.39,5.31,5.31,0,0,1,.55-.23,28,28,0,0,1,15-2,4.3,4.3,0,0,1,3.64,4.87,4.24,4.24,0,0,1-1.21,2.43,4.29,4.29,0,0,1-3.66,1.22,19.3,19.3,0,0,0-10.4,1.38L126,415a19.53,19.53,0,0,0-11.12,20.39,4.3,4.3,0,0,1-8.52,1.22A28.12,28.12,0,0,1,108.37,421.56ZM101,453.66a4.13,4.13,0,0,1,4.44,7,11.67,11.67,0,0,0-4.3,14.63,11.17,11.17,0,0,0,1.25,2.11,4.15,4.15,0,0,1-.38,5.4,4.19,4.19,0,0,1-.45.39,4.14,4.14,0,0,1-5.79-.84A19.88,19.88,0,0,1,101,453.66Zm54.05-54.05a19.9,19.9,0,0,1,28.66-5.22,4.13,4.13,0,0,1,.83,5.78,4.19,4.19,0,0,1-.39.45,4.12,4.12,0,0,1-5.39.38A11.65,11.65,0,0,0,162,404.06a4.13,4.13,0,1,1-7-4.45Z" transform="translate(70.57 73.72)"/><path class="cls-6" d="M172.42,471a27.84,27.84,0,0,0-6.37,29.47,71.58,71.58,0,0,0,35.83-35.84A27.83,27.83,0,0,0,172.42,471Z" transform="translate(70.57 73.72)"/><path class="cls-7" d="M519.5,140.76a.49.49,0,0,0,0-.17,26.45,26.45,0,0,0-37.23-22.82,37.72,37.72,0,0,0-68.41,0,26.46,26.46,0,0,0-37.24,22.82s0,.11,0,.17c0,.4-.06.79-.06,1.2a26.35,26.35,0,0,0,.58,5.51A71.55,71.55,0,0,0,414,201.42a37.89,37.89,0,0,1,23.76-20,69,69,0,0,1-10.94-29.29.53.53,0,0,1,0-.13,5.16,5.16,0,1,1,2.09-.24.29.29,0,0,1,0,.1,66.45,66.45,0,0,0,2.35,10.89,68.09,68.09,0,0,0,4.13,10.37q1.07,2.12,2.27,4.17a23.1,23.1,0,0,0,2.41,3.55,40.6,40.6,0,0,1,6.85-.85V144s0-.07,0-.11a5.17,5.17,0,1,1,2.11,0,.43.43,0,0,1,0,.11v36a38,38,0,0,1,6.53.74c1.57-2.52,3.17-5,4.5-7.67a67.57,67.57,0,0,0,4.13-10.36,66.31,66.31,0,0,0,2.34-10.88.8.8,0,0,1,.09-.26,5.15,5.15,0,1,1,2,.44.27.27,0,0,1,0,.09,68.91,68.91,0,0,1-10.87,29.18,37.82,37.82,0,0,1,24.2,20.16A71.54,71.54,0,0,0,519,147.47a27,27,0,0,0,.58-5.51C519.56,141.55,519.52,141.16,519.5,140.76ZM413,131.46a4.13,4.13,0,0,1-4.92,3.14,11.67,11.67,0,0,0-13.39,7.3,11,11,0,0,0-.61,2.38,4.14,4.14,0,0,1-4.09,3.55,4,4,0,0,1-.59-.05,4.12,4.12,0,0,1-3.5-4.67,19.87,19.87,0,0,1,24-16.58A4.13,4.13,0,0,1,413,131.46Zm56.62-7.18a4.36,4.36,0,0,1-2.58.85,4.3,4.3,0,0,1-3.45-1.72,19.31,19.31,0,0,0-8.34-6.38l-.41-.18a19.5,19.5,0,0,0-22.28,6.56,4.3,4.3,0,1,1-6.88-5.16,28.1,28.1,0,0,1,32.2-9.46l.54.23a28,28,0,0,1,12.06,9.23A4.31,4.31,0,0,1,469.65,124.28Zm37.14,23.5a4,4,0,0,1-.6.05,4.14,4.14,0,0,1-4.08-3.55,11.56,11.56,0,0,0-.61-2.38,11.67,11.67,0,0,0-13.39-7.3,4.13,4.13,0,1,1-1.78-8.07A20,20,0,0,1,509.24,139a19.2,19.2,0,0,1,1.05,4.09A4.13,4.13,0,0,1,506.79,147.78Z" transform="translate(70.57 73.72)"/><path class="cls-8" d="M448.11,189.29a27.83,27.83,0,0,0-25.34,16.33,71.51,71.51,0,0,0,50.68,0A27.84,27.84,0,0,0,448.11,189.29Z" transform="translate(70.57 73.72)"/><path class="cls-9" d="M1118.12,140.76a.49.49,0,0,0,0-.17,26.45,26.45,0,0,0-37.23-22.82,37.71,37.71,0,0,0-68.4,0,26.47,26.47,0,0,0-37.25,22.82s0,.11,0,.17c0,.4-.06.79-.06,1.2a26.35,26.35,0,0,0,.58,5.51,71.55,71.55,0,0,0,36.88,53.95,37.89,37.89,0,0,1,23.76-20,69,69,0,0,1-10.94-29.29c0-.05,0-.09,0-.13a5.16,5.16,0,1,1,2.09-.24.29.29,0,0,1,0,.1,67.06,67.06,0,0,0,6.48,21.26q1.07,2.12,2.27,4.17a23.83,23.83,0,0,0,2.41,3.55,40.6,40.6,0,0,1,6.85-.85V144a.45.45,0,0,1,0-.11,5.16,5.16,0,1,1,2.1,0,.45.45,0,0,1,0,.11s0,35.95,0,36a38,38,0,0,1,6.53.74c1.57-2.52,3.17-5,4.5-7.67a67.57,67.57,0,0,0,4.13-10.36,66.31,66.31,0,0,0,2.34-10.88.8.8,0,0,1,.09-.26,5.15,5.15,0,1,1,2,.44s0,.06,0,.09a68.92,68.92,0,0,1-10.88,29.18,37.82,37.82,0,0,1,24.2,20.16,71.54,71.54,0,0,0,36.89-53.95,26.35,26.35,0,0,0,.58-5.51C1118.18,141.55,1118.14,141.16,1118.12,140.76Zm-106.47-9.3a4.13,4.13,0,0,1-4.92,3.14,11.67,11.67,0,0,0-13.39,7.3,11,11,0,0,0-.61,2.38,4.14,4.14,0,0,1-4.09,3.55,4,4,0,0,1-.59-.05,4.13,4.13,0,0,1-3.5-4.67,19.87,19.87,0,0,1,24-16.58A4.13,4.13,0,0,1,1011.65,131.46Zm56.62-7.18a4.36,4.36,0,0,1-2.58.85,4.3,4.3,0,0,1-3.45-1.72,19.34,19.34,0,0,0-8.33-6.38l-.41-.18a19.51,19.51,0,0,0-22.29,6.56,4.3,4.3,0,0,1-6.88-5.16,28.1,28.1,0,0,1,32.2-9.46l.55.23a28,28,0,0,1,12.05,9.23A4.31,4.31,0,0,1,1068.27,124.28Zm37.14,23.5a4,4,0,0,1-.6.05,4.14,4.14,0,0,1-4.08-3.55,11.56,11.56,0,0,0-.61-2.38,11.67,11.67,0,0,0-13.39-7.3,4.13,4.13,0,0,1-1.78-8.07,19.87,19.87,0,0,1,24,16.58A4.13,4.13,0,0,1,1105.41,147.78Z" transform="translate(70.57 73.72)"/><path class="cls-10" d="M1046.73,189.29a27.83,27.83,0,0,0-25.34,16.33,71.51,71.51,0,0,0,50.68,0A27.84,27.84,0,0,0,1046.73,189.29Z" transform="translate(70.57 73.72)"/><path class="cls-11" d="M519.56,763.81a27,27,0,0,0-.58-5.51,71.52,71.52,0,0,0-36.89-53.94,37.88,37.88,0,0,1-23.76,20,69,69,0,0,1,10.95,29.29s0,.09,0,.13a5.16,5.16,0,1,1-2.1.24.32.32,0,0,0,0-.09,66.34,66.34,0,0,0-6.48-21.27c-.7-1.41-1.46-2.8-2.26-4.16A23.93,23.93,0,0,0,456,725a40.72,40.72,0,0,1-6.86.85v35.95a.43.43,0,0,1,0,.11,5.16,5.16,0,1,1-2.11,0s0-.07,0-.11,0-35.95,0-36a39,39,0,0,1-6.53-.75c-1.58,2.52-3.17,5-4.51,7.67a67.53,67.53,0,0,0-4.12,10.36A66.2,66.2,0,0,0,429.49,754a1.84,1.84,0,0,1-.09.25,5.16,5.16,0,1,1-2-.44s0-.06,0-.09a69,69,0,0,1,10.87-29.18A37.86,37.86,0,0,1,414,704.36a71.53,71.53,0,0,0-36.88,53.94,26.35,26.35,0,0,0-.58,5.51c0,.41,0,.8.06,1.2a.48.48,0,0,0,0,.17A26.45,26.45,0,0,0,413.85,788a37.72,37.72,0,0,0,68.41,0,26.47,26.47,0,0,0,37.25-22.82s0-.11,0-.17C519.52,764.61,519.56,764.22,519.56,763.81ZM409.79,779.24a19.88,19.88,0,0,1-24-16.57,4.12,4.12,0,0,1,3.5-4.68,4,4,0,0,1,.59,0,4.14,4.14,0,0,1,4.09,3.54,11.53,11.53,0,0,0,.6,2.38,11.69,11.69,0,0,0,13.4,7.3,4.13,4.13,0,0,1,1.78,8.07Zm48.53,17.5a28,28,0,0,1-20.11.24l-.55-.23a28,28,0,0,1-12.06-9.23,4.3,4.3,0,0,1,6.89-5.16,19.37,19.37,0,0,0,8.34,6.38l.41.18a19.5,19.5,0,0,0,22.28-6.56,4.31,4.31,0,1,1,6.89,5.17A28.12,28.12,0,0,1,458.32,796.74Zm27.91-17.5a4.13,4.13,0,1,1,1.78-8.07,11.67,11.67,0,0,0,13.39-7.3,11.56,11.56,0,0,0,.61-2.38,4.12,4.12,0,0,1,4.08-3.54,4,4,0,0,1,.6,0,4.14,4.14,0,0,1,3.5,4.68,19.27,19.27,0,0,1-1.05,4.08A20,20,0,0,1,486.23,779.24Z" transform="translate(70.57 73.72)"/><path class="cls-12" d="M448,716.49a27.85,27.85,0,0,0,25.34-16.34,71.51,71.51,0,0,0-50.68,0A27.84,27.84,0,0,0,448,716.49Z" transform="translate(70.57 73.72)"/><path class="cls-13" d="M1116.58,763.81a27,27,0,0,0-.58-5.51,71.52,71.52,0,0,0-36.89-53.94,37.88,37.88,0,0,1-23.76,20,68.84,68.84,0,0,1,10.94,29.29.56.56,0,0,1,0,.13,5.16,5.16,0,1,1-2.1.24.32.32,0,0,0,0-.09,65.54,65.54,0,0,0-2.35-10.9,67.08,67.08,0,0,0-4.13-10.37q-1-2.12-2.27-4.16A23.13,23.13,0,0,0,1053,725a40.72,40.72,0,0,1-6.86.85v35.95s0,.07,0,.11a5.16,5.16,0,1,1-2.11,0s0-.07,0-.11,0-35.95,0-36a38.85,38.85,0,0,1-6.53-.75c-1.58,2.52-3.17,5-4.51,7.67A67.23,67.23,0,0,0,1026.5,754a1,1,0,0,1-.08.25,5.16,5.16,0,1,1-2-.44s0-.06,0-.09a69,69,0,0,1,10.87-29.18,37.83,37.83,0,0,1-24.2-20.15,71.53,71.53,0,0,0-36.88,53.94,26.35,26.35,0,0,0-.59,5.51c0,.41,0,.8.06,1.2a.91.91,0,0,0,0,.17A26.45,26.45,0,0,0,1010.87,788a37.72,37.72,0,0,0,68.41,0,26.47,26.47,0,0,0,37.25-22.82.91.91,0,0,1,0-.17C1116.54,764.61,1116.58,764.22,1116.58,763.81Zm-109.77,15.43a19.88,19.88,0,0,1-24-16.57,4.12,4.12,0,0,1,3.5-4.68,4,4,0,0,1,.59,0,4.14,4.14,0,0,1,4.09,3.54,11.53,11.53,0,0,0,.6,2.38,11.68,11.68,0,0,0,13.39,7.3,4.13,4.13,0,1,1,1.79,8.07Zm48.53,17.5a28,28,0,0,1-20.11.24l-.55-.23a28,28,0,0,1-12.06-9.23,4.3,4.3,0,0,1,6.89-5.16,19.37,19.37,0,0,0,8.34,6.38l.41.18a19.5,19.5,0,0,0,22.28-6.56,4.31,4.31,0,1,1,6.89,5.17A28.12,28.12,0,0,1,1055.34,796.74Zm27.9-17.5a4.13,4.13,0,1,1,1.79-8.07,11.68,11.68,0,0,0,13.39-7.3,11.56,11.56,0,0,0,.61-2.38,4.12,4.12,0,0,1,4.08-3.54,3.81,3.81,0,0,1,.59,0,4.14,4.14,0,0,1,3.51,4.68,19.93,19.93,0,0,1-24,16.57Z" transform="translate(70.57 73.72)"/><path class="cls-14" d="M1045,716.49a27.85,27.85,0,0,0,25.34-16.34,71.51,71.51,0,0,0-50.68,0A27.84,27.84,0,0,0,1045,716.49Z" transform="translate(70.57 73.72)"/><path class="cls-15" d="M813.29,450.66a26.33,26.33,0,0,0-9.27-6,37.71,37.71,0,0,0-48.37-48.37,26.45,26.45,0,0,0-42.47-10.21l-.11.12c-.3.28-.61.52-.9.81a27.16,27.16,0,0,0-3.48,4.31,71.56,71.56,0,0,0-12.07,64.23,37.87,37.87,0,0,1,31,2.63,69,69,0,0,1,13-28.46l.1-.08a5.17,5.17,0,1,1,1.65,1.31s0,.06,0,.09a65.87,65.87,0,0,0-6,9.36,67.23,67.23,0,0,0-4.41,10.25c-.5,1.5-1,3-1.34,4.56a23.19,23.19,0,0,0-.81,4.21,41.24,41.24,0,0,1,5.45,4.25l25.42-25.42s.06,0,.09-.06a5.15,5.15,0,1,1,1.49,1.49l-.06.09-25.45,25.44a37.57,37.57,0,0,1,4.09,5.15c2.89-.67,5.77-1.3,8.61-2.25a66.49,66.49,0,0,0,19.59-10.44.9.9,0,0,1,.24-.12,5.17,5.17,0,1,1,1.14,1.75s0,.05-.06.07a69,69,0,0,1-28.32,12.94,37.85,37.85,0,0,1,2.86,31.37A71.51,71.51,0,0,0,809,491.62a26.12,26.12,0,0,0,4.3-3.48c.29-.28.54-.59.81-.89a.69.69,0,0,0,.11-.13A26.48,26.48,0,0,0,813.29,450.66Zm-67.9-45.27a4.14,4.14,0,0,1-5.71-1.26,11.68,11.68,0,0,0-14.63-4.31,11.89,11.89,0,0,0-2.11,1.26,4.14,4.14,0,0,1-5.39-.39,2.87,2.87,0,0,1-.39-.45,4.12,4.12,0,0,1,.83-5.78,19.9,19.9,0,0,1,28.66,5.23A4.13,4.13,0,0,1,745.39,405.39ZM778.76,407a27.94,27.94,0,0,1,14.39,14c.08.18.15.37.22.56a27.9,27.9,0,0,1,2,15,4.3,4.3,0,0,1-4.88,3.65,4.37,4.37,0,0,1-2.43-1.21,4.29,4.29,0,0,1-1.21-3.66,19.45,19.45,0,0,0-1.39-10.41l-.16-.41a19.49,19.49,0,0,0-20.4-11.12A4.3,4.3,0,1,1,763.7,405,28,28,0,0,1,778.76,407Zm29.32,71.73a20.41,20.41,0,0,1-2.15,3.63,4.15,4.15,0,0,1-5.79.83,4.19,4.19,0,0,1-.45-.39,4.14,4.14,0,0,1-.38-5.4,11.17,11.17,0,0,0,1.25-2.11,11.67,11.67,0,0,0-4.3-14.63,4.13,4.13,0,0,1,4.44-7A20,20,0,0,1,808.08,478.77Z" transform="translate(70.57 73.72)"/><path class="cls-16" d="M699.84,464.72a71.51,71.51,0,0,0,35.83,35.83,27.82,27.82,0,0,0-35.83-35.83Z" transform="translate(70.57 73.72)"/><path class="cls-17" d="M193,1004.07a26.18,26.18,0,0,0-3.49-4.3c-.28-.29-.59-.54-.89-.81a.47.47,0,0,0-.13-.11A26.44,26.44,0,0,0,146,1009a37.71,37.71,0,0,0-48.37,48.37,26.45,26.45,0,0,0-10.21,42.47l.13.11c.27.3.52.61.8.9a27.16,27.16,0,0,0,4.31,3.48,71.56,71.56,0,0,0,64.23,12.07,37.87,37.87,0,0,1,2.63-31,68.9,68.9,0,0,1-28.45-13,.81.81,0,0,1-.09-.1,5.17,5.17,0,1,1,1.31-1.65s.06,0,.09,0A67.16,67.16,0,0,0,152,1081.24c1.5.5,3,1,4.55,1.34a22.52,22.52,0,0,0,4.21.81,42.79,42.79,0,0,1,4.25-5.45l-25.42-25.41a.53.53,0,0,1-.06-.1,5.15,5.15,0,1,1,1.49-1.49l.09.06,25.44,25.45a37.57,37.57,0,0,1,5.15-4.09c-.67-2.89-1.3-5.77-2.25-8.61a67.5,67.5,0,0,0-4.4-10.24,66.59,66.59,0,0,0-6-9.35,1.34,1.34,0,0,1-.12-.24,5.14,5.14,0,1,1,1.76-1.13l.06,0a69,69,0,0,1,12.95,28.32A37.87,37.87,0,0,1,205,1068.3,71.53,71.53,0,0,0,193,1004.07Zm-84.59,30.23a27.93,27.93,0,0,1,14.06-14.39l.55-.22a27.92,27.92,0,0,1,15-2,4.3,4.3,0,0,1-1.23,8.52,19.3,19.3,0,0,0-10.4,1.38l-.42.17a19.51,19.51,0,0,0-11.12,20.39,4.3,4.3,0,1,1-8.52,1.21A28.12,28.12,0,0,1,108.37,1034.3ZM101,1066.41a4.13,4.13,0,0,1,4.44,7,11.66,11.66,0,0,0-4.3,14.63,11.49,11.49,0,0,0,1.25,2.11,4.13,4.13,0,0,1-.38,5.39,4.19,4.19,0,0,1-.45.39,4.13,4.13,0,0,1-5.79-.83,19.9,19.9,0,0,1,5.23-28.66Zm54.05-54.05a19.86,19.86,0,0,1,28.66-5.22,4.13,4.13,0,0,1,.83,5.78,4.19,4.19,0,0,1-.39.45,4.12,4.12,0,0,1-5.39.38,11.65,11.65,0,0,0-16.75,3.06,4.13,4.13,0,1,1-7-4.45Z" transform="translate(70.57 73.72)"/><path class="cls-18" d="M172.42,1083.76a27.84,27.84,0,0,0-6.37,29.47,71.58,71.58,0,0,0,35.83-35.84A27.82,27.82,0,0,0,172.42,1083.76Z" transform="translate(70.57 73.72)"/><path class="cls-19" d="M813.29,1063.41a26.36,26.36,0,0,0-9.27-6A37.71,37.71,0,0,0,755.65,1009a26.46,26.46,0,0,0-42.47-10.2l-.11.12c-.3.27-.61.52-.9.81a26.29,26.29,0,0,0-3.48,4.31,71.54,71.54,0,0,0-12.07,64.22,37.87,37.87,0,0,1,31,2.63,69,69,0,0,1,13-28.45s.07,0,.1-.09a5.14,5.14,0,1,1,1.65,1.32s0,.06,0,.09a65.87,65.87,0,0,0-6,9.36,67.23,67.23,0,0,0-4.41,10.25c-.5,1.5-1,3-1.34,4.55a23.3,23.3,0,0,0-.81,4.22,41.16,41.16,0,0,1,5.45,4.24L760.54,1051l.09-.06a5.15,5.15,0,1,1,1.49,1.49l-.06.1L736.61,1078a38.1,38.1,0,0,1,4.09,5.14c2.89-.67,5.77-1.29,8.61-2.24a66.69,66.69,0,0,0,10.24-4.41,64.85,64.85,0,0,0,9.35-6,1.28,1.28,0,0,1,.24-.11,5.17,5.17,0,1,1,1.14,1.75s0,0-.06.07a69,69,0,0,1-28.32,12.94,37.85,37.85,0,0,1,2.86,31.37A71.57,71.57,0,0,0,809,1104.37a26.65,26.65,0,0,0,4.3-3.48c.29-.29.54-.6.81-.89a.69.69,0,0,0,.11-.13A26.48,26.48,0,0,0,813.29,1063.41Zm-67.9-45.27a4.14,4.14,0,0,1-5.71-1.26,11.66,11.66,0,0,0-14.63-4.31,11.84,11.84,0,0,0-2.11,1.25,4.12,4.12,0,0,1-5.39-.38,4.19,4.19,0,0,1-.39-.45,4.12,4.12,0,0,1,.83-5.78,19.86,19.86,0,0,1,28.66,5.22A4.14,4.14,0,0,1,745.39,1018.14Zm33.37,1.65a27.94,27.94,0,0,1,14.39,14c.08.18.15.37.22.55a27.94,27.94,0,0,1,2,15,4.31,4.31,0,0,1-7.31,2.43,4.27,4.27,0,0,1-1.21-3.65,19.44,19.44,0,0,0-1.39-10.41l-.16-.41a19.3,19.3,0,0,0-10-9.71,19.52,19.52,0,0,0-10.44-1.41,4.3,4.3,0,1,1-1.21-8.52A27.93,27.93,0,0,1,778.76,1019.79Zm29.32,71.72a19.72,19.72,0,0,1-2.15,3.63,4.14,4.14,0,0,1-5.79.84l-.45-.39a4.14,4.14,0,0,1-.38-5.4,11.49,11.49,0,0,0,1.25-2.11,11.66,11.66,0,0,0-4.3-14.63,4.13,4.13,0,0,1,4.44-7A20,20,0,0,1,808.08,1091.51Z" transform="translate(70.57 73.72)"/><path class="cls-20" d="M699.84,1077.46a71.48,71.48,0,0,0,35.83,35.84,27.82,27.82,0,0,0-35.83-35.84Z" transform="translate(70.57 73.72)"/><path class="cls-4" d="M480.5,444.16a17.37,17.37,0,0,0-2.81.24,31.28,31.28,0,0,0-59.27,0,17.37,17.37,0,0,0-2.81-.24,17.76,17.76,0,0,0-17.7,16.21c0,.35,0,2.2.06,2.55,1,28.18,18,51.32,40.39,56.47a72.83,72.83,0,0,1-11.52-30.89s0-.08,0-.13a5.16,5.16,0,1,1,2.09-.24s0,.06,0,.1a70.79,70.79,0,0,0,9.82,27.84c.34.56.69,1.1,1,1.63a20.92,20.92,0,0,0,1.73,2.27h.09a39.51,39.51,0,0,0,5,.48h.3V488.42s0-.07,0-.11a5.17,5.17,0,1,1,2.11,0,.43.43,0,0,1,0,.11v32.05a42.52,42.52,0,0,0,4.82-.39,37.59,37.59,0,0,0,2.95-4.15,70.8,70.8,0,0,0,9.73-27.7,1,1,0,0,1,.08-.25,5.16,5.16,0,1,1,2.05.44s0,.05,0,.08a72.94,72.94,0,0,1-11.63,31c22.66-4.87,40-28.18,41-56.62,0-.35.05-2.2.05-2.55A17.76,17.76,0,0,0,480.5,444.16Zm-13.8,6.48a3.37,3.37,0,0,1-2.16.8,3.47,3.47,0,0,1-2.88-1.62,16.63,16.63,0,0,0-7-6l-.35-.16a14.5,14.5,0,0,0-11.62.17,16.56,16.56,0,0,0-7,6,3.35,3.35,0,0,1-5,.8A4.36,4.36,0,0,1,430,445a23.92,23.92,0,0,1,10.1-8.63,21,21,0,0,1,16.82-.23l.46.22A24,24,0,0,1,467.42,445,4.37,4.37,0,0,1,466.7,450.64Z" transform="translate(70.57 73.72)"/><path class="cls-4" d="M414.22,434.47a37.58,37.58,0,0,1,67.67,0,14.71,14.71,0,0,0,6.1-5.16,14.55,14.55,0,0,0-12.09-22.65,14.64,14.64,0,0,0-3.13.34,25.95,25.95,0,0,0-49.43,0,14.55,14.55,0,0,0-9.12,27.46Z" transform="translate(70.57 73.72)"/><path class="cls-4" d="M388,458.11a21.23,21.23,0,0,1,13.55-18,12.65,12.65,0,0,0-20.19-9.27A21.58,21.58,0,0,0,349.07,453L349,453a71.86,71.86,0,0,0,56.64,56c-10.27-12.35-16.83-29.18-17.48-47.87C388.08,460.75,388,458.54,388,458.11Z" transform="translate(70.57 73.72)"/><path class="cls-4" d="M543.46,435.11a21.59,21.59,0,0,0-27.21-4.24,12.65,12.65,0,0,0-20.19,9.27,21.23,21.23,0,0,1,13.55,18c0,.43,0,2.64-.07,3.06-.64,18.69-7.21,35.52-17.48,47.87a71.86,71.86,0,0,0,56.64-56l-.12-.08A21.55,21.55,0,0,0,543.46,435.11Z" transform="translate(70.57 73.72)"/><path class="cls-4" d="M1078.49,444.16a17.25,17.25,0,0,0-2.8.24,31.29,31.29,0,0,0-59.28,0,17.35,17.35,0,0,0-2.8-.24,17.77,17.77,0,0,0-17.71,16.21c0,.35,0,2.2.06,2.55,1,28.18,18,51.32,40.4,56.47a72.85,72.85,0,0,1-11.53-30.89s0-.08,0-.13a5.16,5.16,0,1,1,2.09-.24s0,.06,0,.1a70.57,70.57,0,0,0,9.81,27.84c.35.56.69,1.1,1,1.63a22.29,22.29,0,0,0,1.73,2.27h.09a39.67,39.67,0,0,0,5,.48h.29V488.42a.45.45,0,0,1,0-.11,5.16,5.16,0,1,1,2.1,0,.45.45,0,0,1,0,.11v32.05a42.71,42.71,0,0,0,4.82-.39,37.5,37.5,0,0,0,2.94-4.15,70.55,70.55,0,0,0,6.32-13.35,69.4,69.4,0,0,0,3.41-14.35.75.75,0,0,1,.09-.25,5.16,5.16,0,1,1,2,.44s0,.05,0,.08a72.94,72.94,0,0,1-11.63,31c22.67-4.87,40-28.18,41-56.62,0-.35.06-2.2.06-2.55A17.77,17.77,0,0,0,1078.49,444.16Zm-13.8,6.48a3.37,3.37,0,0,1-2.16.8,3.48,3.48,0,0,1-2.88-1.62,16.63,16.63,0,0,0-7-6l-.34-.16a14.53,14.53,0,0,0-11.63.17,16.47,16.47,0,0,0-7,6,3.35,3.35,0,0,1-5,.8A4.37,4.37,0,0,1,1028,445a24,24,0,0,1,10.1-8.63,21,21,0,0,1,16.82-.23l.46.22a23.9,23.9,0,0,1,10.08,8.65A4.37,4.37,0,0,1,1064.69,450.64Z" transform="translate(70.57 73.72)"/><path class="cls-4" d="M1012.21,434.47a37.58,37.58,0,0,1,67.67,0,14.65,14.65,0,0,0,6.1-5.16A14.55,14.55,0,0,0,1070.77,407a25.95,25.95,0,0,0-49.43,0,14.71,14.71,0,0,0-3.13-.34,14.55,14.55,0,0,0-6,27.8Z" transform="translate(70.57 73.72)"/><path class="cls-4" d="M986,458.11a21.22,21.22,0,0,1,13.54-18,12.64,12.64,0,0,0-20.19-9.27A21.58,21.58,0,0,0,947.06,453l-.12.08a71.9,71.9,0,0,0,56.64,56c-10.27-12.35-16.83-29.18-17.48-47.87C986.08,460.75,986,458.54,986,458.11Z" transform="translate(70.57 73.72)"/><path class="cls-4" d="M1141.45,435.11a21.58,21.58,0,0,0-27.2-4.24,12.66,12.66,0,0,0-20.2,9.27,21.23,21.23,0,0,1,13.55,18c0,.43,0,2.64-.07,3.06-.64,18.69-7.21,35.52-17.47,47.87a71.87,71.87,0,0,0,56.63-56l-.12-.08A21.52,21.52,0,0,0,1141.45,435.11Z" transform="translate(70.57 73.72)"/><path class="cls-4" d="M1078.49,1042.26a18.45,18.45,0,0,0-2.8.24,31.29,31.29,0,0,0-59.28,0,18.56,18.56,0,0,0-2.8-.24,17.77,17.77,0,0,0-17.71,16.21c0,.35,0,2.2.06,2.55,1,28.18,18,51.32,40.4,56.47a72.76,72.76,0,0,1-11.53-30.88s0-.09,0-.13a5.16,5.16,0,1,1,2.09-.24l0,.09a70.42,70.42,0,0,0,9.81,27.84c.35.56.69,1.1,1,1.63a22.29,22.29,0,0,0,1.73,2.27l.09,0a41.59,41.59,0,0,0,5,.47h.29v-32a.45.45,0,0,1,0-.11,5.16,5.16,0,1,1,2.1,0,.45.45,0,0,1,0,.11v32a42.71,42.71,0,0,0,4.82-.39,37.5,37.5,0,0,0,2.94-4.15,70,70,0,0,0,6.32-13.35,69.25,69.25,0,0,0,3.41-14.35.75.75,0,0,1,.09-.25,5.16,5.16,0,1,1,2,.44s0,.06,0,.09a72.94,72.94,0,0,1-11.63,31c22.67-4.87,40-28.19,41-56.63,0-.35.06-2.2.06-2.55A17.77,17.77,0,0,0,1078.49,1042.26Zm-13.8,6.48a3.37,3.37,0,0,1-2.16.8,3.47,3.47,0,0,1-2.88-1.61,16.49,16.49,0,0,0-7-6l-.34-.17a14.57,14.57,0,0,0-11.63.17,16.54,16.54,0,0,0-7,6,3.36,3.36,0,0,1-5,.81,4.37,4.37,0,0,1-.72-5.65,23.94,23.94,0,0,1,10.1-8.64,21,21,0,0,1,16.82-.22c.16.06.31.14.46.21a23.9,23.9,0,0,1,10.08,8.65A4.37,4.37,0,0,1,1064.69,1048.74Z" transform="translate(70.57 73.72)"/><path class="cls-4" d="M1012.21,1032.58a37.58,37.58,0,0,1,67.67,0,14.58,14.58,0,0,0,6.1-5.16,14.53,14.53,0,0,0-15.21-22.3,25.94,25.94,0,0,0-49.43,0,14.72,14.72,0,0,0-3.13-.35,14.55,14.55,0,0,0-6,27.81Z" transform="translate(70.57 73.72)"/><path class="cls-4" d="M986,1056.22a21.23,21.23,0,0,1,13.54-18,12.65,12.65,0,0,0-20.19-9.27,21.58,21.58,0,0,0-32.33,22.1l-.12.08a71.9,71.9,0,0,0,56.64,56c-10.27-12.35-16.83-29.18-17.48-47.87C986.08,1058.85,986,1056.64,986,1056.22Z" transform="translate(70.57 73.72)"/><path class="cls-4" d="M1141.45,1033.22a21.57,21.57,0,0,0-27.2-4.25,12.66,12.66,0,0,0-20.2,9.27,21.24,21.24,0,0,1,13.55,18c0,.42,0,2.63-.07,3-.64,18.69-7.21,35.52-17.47,47.87a71.88,71.88,0,0,0,56.63-56l-.12-.08A21.51,21.51,0,0,0,1141.45,1033.22Z" transform="translate(70.57 73.72)"/><path class="cls-4" d="M480.5,1040.07a17.37,17.37,0,0,0-2.81.24,31.28,31.28,0,0,0-59.27,0,17.37,17.37,0,0,0-2.81-.24,17.76,17.76,0,0,0-17.7,16.21c0,.35,0,2.2.06,2.55,1,28.18,18,51.32,40.39,56.47a72.83,72.83,0,0,1-11.52-30.89s0-.08,0-.13a5.13,5.13,0,1,1,2.09-.23.32.32,0,0,1,0,.09,70.79,70.79,0,0,0,9.82,27.84c.34.56.69,1.1,1,1.63a20.92,20.92,0,0,0,1.73,2.27h.09a39.51,39.51,0,0,0,5,.48h.3v-32.05s0-.07,0-.11a5.17,5.17,0,1,1,2.11,0,.43.43,0,0,1,0,.11v32.05A42.52,42.52,0,0,0,454,1116a37.59,37.59,0,0,0,2.95-4.15,70.8,70.8,0,0,0,9.73-27.7,1,1,0,0,1,.08-.25,5.16,5.16,0,1,1,2.05.44s0,.05,0,.08a72.94,72.94,0,0,1-11.63,31c22.66-4.87,40-28.18,41-56.62,0-.35.05-2.2.05-2.55A17.76,17.76,0,0,0,480.5,1040.07Zm-13.8,6.48a3.37,3.37,0,0,1-2.16.8,3.46,3.46,0,0,1-2.88-1.61,16.49,16.49,0,0,0-7-6l-.35-.17a14.5,14.5,0,0,0-11.62.17,16.56,16.56,0,0,0-7,6,3.35,3.35,0,0,1-5,.8,4.35,4.35,0,0,1-.71-5.65,23.92,23.92,0,0,1,10.1-8.63,21,21,0,0,1,16.82-.23l.46.22a24,24,0,0,1,10.08,8.65A4.37,4.37,0,0,1,466.7,1046.55Z" transform="translate(70.57 73.72)"/><path class="cls-4" d="M414.22,1030.38a37.58,37.58,0,0,1,67.67,0,14.71,14.71,0,0,0,6.1-5.16,14.55,14.55,0,0,0-12.09-22.65,14.64,14.64,0,0,0-3.13.34,25.95,25.95,0,0,0-49.43,0,14.55,14.55,0,0,0-9.12,27.46Z" transform="translate(70.57 73.72)"/><path class="cls-4" d="M388,1054a21.24,21.24,0,0,1,13.55-18,12.65,12.65,0,0,0-20.19-9.27,21.58,21.58,0,0,0-32.33,22.09l-.12.08a71.86,71.86,0,0,0,56.64,56c-10.27-12.35-16.83-29.18-17.48-47.87C388.08,1056.66,388,1054.45,388,1054Z" transform="translate(70.57 73.72)"/><path class="cls-4" d="M543.46,1031a21.59,21.59,0,0,0-27.21-4.24,12.65,12.65,0,0,0-20.19,9.27,21.24,21.24,0,0,1,13.55,18c0,.43,0,2.64-.07,3.06-.64,18.69-7.21,35.52-17.48,47.87a71.86,71.86,0,0,0,56.64-56l-.12-.08A21.55,21.55,0,0,0,543.46,1031Z" transform="translate(70.57 73.72)"/><path class="cls-21" d="M330.88,576.23h-6.11v-6.11a19.82,19.82,0,0,0-39.64,0v6.11H279a19.82,19.82,0,0,0,0,39.64h6.11V622a19.82,19.82,0,0,0,39.64,0v-6.11h6.11a19.82,19.82,0,0,0,0-39.64Zm2.46,22.19a3.34,3.34,0,0,1-4.73,0,3.38,3.38,0,0,1-.9-1.68.59.59,0,0,1-.23,0H311.74a20.52,20.52,0,0,1,13.05,19.06,20.56,20.56,0,0,1-19.1-13v15.64a.64.64,0,0,1-.05.23,3.3,3.3,0,0,1,1.68.9,3.34,3.34,0,1,1-4.73,0,3.27,3.27,0,0,1,1.67-.9.93.93,0,0,1,0-.23V602.62a20.41,20.41,0,0,1-19.07,13.25,20.5,20.5,0,0,1,13-19.08H282.51a.59.59,0,0,1-.23,0,3.35,3.35,0,1,1,0-1.38.85.85,0,0,1,.23,0h15.25a20.68,20.68,0,0,1-12.61-19.09,20.42,20.42,0,0,1,19.07,13.36v-16a.85.85,0,0,1,0-.23,3.29,3.29,0,0,1-1.67-.91,3.34,3.34,0,1,1,3.05.91.59.59,0,0,1,.05.23v15.76a20.5,20.5,0,0,1,16.21-12.89,20.12,20.12,0,0,1,2.89-.18,20.67,20.67,0,0,1-12.71,19.06h15.4a.85.85,0,0,1,.23,0,3.34,3.34,0,1,1,5.63,3.06Z" transform="translate(70.57 73.72)"/><path class="cls-21" d="M280.1,571.2v-7a19.75,19.75,0,0,0-9.28-2.31,19.69,19.69,0,0,0,2.32,9.3Z" transform="translate(70.57 73.72)"/><path class="cls-21" d="M270.84,630.23a19.7,19.7,0,0,0,9.3-2.33V621h-7A19.72,19.72,0,0,0,270.84,630.23Z" transform="translate(70.57 73.72)"/><path class="cls-21" d="M329.89,620.91v7a19.72,19.72,0,0,0,9.28,2.31,19.78,19.78,0,0,0-2.32-9.3Z" transform="translate(70.57 73.72)"/><path class="cls-21" d="M339.15,561.88a19.66,19.66,0,0,0-9.3,2.32v7h7A19.75,19.75,0,0,0,339.15,561.88Z" transform="translate(70.57 73.72)"/><path class="cls-21" d="M301.64,596.05a3.31,3.31,0,1,1,3.31,3.31A3.31,3.31,0,0,1,301.64,596.05Z" transform="translate(70.57 73.72)"/><path class="cls-21" d="M623.77,579.25h-6.11v-6.11a19.82,19.82,0,0,0-39.64,0v6.11h-6.11a19.82,19.82,0,0,0,0,39.64H578V625a19.82,19.82,0,0,0,39.64,0v-6.11h6.11a19.82,19.82,0,0,0,0-39.64Zm2.47,22.18a3.34,3.34,0,0,1-5.64-1.67.85.85,0,0,1-.23,0H604.63a20.52,20.52,0,0,1,13,19.06,20.56,20.56,0,0,1-19.1-12.94v15.64a.54.54,0,0,1-.05.22,3.33,3.33,0,1,1-1.38,0,.78.78,0,0,1,0-.22V605.63A20.41,20.41,0,0,1,578,618.89a20.52,20.52,0,0,1,13-19.09H575.4a.85.85,0,0,1-.23,0,3.38,3.38,0,1,1,0-1.38.59.59,0,0,1,.23,0h15.25A20.67,20.67,0,0,1,578,579.25a20.41,20.41,0,0,1,19.07,13.36v-16a.93.93,0,0,1,0-.23,3.27,3.27,0,0,1-1.67-.9,3.34,3.34,0,1,1,4.73,0,3.3,3.3,0,0,1-1.68.9.64.64,0,0,1,.05.23v15.77a20.55,20.55,0,0,1,16.21-12.9,20.21,20.21,0,0,1,2.89-.18A20.65,20.65,0,0,1,605,598.33h15.4a.59.59,0,0,1,.23,0,3.35,3.35,0,1,1,5.64,3Z" transform="translate(70.57 73.72)"/><path class="cls-21" d="M573,574.22v-7a19.72,19.72,0,0,0-9.28-2.31,19.85,19.85,0,0,0,2.32,9.31Z" transform="translate(70.57 73.72)"/><path class="cls-21" d="M563.73,633.24a19.69,19.69,0,0,0,9.3-2.32v-7h-7A19.75,19.75,0,0,0,563.73,633.24Z" transform="translate(70.57 73.72)"/><path class="cls-21" d="M622.78,623.92v7a19.72,19.72,0,0,0,9.28,2.31,19.69,19.69,0,0,0-2.32-9.3Z" transform="translate(70.57 73.72)"/><path class="cls-21" d="M632,564.89a19.7,19.7,0,0,0-9.3,2.33v6.95h7A19.72,19.72,0,0,0,632,564.89Z" transform="translate(70.57 73.72)"/><path class="cls-21" d="M594.53,599.07a3.32,3.32,0,1,1,3.31,3.31A3.32,3.32,0,0,1,594.53,599.07Z" transform="translate(70.57 73.72)"/><path class="cls-21" d="M925.19,576.23h-6.11v-6.11a19.82,19.82,0,0,0-39.64,0v6.11h-6.11a19.82,19.82,0,0,0,0,39.64h6.11V622a19.82,19.82,0,0,0,39.64,0v-6.11h6.11a19.82,19.82,0,0,0,0-39.64Zm2.46,22.19a3.35,3.35,0,0,1-5.64-1.68.54.54,0,0,1-.22,0H906.05a20.52,20.52,0,0,1,13.05,19.06,20.58,20.58,0,0,1-19.11-13v15.64a.93.93,0,0,1,0,.23,3.38,3.38,0,1,1-1.38,0,1,1,0,0,1-.05-.23V602.62a20.38,20.38,0,0,1-19.06,13.25,20.51,20.51,0,0,1,12.94-19.08H876.81a.54.54,0,0,1-.22,0,3.33,3.33,0,1,1,0-1.38.78.78,0,0,1,.22,0h15.26a20.66,20.66,0,0,1-12.61-19.09,20.4,20.4,0,0,1,19.06,13.36v-16a.86.86,0,0,1,.05-.23,3.35,3.35,0,1,1,1.38,0,.85.85,0,0,1,0,.23v15.76a20.21,20.21,0,0,1,19.11-13.07,20.67,20.67,0,0,1-12.71,19.06h15.4a.78.78,0,0,1,.22,0,3.29,3.29,0,0,1,.91-1.67,3.34,3.34,0,0,1,4.73,4.73Z" transform="translate(70.57 73.72)"/><path class="cls-21" d="M874.41,571.2v-7a19.75,19.75,0,0,0-9.28-2.31,19.69,19.69,0,0,0,2.32,9.3Z" transform="translate(70.57 73.72)"/><path class="cls-21" d="M865.15,630.23a19.73,19.73,0,0,0,9.3-2.33V621h-7A19.72,19.72,0,0,0,865.15,630.23Z" transform="translate(70.57 73.72)"/><path class="cls-21" d="M924.19,620.91v7a19.75,19.75,0,0,0,9.28,2.31,19.66,19.66,0,0,0-2.32-9.3Z" transform="translate(70.57 73.72)"/><path class="cls-21" d="M933.45,561.88a19.72,19.72,0,0,0-9.3,2.32v7h7A19.75,19.75,0,0,0,933.45,561.88Z" transform="translate(70.57 73.72)"/><path class="cls-21" d="M896,596.05a3.31,3.31,0,1,1,3.31,3.31A3.31,3.31,0,0,1,896,596.05Z" transform="translate(70.57 73.72)"/><path class="cls-21" d="M326,280.2h-6.11v-6.11a19.82,19.82,0,0,0-39.64,0v6.11h-6.11a19.82,19.82,0,0,0,0,39.64h6.11V326a19.82,19.82,0,1,0,39.64,0v-6.11H326a19.82,19.82,0,1,0,0-39.64Zm2.47,22.19a3.34,3.34,0,0,1-5.64-1.68.59.59,0,0,1-.23.05H306.81a20.52,20.52,0,0,1,13.05,19.06,20.56,20.56,0,0,1-19.1-12.95v15.64a.59.59,0,0,1-.05.23,3.35,3.35,0,1,1-1.38,0,.85.85,0,0,1,0-.23V306.59a20.4,20.4,0,0,1-19.07,13.25,20.5,20.5,0,0,1,12.95-19.08H277.58a.59.59,0,0,1-.23-.05,3.37,3.37,0,1,1,0-1.37.59.59,0,0,1,.23,0h15.25a20.68,20.68,0,0,1-12.61-19.09,20.41,20.41,0,0,1,19.07,13.36v-16a.85.85,0,0,1,0-.23,3.38,3.38,0,1,1,1.38,0,.59.59,0,0,1,.05.23V293.3A20.54,20.54,0,0,1,317,280.41a20.21,20.21,0,0,1,2.89-.18,20.67,20.67,0,0,1-12.7,19.06h15.39a.59.59,0,0,1,.23,0,3.35,3.35,0,1,1,5.64,3.05Z" transform="translate(70.57 73.72)"/><path class="cls-21" d="M275.17,275.17v-7a19.72,19.72,0,0,0-9.28-2.31,19.81,19.81,0,0,0,2.32,9.3Z" transform="translate(70.57 73.72)"/><path class="cls-21" d="M265.91,334.2a19.81,19.81,0,0,0,9.3-2.32v-7h-7A19.72,19.72,0,0,0,265.91,334.2Z" transform="translate(70.57 73.72)"/><path class="cls-21" d="M325,324.88v7a19.72,19.72,0,0,0,9.28,2.31,19.69,19.69,0,0,0-2.32-9.3Z" transform="translate(70.57 73.72)"/><path class="cls-21" d="M334.22,265.85a19.81,19.81,0,0,0-9.3,2.32v7h7A19.72,19.72,0,0,0,334.22,265.85Z" transform="translate(70.57 73.72)"/><path class="cls-21" d="M296.71,300a3.32,3.32,0,1,1,3.31,3.32A3.31,3.31,0,0,1,296.71,300Z" transform="translate(70.57 73.72)"/><path class="cls-21" d="M626.79,275.28h-6.11v-6.11a19.82,19.82,0,1,0-39.64,0v6.11h-6.11a19.82,19.82,0,1,0,0,39.63H581V321a19.82,19.82,0,1,0,39.64,0v-6.11h6.11a19.82,19.82,0,1,0,0-39.63Zm2.46,22.18a3.34,3.34,0,0,1-4.73,0,3.29,3.29,0,0,1-.91-1.67.78.78,0,0,1-.22,0H607.65a20.52,20.52,0,0,1,13.05,19.06A20.57,20.57,0,0,1,601.59,302v15.63a.85.85,0,0,1,0,.23,3.34,3.34,0,1,1-3.06.9,3.42,3.42,0,0,1,1.68-.9.86.86,0,0,1,0-.23V301.66a20.38,20.38,0,0,1-19.06,13.25A20.51,20.51,0,0,1,594,295.83H578.41a.78.78,0,0,1-.22,0,3.29,3.29,0,0,1-.91,1.67,3.34,3.34,0,1,1,.91-3,.54.54,0,0,1,.22-.05h15.26a20.66,20.66,0,0,1-12.61-19.08,20.38,20.38,0,0,1,19.06,13.36v-16a.86.86,0,0,1,0-.23,3.34,3.34,0,1,1,3.05-.9,3.27,3.27,0,0,1-1.67.9.85.85,0,0,1,0,.23v15.76a20.55,20.55,0,0,1,16.21-12.89,20.34,20.34,0,0,1,2.9-.18A20.65,20.65,0,0,1,608,294.36h15.4a.54.54,0,0,1,.22.05,3.35,3.35,0,1,1,5.64,3Z" transform="translate(70.57 73.72)"/><path class="cls-21" d="M576,270.24v-7a19.75,19.75,0,0,0-9.28-2.31,19.66,19.66,0,0,0,2.32,9.3Z" transform="translate(70.57 73.72)"/><path class="cls-21" d="M566.75,329.27a19.72,19.72,0,0,0,9.3-2.32v-7h-7A19.75,19.75,0,0,0,566.75,329.27Z" transform="translate(70.57 73.72)"/><path class="cls-21" d="M625.79,320v7a19.75,19.75,0,0,0,9.28,2.31,19.69,19.69,0,0,0-2.32-9.3Z" transform="translate(70.57 73.72)"/><path class="cls-21" d="M635.05,260.92a19.84,19.84,0,0,0-9.3,2.32v7h7A19.72,19.72,0,0,0,635.05,260.92Z" transform="translate(70.57 73.72)"/><path class="cls-21" d="M597.55,295.1a3.31,3.31,0,1,1,3.31,3.31A3.32,3.32,0,0,1,597.55,295.1Z" transform="translate(70.57 73.72)"/><path class="cls-21" d="M925.19,275.28h-6.11v-6.11a19.82,19.82,0,0,0-39.64,0v6.11h-6.11a19.82,19.82,0,1,0,0,39.63h6.11V321a19.82,19.82,0,0,0,39.64,0v-6.11h6.11a19.82,19.82,0,1,0,0-39.63Zm2.46,22.18a3.34,3.34,0,0,1-4.73,0,3.29,3.29,0,0,1-.91-1.67.78.78,0,0,1-.22,0H906.05a20.52,20.52,0,0,1,13.05,19.06A20.57,20.57,0,0,1,900,302v15.63a.85.85,0,0,1,0,.23,3.42,3.42,0,0,1,1.68.9,3.35,3.35,0,1,1-4.74,0,3.42,3.42,0,0,1,1.68-.9.86.86,0,0,1-.05-.23V301.66a20.38,20.38,0,0,1-19.06,13.25,20.51,20.51,0,0,1,12.94-19.08H876.81a.78.78,0,0,1-.22,0,3.29,3.29,0,0,1-.91,1.67,3.34,3.34,0,1,1,.91-3,.54.54,0,0,1,.22-.05h15.26a20.66,20.66,0,0,1-12.61-19.08,20.38,20.38,0,0,1,19.06,13.36v-16a.86.86,0,0,1,.05-.23,3.38,3.38,0,1,1,1.38,0,.85.85,0,0,1,0,.23v15.76a20.55,20.55,0,0,1,16.21-12.89,20.34,20.34,0,0,1,2.9-.18,20.65,20.65,0,0,1-12.71,19.06h15.4a.54.54,0,0,1,.22.05,3.35,3.35,0,1,1,5.64,3Z" transform="translate(70.57 73.72)"/><path class="cls-21" d="M874.41,270.24v-7a19.75,19.75,0,0,0-9.28-2.31,19.66,19.66,0,0,0,2.32,9.3Z" transform="translate(70.57 73.72)"/><path class="cls-21" d="M865.15,329.27a19.72,19.72,0,0,0,9.3-2.32v-7h-7A19.75,19.75,0,0,0,865.15,329.27Z" transform="translate(70.57 73.72)"/><path class="cls-21" d="M924.19,320v7a19.75,19.75,0,0,0,9.28,2.31,19.69,19.69,0,0,0-2.32-9.3Z" transform="translate(70.57 73.72)"/><path class="cls-21" d="M933.45,260.92a19.84,19.84,0,0,0-9.3,2.32v7h7A19.72,19.72,0,0,0,933.45,260.92Z" transform="translate(70.57 73.72)"/><path class="cls-21" d="M896,295.1a3.31,3.31,0,1,1,3.31,3.31A3.32,3.32,0,0,1,896,295.1Z" transform="translate(70.57 73.72)"/><path class="cls-21" d="M330.88-17.24h-6.11v-6.11A19.82,19.82,0,0,0,305-43.17a19.82,19.82,0,0,0-19.82,19.82v6.11H279a19.82,19.82,0,1,0,0,39.64h6.11v6.11a19.82,19.82,0,0,0,39.64,0V22.4h6.11a19.82,19.82,0,0,0,0-39.64ZM333.34,5a3.36,3.36,0,0,1-4.73,0,3.42,3.42,0,0,1-.9-1.68.85.85,0,0,1-.23,0H311.74a20.52,20.52,0,0,1,13.05,19.07,20.58,20.58,0,0,1-19.1-12.95V25.07a.54.54,0,0,1-.05.22,3.33,3.33,0,1,1-1.38,0,.78.78,0,0,1,0-.22V9.14A20.42,20.42,0,0,1,285.15,22.4a20.52,20.52,0,0,1,13-19.09H282.51a.85.85,0,0,1-.23,0,3.42,3.42,0,0,1-.9,1.68A3.35,3.35,0,0,1,276.64.21a3.37,3.37,0,0,1,4.74,0,3.42,3.42,0,0,1,.9,1.68.86.86,0,0,1,.23,0h15.25a20.67,20.67,0,0,1-12.61-19.08A20.42,20.42,0,0,1,304.22-3.88v-16a.93.93,0,0,1,0-.23,3.2,3.2,0,0,1-1.67-.9,3.34,3.34,0,0,1,0-4.73,3.34,3.34,0,0,1,4.73,0,3.34,3.34,0,0,1,0,4.73,3.23,3.23,0,0,1-1.68.9.64.64,0,0,1,.05.23V-4.14A20.53,20.53,0,0,1,321.9-17a21.67,21.67,0,0,1,2.89-.18A20.65,20.65,0,0,1,312.08,1.84h15.4a.86.86,0,0,1,.23,0,3.42,3.42,0,0,1,.9-1.68A3.35,3.35,0,1,1,333.34,5Z" transform="translate(70.57 73.72)"/><path class="cls-21" d="M280.1-22.27v-7a19.76,19.76,0,0,0-9.28-2.32,19.73,19.73,0,0,0,2.32,9.31Z" transform="translate(70.57 73.72)"/><path class="cls-21" d="M270.84,36.75a19.69,19.69,0,0,0,9.3-2.32v-7h-7A19.75,19.75,0,0,0,270.84,36.75Z" transform="translate(70.57 73.72)"/><path class="cls-21" d="M329.89,27.43v7a19.72,19.72,0,0,0,9.28,2.31,19.84,19.84,0,0,0-2.32-9.3Z" transform="translate(70.57 73.72)"/><path class="cls-21" d="M339.15-31.6a19.67,19.67,0,0,0-9.3,2.33v7h7A19.72,19.72,0,0,0,339.15-31.6Z" transform="translate(70.57 73.72)"/><path class="cls-21" d="M301.64,2.58A3.31,3.31,0,1,1,305,5.89,3.31,3.31,0,0,1,301.64,2.58Z" transform="translate(70.57 73.72)"/><path class="cls-21" d="M626.79-17.24h-6.11v-6.11a19.82,19.82,0,0,0-19.82-19.82A19.82,19.82,0,0,0,581-23.35v6.11h-6.11a19.82,19.82,0,1,0,0,39.64H581v6.11a19.82,19.82,0,1,0,39.64,0V22.4h6.11a19.82,19.82,0,1,0,0-39.64ZM629.25,5a3.35,3.35,0,0,1-5.64-1.68.78.78,0,0,1-.22,0H607.65A20.52,20.52,0,0,1,620.7,22.38,20.59,20.59,0,0,1,601.59,9.43V25.07a.78.78,0,0,1,0,.22,3.29,3.29,0,0,1,1.67.91,3.34,3.34,0,1,1-3.05-.91.79.79,0,0,1,0-.22V9.14A20.39,20.39,0,0,1,581.06,22.4,20.52,20.52,0,0,1,594,3.31H578.41a.78.78,0,0,1-.22,0,3.35,3.35,0,1,1,0-1.38.79.79,0,0,1,.22,0h15.26a20.65,20.65,0,0,1-12.61-19.08A20.4,20.4,0,0,1,600.12-3.88v-16a1,1,0,0,1,0-.23,3.27,3.27,0,0,1-1.68-.9,3.36,3.36,0,0,1,0-4.73,3.34,3.34,0,0,1,4.73,0,3.34,3.34,0,0,1,0,4.73,3.2,3.2,0,0,1-1.67.9.93.93,0,0,1,0,.23V-4.14A20.56,20.56,0,0,1,617.8-17a21.92,21.92,0,0,1,2.9-.18A20.65,20.65,0,0,1,608,1.84h15.4a.79.79,0,0,1,.22,0A3.35,3.35,0,1,1,629.25,5Z" transform="translate(70.57 73.72)"/><path class="cls-21" d="M576-22.27v-7a19.76,19.76,0,0,0-9.28-2.32,19.73,19.73,0,0,0,2.32,9.31Z" transform="translate(70.57 73.72)"/><path class="cls-21" d="M566.75,36.75a19.72,19.72,0,0,0,9.3-2.32v-7h-7A19.75,19.75,0,0,0,566.75,36.75Z" transform="translate(70.57 73.72)"/><path class="cls-21" d="M625.79,27.43v7a19.75,19.75,0,0,0,9.28,2.31,19.72,19.72,0,0,0-2.32-9.3Z" transform="translate(70.57 73.72)"/><path class="cls-21" d="M635.05-31.6a19.73,19.73,0,0,0-9.3,2.33v7h7A19.72,19.72,0,0,0,635.05-31.6Z" transform="translate(70.57 73.72)"/><path class="cls-21" d="M597.55,2.58a3.31,3.31,0,1,1,3.31,3.31A3.31,3.31,0,0,1,597.55,2.58Z" transform="translate(70.57 73.72)"/><path class="cls-21" d="M925.19-17.24h-6.11v-6.11a19.82,19.82,0,0,0-19.82-19.82,19.82,19.82,0,0,0-19.82,19.82v6.11h-6.11a19.82,19.82,0,0,0,0,39.64h6.11v6.11a19.82,19.82,0,0,0,39.64,0V22.4h6.11a19.82,19.82,0,0,0,0-39.64ZM927.65,5A3.35,3.35,0,0,1,922,3.27a.78.78,0,0,1-.22,0H906.05A20.52,20.52,0,0,1,919.1,22.38,20.59,20.59,0,0,1,900,9.43V25.07a.78.78,0,0,1,0,.22,3.35,3.35,0,1,1-1.38,0,.79.79,0,0,1-.05-.22V9.14A20.39,20.39,0,0,1,879.46,22.4,20.52,20.52,0,0,1,892.4,3.31H876.81a.78.78,0,0,1-.22,0,3.35,3.35,0,1,1,0-1.38.79.79,0,0,1,.22,0h15.26a20.65,20.65,0,0,1-12.61-19.08A20.4,20.4,0,0,1,898.52-3.88v-16a1,1,0,0,1,.05-.23,3.27,3.27,0,0,1-1.68-.9,3.36,3.36,0,0,1,0-4.73,3.35,3.35,0,0,1,4.74,0,3.36,3.36,0,0,1,0,4.73,3.27,3.27,0,0,1-1.68.9.93.93,0,0,1,0,.23V-4.14A20.56,20.56,0,0,1,916.2-17a21.92,21.92,0,0,1,2.9-.18A20.65,20.65,0,0,1,906.39,1.84h15.4a.79.79,0,0,1,.22,0A3.35,3.35,0,1,1,927.65,5Z" transform="translate(70.57 73.72)"/><path class="cls-21" d="M874.41-22.27v-7a19.76,19.76,0,0,0-9.28-2.32,19.73,19.73,0,0,0,2.32,9.31Z" transform="translate(70.57 73.72)"/><path class="cls-21" d="M865.15,36.75a19.72,19.72,0,0,0,9.3-2.32v-7h-7A19.75,19.75,0,0,0,865.15,36.75Z" transform="translate(70.57 73.72)"/><path class="cls-21" d="M924.19,27.43v7a19.75,19.75,0,0,0,9.28,2.31,19.72,19.72,0,0,0-2.32-9.3Z" transform="translate(70.57 73.72)"/><path class="cls-21" d="M933.45-31.6a19.73,19.73,0,0,0-9.3,2.33v7h7A19.72,19.72,0,0,0,933.45-31.6Z" transform="translate(70.57 73.72)"/><path class="cls-21" d="M896,2.58a3.31,3.31,0,1,1,3.31,3.31A3.31,3.31,0,0,1,896,2.58Z" transform="translate(70.57 73.72)"/><path class="cls-21" d="M330.88,882h-6.11v-6.11a19.82,19.82,0,0,0-39.64,0V882H279a19.82,19.82,0,0,0,0,39.64h6.11v6.11a19.82,19.82,0,0,0,39.64,0v-6.11h6.11a19.82,19.82,0,0,0,0-39.64Zm2.46,22.19a3.34,3.34,0,0,1-4.73,0,3.38,3.38,0,0,1-.9-1.68.59.59,0,0,1-.23,0H311.74a20.51,20.51,0,0,1,13.05,19.06,20.56,20.56,0,0,1-19.1-13v15.64a.64.64,0,0,1-.05.23,3.23,3.23,0,0,1,1.68.9,3.34,3.34,0,1,1-4.73,0,3.2,3.2,0,0,1,1.67-.9.93.93,0,0,1,0-.23V908.33a20.4,20.4,0,0,1-19.07,13.26,20.5,20.5,0,0,1,13-19.08H282.51a.59.59,0,0,1-.23,0,3.35,3.35,0,1,1,0-1.38.85.85,0,0,1,.23,0h15.25A20.68,20.68,0,0,1,285.15,882a20.42,20.42,0,0,1,19.07,13.36v-16a.78.78,0,0,1,0-.22,3.29,3.29,0,0,1-1.67-.91,3.34,3.34,0,1,1,3.05.91.54.54,0,0,1,.05.22v15.77a20.5,20.5,0,0,1,16.21-12.89,20.14,20.14,0,0,1,2.89-.19A20.67,20.67,0,0,1,312.08,901h15.4a.85.85,0,0,1,.23,0,3.34,3.34,0,1,1,5.63,3.06Z" transform="translate(70.57 73.72)"/><path class="cls-21" d="M280.1,876.92v-7a19.75,19.75,0,0,0-9.28-2.31,19.69,19.69,0,0,0,2.32,9.3Z" transform="translate(70.57 73.72)"/><path class="cls-21" d="M270.84,936a19.7,19.7,0,0,0,9.3-2.33v-7h-7A19.72,19.72,0,0,0,270.84,936Z" transform="translate(70.57 73.72)"/><path class="cls-21" d="M329.89,926.63v7a19.72,19.72,0,0,0,9.28,2.31,19.78,19.78,0,0,0-2.32-9.3Z" transform="translate(70.57 73.72)"/><path class="cls-21" d="M339.15,867.6a19.66,19.66,0,0,0-9.3,2.32v7h7A19.75,19.75,0,0,0,339.15,867.6Z" transform="translate(70.57 73.72)"/><path class="cls-21" d="M301.64,901.77a3.31,3.31,0,1,1,3.31,3.31A3.31,3.31,0,0,1,301.64,901.77Z" transform="translate(70.57 73.72)"/><path class="cls-21" d="M626.79,882h-6.11v-6.11a19.82,19.82,0,1,0-39.64,0V882h-6.11a19.82,19.82,0,1,0,0,39.64H581v6.11a19.82,19.82,0,1,0,39.64,0v-6.11h6.11a19.82,19.82,0,1,0,0-39.64Zm2.46,22.19a3.35,3.35,0,0,1-5.64-1.68.54.54,0,0,1-.22,0H607.65a20.51,20.51,0,0,1,13.05,19.06,20.58,20.58,0,0,1-19.11-13v15.64a.93.93,0,0,1,0,.23,3.2,3.2,0,0,1,1.67.9,3.34,3.34,0,1,1-4.73,0,3.27,3.27,0,0,1,1.68-.9,1,1,0,0,1,0-.23V908.33a20.38,20.38,0,0,1-19.06,13.26A20.51,20.51,0,0,1,594,902.51H578.41a.54.54,0,0,1-.22,0,3.33,3.33,0,1,1,0-1.38.78.78,0,0,1,.22,0h15.26A20.66,20.66,0,0,1,581.06,882a20.4,20.4,0,0,1,19.06,13.36v-16a.79.79,0,0,1,0-.22,3.35,3.35,0,1,1,3.05-.91,3.29,3.29,0,0,1-1.67.91.78.78,0,0,1,0,.22v15.77A20.32,20.32,0,0,1,620.7,882,20.67,20.67,0,0,1,608,901h15.4a.78.78,0,0,1,.22,0,3.29,3.29,0,0,1,.91-1.67,3.34,3.34,0,0,1,4.73,4.73Z" transform="translate(70.57 73.72)"/><path class="cls-21" d="M576,876.92v-7a19.75,19.75,0,0,0-9.28-2.31,19.69,19.69,0,0,0,2.32,9.3Z" transform="translate(70.57 73.72)"/><path class="cls-21" d="M566.75,936a19.73,19.73,0,0,0,9.3-2.33v-7h-7A19.72,19.72,0,0,0,566.75,936Z" transform="translate(70.57 73.72)"/><path class="cls-21" d="M625.79,926.63v7a19.75,19.75,0,0,0,9.28,2.31,19.66,19.66,0,0,0-2.32-9.3Z" transform="translate(70.57 73.72)"/><path class="cls-21" d="M635.05,867.6a19.72,19.72,0,0,0-9.3,2.32v7h7A19.75,19.75,0,0,0,635.05,867.6Z" transform="translate(70.57 73.72)"/><path class="cls-21" d="M597.55,901.77a3.31,3.31,0,1,1,3.31,3.31A3.31,3.31,0,0,1,597.55,901.77Z" transform="translate(70.57 73.72)"/><path class="cls-21" d="M925.19,882h-6.11v-6.11a19.82,19.82,0,1,0-39.64,0V882h-6.11a19.82,19.82,0,1,0,0,39.64h6.11v6.11a19.82,19.82,0,1,0,39.64,0v-6.11h6.11a19.82,19.82,0,1,0,0-39.64Zm2.46,22.19a3.35,3.35,0,0,1-5.64-1.68.54.54,0,0,1-.22,0H906.05a20.51,20.51,0,0,1,13.05,19.06,20.58,20.58,0,0,1-19.11-13v15.64a.93.93,0,0,1,0,.23,3.27,3.27,0,0,1,1.68.9,3.35,3.35,0,1,1-4.74,0,3.27,3.27,0,0,1,1.68-.9,1,1,0,0,1-.05-.23V908.33a20.38,20.38,0,0,1-19.06,13.26,20.51,20.51,0,0,1,12.94-19.08H876.81a.54.54,0,0,1-.22,0,3.33,3.33,0,1,1,0-1.38.78.78,0,0,1,.22,0h15.26A20.66,20.66,0,0,1,879.46,882a20.4,20.4,0,0,1,19.06,13.36v-16a.79.79,0,0,1,.05-.22,3.35,3.35,0,1,1,1.38,0,.78.78,0,0,1,0,.22v15.77A20.32,20.32,0,0,1,919.1,882,20.67,20.67,0,0,1,906.39,901h15.4a.78.78,0,0,1,.22,0,3.29,3.29,0,0,1,.91-1.67,3.34,3.34,0,0,1,4.73,4.73Z" transform="translate(70.57 73.72)"/><path class="cls-21" d="M874.41,876.92v-7a19.75,19.75,0,0,0-9.28-2.31,19.69,19.69,0,0,0,2.32,9.3Z" transform="translate(70.57 73.72)"/><path class="cls-21" d="M865.15,936a19.73,19.73,0,0,0,9.3-2.33v-7h-7A19.72,19.72,0,0,0,865.15,936Z" transform="translate(70.57 73.72)"/><path class="cls-21" d="M924.19,926.63v7a19.75,19.75,0,0,0,9.28,2.31,19.66,19.66,0,0,0-2.32-9.3Z" transform="translate(70.57 73.72)"/><path class="cls-21" d="M933.45,867.6a19.72,19.72,0,0,0-9.3,2.32v7h7A19.75,19.75,0,0,0,933.45,867.6Z" transform="translate(70.57 73.72)"/><path class="cls-21" d="M896,901.77a3.31,3.31,0,1,1,3.31,3.31A3.31,3.31,0,0,1,896,901.77Z" transform="translate(70.57 73.72)"/><path class="cls-21" d="M323.43,1177.46h-6.11v-6.11a19.82,19.82,0,0,0-39.64,0v6.11h-6.11a19.82,19.82,0,0,0,0,39.64h6.11v6.11a19.82,19.82,0,0,0,39.64,0v-6.11h6.11a19.82,19.82,0,1,0,0-39.64Zm2.46,22.19a3.34,3.34,0,0,1-4.73,0,3.3,3.3,0,0,1-.9-1.68.59.59,0,0,1-.23,0H304.29a20.52,20.52,0,0,1,13,19.06,20.56,20.56,0,0,1-19.1-12.95v15.64a.59.59,0,0,1-.05.23,3.35,3.35,0,1,1-1.38,0,.85.85,0,0,1,0-.23v-15.92a20.41,20.41,0,0,1-19.07,13.25A20.5,20.5,0,0,1,290.65,1198H275.06a.59.59,0,0,1-.23,0,3.35,3.35,0,1,1,0-1.38.85.85,0,0,1,.23,0h15.25a20.68,20.68,0,0,1-12.61-19.09,20.42,20.42,0,0,1,19.07,13.36v-16a.85.85,0,0,1,0-.23,3.38,3.38,0,1,1,1.38,0,.59.59,0,0,1,.05.23v15.76a20.52,20.52,0,0,1,16.21-12.89,20.12,20.12,0,0,1,2.89-.18,20.67,20.67,0,0,1-12.71,19.06H320a.85.85,0,0,1,.23,0,3.27,3.27,0,0,1,.9-1.67,3.34,3.34,0,0,1,4.73,4.73Z" transform="translate(70.57 73.72)"/><path class="cls-21" d="M272.65,1172.43v-7a19.75,19.75,0,0,0-9.28-2.31,19.69,19.69,0,0,0,2.32,9.3Z" transform="translate(70.57 73.72)"/><path class="cls-21" d="M263.39,1231.46a19.81,19.81,0,0,0,9.3-2.32v-7h-7A19.72,19.72,0,0,0,263.39,1231.46Z" transform="translate(70.57 73.72)"/><path class="cls-21" d="M322.44,1222.14v7a19.72,19.72,0,0,0,9.28,2.31,19.78,19.78,0,0,0-2.32-9.3Z" transform="translate(70.57 73.72)"/><path class="cls-21" d="M331.7,1163.11a19.66,19.66,0,0,0-9.3,2.32v7h7A19.75,19.75,0,0,0,331.7,1163.11Z" transform="translate(70.57 73.72)"/><path class="cls-21" d="M294.19,1197.28a3.31,3.31,0,1,1,3.31,3.32A3.31,3.31,0,0,1,294.19,1197.28Z" transform="translate(70.57 73.72)"/><path class="cls-21" d="M24.82,1177.6H18.71v-6.11a19.82,19.82,0,0,0-19.82-19.82,19.83,19.83,0,0,0-19.82,19.82v6.11H-27a19.83,19.83,0,0,0-19.82,19.82A19.82,19.82,0,0,0-27,1217.24h6.11v6.11a19.82,19.82,0,0,0,19.82,19.82,19.82,19.82,0,0,0,19.82-19.82v-6.11h6.11a19.82,19.82,0,0,0,0-39.64Zm2.47,22.19a3.34,3.34,0,0,1-5.64-1.68.59.59,0,0,1-.23.05H5.68a20.52,20.52,0,0,1,13.05,19.06,20.56,20.56,0,0,1-19.1-13v15.64a.59.59,0,0,1,0,.23,3.38,3.38,0,0,1,1.68.9,3.35,3.35,0,0,1,0,4.74,3.36,3.36,0,0,1-4.73,0,3.35,3.35,0,0,1,0-4.74,3.35,3.35,0,0,1,1.67-.9.85.85,0,0,1,0-.23V1204a20.41,20.41,0,0,1-19.07,13.25,20.5,20.5,0,0,1,13-19.08H-23.55a.59.59,0,0,1-.23-.05,3.38,3.38,0,0,1-.9,1.68,3.35,3.35,0,0,1-4.74,0,3.36,3.36,0,0,1,0-4.73,3.35,3.35,0,0,1,4.74,0,3.35,3.35,0,0,1,.9,1.67.85.85,0,0,1,.23,0H-8.3a20.68,20.68,0,0,1-12.61-19.09A20.42,20.42,0,0,1-1.84,1191v-16a.85.85,0,0,1,0-.23,3.35,3.35,0,0,1-1.67-.9,3.35,3.35,0,0,1,0-4.74,3.36,3.36,0,0,1,4.73,0,3.35,3.35,0,0,1,0,4.74,3.38,3.38,0,0,1-1.68.9.59.59,0,0,1,0,.23v15.76a20.52,20.52,0,0,1,16.21-12.89,20.12,20.12,0,0,1,2.89-.18A20.67,20.67,0,0,1,6,1196.69h15.4a.85.85,0,0,1,.23,0,3.35,3.35,0,1,1,5.64,3.06Z" transform="translate(70.57 73.72)"/><path class="cls-21" d="M-26,1172.57v-7a19.75,19.75,0,0,0-9.28-2.31,19.69,19.69,0,0,0,2.32,9.3Z" transform="translate(70.57 73.72)"/><path class="cls-21" d="M-35.22,1231.6a19.81,19.81,0,0,0,9.3-2.32v-7h-7A19.72,19.72,0,0,0-35.22,1231.6Z" transform="translate(70.57 73.72)"/><path class="cls-21" d="M23.83,1222.28v7a19.72,19.72,0,0,0,9.28,2.31,19.78,19.78,0,0,0-2.32-9.3Z" transform="translate(70.57 73.72)"/><path class="cls-21" d="M33.09,1163.25a19.69,19.69,0,0,0-9.3,2.32v7h7A19.75,19.75,0,0,0,33.09,1163.25Z" transform="translate(70.57 73.72)"/><path class="cls-21" d="M-4.42,1197.42a3.31,3.31,0,0,1,3.31-3.31,3.31,3.31,0,0,1,3.31,3.31,3.31,3.31,0,0,1-3.31,3.31A3.31,3.31,0,0,1-4.42,1197.42Z" transform="translate(70.57 73.72)"/><path class="cls-21" d="M1225.93,1177.6h-6.11v-6.11a19.82,19.82,0,1,0-39.64,0v6.11h-6.11a19.82,19.82,0,1,0,0,39.64h6.11v6.11a19.82,19.82,0,0,0,39.64,0v-6.11h6.11a19.82,19.82,0,0,0,0-39.64Zm2.46,22.19a3.34,3.34,0,0,1-4.73,0,3.3,3.3,0,0,1-.9-1.68.64.64,0,0,1-.23.05h-15.74a20.52,20.52,0,0,1,13,19.06,20.55,20.55,0,0,1-19.1-13v15.64a.86.86,0,0,1,0,.23,3.42,3.42,0,0,1,1.68.9,3.35,3.35,0,1,1-4.74,0,3.42,3.42,0,0,1,1.68-.9.85.85,0,0,1,0-.23V1204a20.41,20.41,0,0,1-19.07,13.25,20.5,20.5,0,0,1,13-19.08h-15.6a.54.54,0,0,1-.22-.05,3.33,3.33,0,1,1,0-1.38.78.78,0,0,1,.22,0h15.26a20.66,20.66,0,0,1-12.61-19.09,20.42,20.42,0,0,1,19.07,13.36v-16a.85.85,0,0,1,0-.23,3.42,3.42,0,0,1-1.68-.9,3.35,3.35,0,1,1,4.74,0,3.42,3.42,0,0,1-1.68.9.86.86,0,0,1,0,.23v15.76a20.52,20.52,0,0,1,16.21-12.89,20.12,20.12,0,0,1,2.89-.18,20.67,20.67,0,0,1-12.71,19.06h15.4a.93.93,0,0,1,.23,0,3.27,3.27,0,0,1,.9-1.67,3.34,3.34,0,0,1,4.73,4.73Z" transform="translate(70.57 73.72)"/><path class="cls-21" d="M1175.15,1172.57v-7a19.75,19.75,0,0,0-9.28-2.31,19.69,19.69,0,0,0,2.32,9.3Z" transform="translate(70.57 73.72)"/><path class="cls-21" d="M1165.89,1231.6a19.81,19.81,0,0,0,9.3-2.32v-7h-7A19.72,19.72,0,0,0,1165.89,1231.6Z" transform="translate(70.57 73.72)"/><path class="cls-21" d="M1224.94,1222.28v7a19.72,19.72,0,0,0,9.28,2.31,19.67,19.67,0,0,0-2.33-9.3Z" transform="translate(70.57 73.72)"/><path class="cls-21" d="M1234.2,1163.25a19.73,19.73,0,0,0-9.31,2.32v7h7A19.64,19.64,0,0,0,1234.2,1163.25Z" transform="translate(70.57 73.72)"/><path class="cls-21" d="M1196.69,1197.42a3.31,3.31,0,1,1,3.31,3.31A3.31,3.31,0,0,1,1196.69,1197.42Z" transform="translate(70.57 73.72)"/><path class="cls-21" d="M24.82,884H18.71V877.9A19.82,19.82,0,0,0-1.11,858.08,19.82,19.82,0,0,0-20.93,877.9V884H-27a19.82,19.82,0,0,0-19.82,19.82A19.83,19.83,0,0,0-27,923.65h6.11v6.11A19.83,19.83,0,0,0-1.11,949.58a19.82,19.82,0,0,0,19.82-19.82v-6.11h6.11a19.82,19.82,0,1,0,0-39.64Zm2.47,22.18a3.34,3.34,0,0,1-5.64-1.67.85.85,0,0,1-.23,0H5.68a20.52,20.52,0,0,1,13.05,19.07,20.58,20.58,0,0,1-19.1-13v15.64a.54.54,0,0,1,0,.22,3.32,3.32,0,0,1,1.68.91,3.34,3.34,0,0,1,0,4.73,3.34,3.34,0,0,1-4.73,0,3.34,3.34,0,0,1,0-4.73,3.29,3.29,0,0,1,1.67-.91.78.78,0,0,1,0-.22V910.39a20.42,20.42,0,0,1-19.07,13.26A20.52,20.52,0,0,1-8,904.56H-23.55a.85.85,0,0,1-.23,0,3.35,3.35,0,0,1-.9,1.67,3.35,3.35,0,0,1-4.74,0,3.36,3.36,0,0,1,0-4.73,3.35,3.35,0,0,1,4.74,0,3.42,3.42,0,0,1,.9,1.68.86.86,0,0,1,.23,0H-8.3A20.67,20.67,0,0,1-20.91,884,20.42,20.42,0,0,1-1.84,897.37v-16a.93.93,0,0,1,0-.23,3.27,3.27,0,0,1-1.67-.9,3.34,3.34,0,0,1,0-4.73,3.34,3.34,0,0,1,4.73,0,3.34,3.34,0,0,1,0,4.73,3.3,3.3,0,0,1-1.68.9.64.64,0,0,1,0,.23v15.77a20.53,20.53,0,0,1,16.21-12.9,20.12,20.12,0,0,1,2.89-.18A20.65,20.65,0,0,1,6,903.09h15.4a.86.86,0,0,1,.23,0,3.42,3.42,0,0,1,.9-1.68,3.35,3.35,0,1,1,4.74,4.73Z" transform="translate(70.57 73.72)"/><path class="cls-21" d="M-26,879v-7a19.76,19.76,0,0,0-9.28-2.32A19.73,19.73,0,0,0-32.92,879Z" transform="translate(70.57 73.72)"/><path class="cls-21" d="M-35.22,938a19.69,19.69,0,0,0,9.3-2.32v-7h-7A19.75,19.75,0,0,0-35.22,938Z" transform="translate(70.57 73.72)"/><path class="cls-21" d="M23.83,928.68v7A19.72,19.72,0,0,0,33.11,938a19.84,19.84,0,0,0-2.32-9.3Z" transform="translate(70.57 73.72)"/><path class="cls-21" d="M33.09,869.65a19.7,19.7,0,0,0-9.3,2.33v6.95h7A19.72,19.72,0,0,0,33.09,869.65Z" transform="translate(70.57 73.72)"/><path class="cls-21" d="M-4.42,903.83a3.32,3.32,0,0,1,3.31-3.32,3.32,3.32,0,0,1,3.31,3.32,3.31,3.31,0,0,1-3.31,3.31A3.31,3.31,0,0,1-4.42,903.83Z" transform="translate(70.57 73.72)"/><path class="cls-21" d="M1225.93,884h-6.11V877.9a19.82,19.82,0,1,0-39.64,0V884h-6.11a19.82,19.82,0,1,0,0,39.64h6.11v6.11a19.82,19.82,0,1,0,39.64,0v-6.11h6.11a19.82,19.82,0,0,0,0-39.64Zm2.46,22.18a3.34,3.34,0,0,1-4.73,0,3.27,3.27,0,0,1-.9-1.67.93.93,0,0,1-.23,0h-15.74a20.52,20.52,0,0,1,13,19.07,20.57,20.57,0,0,1-19.1-13v15.64a.79.79,0,0,1,0,.22,3.35,3.35,0,1,1-1.38,0,.78.78,0,0,1,0-.22V910.39a20.42,20.42,0,0,1-19.07,13.26,20.52,20.52,0,0,1,13-19.09h-15.6a.78.78,0,0,1-.22,0,3.29,3.29,0,0,1-.91,1.67,3.34,3.34,0,1,1,.91-3.05.79.79,0,0,1,.22,0h15.26A20.65,20.65,0,0,1,1180.2,884a20.42,20.42,0,0,1,19.07,13.36v-16a.93.93,0,0,1,0-.23,3.38,3.38,0,1,1,1.38,0,1,1,0,0,1,0,.23v15.77a20.53,20.53,0,0,1,16.21-12.9,20.12,20.12,0,0,1,2.89-.18,20.65,20.65,0,0,1-12.71,19.06h15.4a1,1,0,0,1,.23,0,3.34,3.34,0,1,1,5.63,3.05Z" transform="translate(70.57 73.72)"/><path class="cls-21" d="M1175.15,879v-7a19.76,19.76,0,0,0-9.28-2.32,19.73,19.73,0,0,0,2.32,9.31Z" transform="translate(70.57 73.72)"/><path class="cls-21" d="M1165.89,938a19.69,19.69,0,0,0,9.3-2.32v-7h-7A19.75,19.75,0,0,0,1165.89,938Z" transform="translate(70.57 73.72)"/><path class="cls-21" d="M1224.94,928.68v7a19.72,19.72,0,0,0,9.28,2.31,19.73,19.73,0,0,0-2.33-9.3Z" transform="translate(70.57 73.72)"/><path class="cls-21" d="M1234.2,869.65a19.74,19.74,0,0,0-9.31,2.33v6.95h7A19.61,19.61,0,0,0,1234.2,869.65Z" transform="translate(70.57 73.72)"/><path class="cls-21" d="M1196.69,903.83a3.31,3.31,0,1,1,3.31,3.31A3.32,3.32,0,0,1,1196.69,903.83Z" transform="translate(70.57 73.72)"/><path class="cls-21" d="M24.82,580.18H18.71v-6.11A19.82,19.82,0,0,0-1.11,554.25a19.83,19.83,0,0,0-19.82,19.82v6.11H-27A19.82,19.82,0,0,0-46.86,600,19.82,19.82,0,0,0-27,619.82h6.11v6.11A19.83,19.83,0,0,0-1.11,645.75a19.82,19.82,0,0,0,19.82-19.82v-6.11h6.11a19.82,19.82,0,0,0,0-39.64Zm2.47,22.19a3.37,3.37,0,0,1-4.74,0,3.42,3.42,0,0,1-.9-1.68.86.86,0,0,1-.23,0H5.68A20.51,20.51,0,0,1,18.73,619.8,20.56,20.56,0,0,1-.37,606.85v15.64a.64.64,0,0,1,0,.23,3.23,3.23,0,0,1,1.68.9,3.34,3.34,0,0,1,0,4.73,3.34,3.34,0,0,1-4.73,0,3.34,3.34,0,0,1,0-4.73,3.2,3.2,0,0,1,1.67-.9.93.93,0,0,1,0-.23V606.56a20.42,20.42,0,0,1-19.07,13.26A20.5,20.5,0,0,1-8,600.74H-23.55a.86.86,0,0,1-.23,0,3.42,3.42,0,0,1-.9,1.68,3.37,3.37,0,0,1-4.74,0,3.37,3.37,0,0,1,0-4.74,3.37,3.37,0,0,1,4.74,0,3.42,3.42,0,0,1,.9,1.68.85.85,0,0,1,.23,0H-8.3a20.68,20.68,0,0,1-12.61-19.09A20.42,20.42,0,0,1-1.84,593.54v-16a.78.78,0,0,1,0-.22,3.29,3.29,0,0,1-1.67-.91,3.34,3.34,0,0,1,0-4.73,3.34,3.34,0,0,1,4.73,0,3.34,3.34,0,0,1,0,4.73,3.32,3.32,0,0,1-1.68.91.54.54,0,0,1,0,.22v15.77a20.5,20.5,0,0,1,16.21-12.89,20.14,20.14,0,0,1,2.89-.19A20.67,20.67,0,0,1,6,599.27h15.4a.85.85,0,0,1,.23,0,3.42,3.42,0,0,1,.9-1.68,3.35,3.35,0,1,1,4.74,4.74Z" transform="translate(70.57 73.72)"/><path class="cls-21" d="M-26,575.15v-7a19.75,19.75,0,0,0-9.28-2.31,19.72,19.72,0,0,0,2.32,9.3Z" transform="translate(70.57 73.72)"/><path class="cls-21" d="M-35.22,634.18a19.7,19.7,0,0,0,9.3-2.33v-7h-7A19.72,19.72,0,0,0-35.22,634.18Z" transform="translate(70.57 73.72)"/><path class="cls-21" d="M23.83,624.85v7a19.73,19.73,0,0,0,9.28,2.32,19.85,19.85,0,0,0-2.32-9.31Z" transform="translate(70.57 73.72)"/><path class="cls-21" d="M33.09,565.83a19.69,19.69,0,0,0-9.3,2.32v7h7A19.75,19.75,0,0,0,33.09,565.83Z" transform="translate(70.57 73.72)"/><path class="cls-21" d="M-4.42,600a3.31,3.31,0,0,1,3.31-3.31A3.31,3.31,0,0,1,2.2,600a3.31,3.31,0,0,1-3.31,3.31A3.31,3.31,0,0,1-4.42,600Z" transform="translate(70.57 73.72)"/><path class="cls-21" d="M1225.93,580.18h-6.11v-6.11a19.82,19.82,0,1,0-39.64,0v6.11h-6.11a19.82,19.82,0,1,0,0,39.64h6.11v6.11a19.82,19.82,0,1,0,39.64,0v-6.11h6.11a19.82,19.82,0,0,0,0-39.64Zm2.46,22.19a3.33,3.33,0,0,1-5.63-1.68,1,1,0,0,1-.23,0h-15.74a20.51,20.51,0,0,1,13,19.06,20.55,20.55,0,0,1-19.1-12.95v15.64a1,1,0,0,1,0,.23,3.27,3.27,0,0,1,1.68.9,3.35,3.35,0,1,1-4.74,0,3.27,3.27,0,0,1,1.68-.9.93.93,0,0,1,0-.23V606.56a20.42,20.42,0,0,1-19.07,13.26,20.5,20.5,0,0,1,13-19.08h-15.6a.79.79,0,0,1-.22,0,3.35,3.35,0,1,1,0-1.38.78.78,0,0,1,.22,0h15.26a20.66,20.66,0,0,1-12.61-19.09,20.42,20.42,0,0,1,19.07,13.36v-16a.78.78,0,0,1,0-.22,3.35,3.35,0,1,1,1.38,0,.79.79,0,0,1,0,.22v15.77A20.5,20.5,0,0,1,1217,580.39a20.14,20.14,0,0,1,2.89-.19,20.67,20.67,0,0,1-12.71,19.07h15.4a.93.93,0,0,1,.23,0,3.34,3.34,0,1,1,5.63,3.06Z" transform="translate(70.57 73.72)"/><path class="cls-21" d="M1175.15,575.15v-7a19.75,19.75,0,0,0-9.28-2.31,19.72,19.72,0,0,0,2.32,9.3Z" transform="translate(70.57 73.72)"/><path class="cls-21" d="M1165.89,634.18a19.7,19.7,0,0,0,9.3-2.33v-7h-7A19.72,19.72,0,0,0,1165.89,634.18Z" transform="translate(70.57 73.72)"/><path class="cls-21" d="M1224.94,624.85v7a19.73,19.73,0,0,0,9.28,2.32,19.74,19.74,0,0,0-2.33-9.31Z" transform="translate(70.57 73.72)"/><path class="cls-21" d="M1234.2,565.83a19.73,19.73,0,0,0-9.31,2.32v7h7A19.64,19.64,0,0,0,1234.2,565.83Z" transform="translate(70.57 73.72)"/><path class="cls-21" d="M1196.69,600a3.31,3.31,0,1,1,3.31,3.31A3.31,3.31,0,0,1,1196.69,600Z" transform="translate(70.57 73.72)"/><path class="cls-21" d="M24.82,274.5H18.71v-6.11A19.82,19.82,0,0,0-1.11,248.57a19.82,19.82,0,0,0-19.82,19.82v6.11H-27a19.82,19.82,0,0,0-19.82,19.82A19.83,19.83,0,0,0-27,314.14h6.11v6.11A19.83,19.83,0,0,0-1.11,340.07a19.82,19.82,0,0,0,19.82-19.82v-6.11h6.11a19.82,19.82,0,0,0,0-39.64Zm2.47,22.19a3.37,3.37,0,0,1-4.74,0,3.42,3.42,0,0,1-.9-1.68.86.86,0,0,1-.23.05H5.68a20.5,20.5,0,0,1,13.05,19.06A20.56,20.56,0,0,1-.37,301.17v15.64a.54.54,0,0,1,0,.22,3.32,3.32,0,0,1,1.68.91,3.34,3.34,0,0,1,0,4.73,3.34,3.34,0,0,1-4.73,0,3.34,3.34,0,0,1,0-4.73A3.29,3.29,0,0,1-1.8,317a.78.78,0,0,1,0-.22V300.88a20.42,20.42,0,0,1-19.07,13.26A20.5,20.5,0,0,1-8,295.06H-23.55a.86.86,0,0,1-.23-.05,3.42,3.42,0,0,1-.9,1.68,3.37,3.37,0,0,1-4.74,0,3.37,3.37,0,0,1,0-4.74,3.37,3.37,0,0,1,4.74,0,3.42,3.42,0,0,1,.9,1.68.85.85,0,0,1,.23,0H-8.3A20.69,20.69,0,0,1-20.91,274.5,20.42,20.42,0,0,1-1.84,287.86v-16a.78.78,0,0,1,0-.22,3.29,3.29,0,0,1-1.67-.91,3.34,3.34,0,0,1,0-4.73,3.34,3.34,0,0,1,4.73,0,3.34,3.34,0,0,1,0,4.73,3.32,3.32,0,0,1-1.68.91.54.54,0,0,1,0,.22V287.6a20.5,20.5,0,0,1,16.21-12.89,20.14,20.14,0,0,1,2.89-.19A20.67,20.67,0,0,1,6,293.59h15.4a.85.85,0,0,1,.23,0,3.42,3.42,0,0,1,.9-1.68,3.35,3.35,0,1,1,4.74,4.74Z" transform="translate(70.57 73.72)"/><path class="cls-21" d="M-26,269.47v-7a19.75,19.75,0,0,0-9.28-2.31,19.72,19.72,0,0,0,2.32,9.3Z" transform="translate(70.57 73.72)"/><path class="cls-21" d="M-35.22,328.49a19.69,19.69,0,0,0,9.3-2.32v-7h-7A19.75,19.75,0,0,0-35.22,328.49Z" transform="translate(70.57 73.72)"/><path class="cls-21" d="M23.83,319.17v7a19.72,19.72,0,0,0,9.28,2.31,19.84,19.84,0,0,0-2.32-9.3Z" transform="translate(70.57 73.72)"/><path class="cls-21" d="M33.09,260.15a19.69,19.69,0,0,0-9.3,2.32v7h7A19.75,19.75,0,0,0,33.09,260.15Z" transform="translate(70.57 73.72)"/><path class="cls-21" d="M-4.42,294.32A3.31,3.31,0,0,1-1.11,291a3.31,3.31,0,0,1,3.31,3.31,3.31,3.31,0,0,1-3.31,3.31A3.31,3.31,0,0,1-4.42,294.32Z" transform="translate(70.57 73.72)"/><path class="cls-21" d="M1225.93,274.5h-6.11v-6.11a19.82,19.82,0,1,0-39.64,0v6.11h-6.11a19.82,19.82,0,1,0,0,39.64h6.11v6.11a19.82,19.82,0,1,0,39.64,0v-6.11h6.11a19.82,19.82,0,0,0,0-39.64Zm2.46,22.19a3.33,3.33,0,0,1-5.63-1.68,1,1,0,0,1-.23.05h-15.74a20.5,20.5,0,0,1,13,19.06,20.55,20.55,0,0,1-19.1-12.95v15.64a.79.79,0,0,1,0,.22,3.35,3.35,0,1,1-1.38,0,.78.78,0,0,1,0-.22V300.88a20.42,20.42,0,0,1-19.07,13.26,20.5,20.5,0,0,1,13-19.08h-15.6a.79.79,0,0,1-.22-.05,3.35,3.35,0,1,1,0-1.38.78.78,0,0,1,.22,0h15.26a20.67,20.67,0,0,1-12.61-19.09,20.42,20.42,0,0,1,19.07,13.36v-16a.78.78,0,0,1,0-.22,3.35,3.35,0,1,1,1.38,0,.79.79,0,0,1,0,.22V287.6A20.5,20.5,0,0,1,1217,274.71a20.14,20.14,0,0,1,2.89-.19,20.67,20.67,0,0,1-12.71,19.07h15.4a.93.93,0,0,1,.23,0,3.34,3.34,0,1,1,5.63,3.06Z" transform="translate(70.57 73.72)"/><path class="cls-21" d="M1175.15,269.47v-7a19.75,19.75,0,0,0-9.28-2.31,19.72,19.72,0,0,0,2.32,9.3Z" transform="translate(70.57 73.72)"/><path class="cls-21" d="M1165.89,328.49a19.69,19.69,0,0,0,9.3-2.32v-7h-7A19.75,19.75,0,0,0,1165.89,328.49Z" transform="translate(70.57 73.72)"/><path class="cls-21" d="M1224.94,319.17v7a19.72,19.72,0,0,0,9.28,2.31,19.73,19.73,0,0,0-2.33-9.3Z" transform="translate(70.57 73.72)"/><path class="cls-21" d="M1234.2,260.15a19.73,19.73,0,0,0-9.31,2.32v7h7A19.64,19.64,0,0,0,1234.2,260.15Z" transform="translate(70.57 73.72)"/><path class="cls-21" d="M1196.69,294.32a3.31,3.31,0,1,1,3.31,3.31A3.31,3.31,0,0,1,1196.69,294.32Z" transform="translate(70.57 73.72)"/><path class="cls-21" d="M24.82-17.24H18.71v-6.11A19.82,19.82,0,0,0-1.11-43.17,19.82,19.82,0,0,0-20.93-23.35v6.11H-27A19.82,19.82,0,0,0-46.86,2.58,19.83,19.83,0,0,0-27,22.4h6.11v6.11A19.83,19.83,0,0,0-1.11,48.33,19.82,19.82,0,0,0,18.71,28.51V22.4h6.11a19.82,19.82,0,0,0,0-39.64ZM27.29,5a3.37,3.37,0,0,1-4.74,0,3.42,3.42,0,0,1-.9-1.68.85.85,0,0,1-.23,0H5.68A20.52,20.52,0,0,1,18.73,22.38,20.58,20.58,0,0,1-.37,9.43V25.07a.54.54,0,0,1,0,.22,3.32,3.32,0,0,1,1.68.91,3.34,3.34,0,0,1,0,4.73,3.34,3.34,0,0,1-4.73,0,3.34,3.34,0,0,1,0-4.73,3.29,3.29,0,0,1,1.67-.91.78.78,0,0,1,0-.22V9.14A20.42,20.42,0,0,1-20.91,22.4,20.52,20.52,0,0,1-8,3.31H-23.55a.85.85,0,0,1-.23,0A3.42,3.42,0,0,1-24.68,5a3.37,3.37,0,0,1-4.74,0,3.37,3.37,0,0,1,0-4.74,3.37,3.37,0,0,1,4.74,0,3.42,3.42,0,0,1,.9,1.68.86.86,0,0,1,.23,0H-8.3A20.67,20.67,0,0,1-20.91-17.24,20.42,20.42,0,0,1-1.84-3.88v-16a.93.93,0,0,1,0-.23A3.2,3.2,0,0,1-3.47-21a3.34,3.34,0,0,1,0-4.73,3.34,3.34,0,0,1,4.73,0,3.34,3.34,0,0,1,0,4.73,3.23,3.23,0,0,1-1.68.9.64.64,0,0,1,0,.23V-4.14A20.53,20.53,0,0,1,15.84-17a21.67,21.67,0,0,1,2.89-.18A20.65,20.65,0,0,1,6,1.84h15.4a.86.86,0,0,1,.23,0,3.42,3.42,0,0,1,.9-1.68A3.35,3.35,0,1,1,27.29,5Z" transform="translate(70.57 73.72)"/><path class="cls-21" d="M-26-22.27v-7a19.76,19.76,0,0,0-9.28-2.32,19.73,19.73,0,0,0,2.32,9.31Z" transform="translate(70.57 73.72)"/><path class="cls-21" d="M-35.22,36.75a19.69,19.69,0,0,0,9.3-2.32v-7h-7A19.75,19.75,0,0,0-35.22,36.75Z" transform="translate(70.57 73.72)"/><path class="cls-21" d="M23.83,27.43v7a19.72,19.72,0,0,0,9.28,2.31,19.84,19.84,0,0,0-2.32-9.3Z" transform="translate(70.57 73.72)"/><path class="cls-21" d="M33.09-31.6a19.7,19.7,0,0,0-9.3,2.33v7h7A19.72,19.72,0,0,0,33.09-31.6Z" transform="translate(70.57 73.72)"/><path class="cls-21" d="M-4.42,2.58A3.31,3.31,0,0,1-1.11-.73,3.31,3.31,0,0,1,2.2,2.58,3.31,3.31,0,0,1-1.11,5.89,3.31,3.31,0,0,1-4.42,2.58Z" transform="translate(70.57 73.72)"/><path class="cls-21" d="M1225.93-17.24h-6.11v-6.11A19.82,19.82,0,0,0,1200-43.17a19.82,19.82,0,0,0-19.82,19.82v6.11h-6.11a19.82,19.82,0,1,0,0,39.64h6.11v6.11a19.82,19.82,0,1,0,39.64,0V22.4h6.11a19.82,19.82,0,0,0,0-39.64ZM1228.39,5a3.36,3.36,0,0,1-4.73,0,3.34,3.34,0,0,1-.9-1.68.93.93,0,0,1-.23,0h-15.74a20.52,20.52,0,0,1,13,19.07,20.57,20.57,0,0,1-19.1-12.95V25.07a.79.79,0,0,1,0,.22,3.35,3.35,0,1,1-1.38,0,.78.78,0,0,1,0-.22V9.14A20.42,20.42,0,0,1,1180.2,22.4a20.52,20.52,0,0,1,13-19.09h-15.6a.78.78,0,0,1-.22,0,3.35,3.35,0,1,1,0-1.38.79.79,0,0,1,.22,0h15.26a20.65,20.65,0,0,1-12.61-19.08,20.42,20.42,0,0,1,19.07,13.36v-16a.93.93,0,0,1,0-.23,3.27,3.27,0,0,1-1.68-.9,3.36,3.36,0,0,1,0-4.73,3.35,3.35,0,0,1,4.74,0,3.36,3.36,0,0,1,0,4.73,3.27,3.27,0,0,1-1.68.9,1,1,0,0,1,0,.23V-4.14A20.53,20.53,0,0,1,1217-17a21.67,21.67,0,0,1,2.89-.18,20.65,20.65,0,0,1-12.71,19.06h15.4a1,1,0,0,1,.23,0,3.34,3.34,0,0,1,.9-1.68A3.35,3.35,0,0,1,1228.39,5Z" transform="translate(70.57 73.72)"/><path class="cls-21" d="M1175.15-22.27v-7a19.76,19.76,0,0,0-9.28-2.32,19.73,19.73,0,0,0,2.32,9.31Z" transform="translate(70.57 73.72)"/><path class="cls-21" d="M1165.89,36.75a19.69,19.69,0,0,0,9.3-2.32v-7h-7A19.75,19.75,0,0,0,1165.89,36.75Z" transform="translate(70.57 73.72)"/><path class="cls-21" d="M1224.94,27.43v7a19.72,19.72,0,0,0,9.28,2.31,19.73,19.73,0,0,0-2.33-9.3Z" transform="translate(70.57 73.72)"/><path class="cls-21" d="M1234.2-31.6a19.74,19.74,0,0,0-9.31,2.33v7h7A19.61,19.61,0,0,0,1234.2-31.6Z" transform="translate(70.57 73.72)"/><path class="cls-21" d="M1196.69,2.58A3.31,3.31,0,1,1,1200,5.89,3.31,3.31,0,0,1,1196.69,2.58Z" transform="translate(70.57 73.72)"/><path class="cls-21" d="M623.77,1177.6h-6.11v-6.11a19.82,19.82,0,1,0-39.64,0v6.11h-6.11a19.82,19.82,0,0,0,0,39.64H578v6.11a19.82,19.82,0,1,0,39.64,0v-6.11h6.11a19.82,19.82,0,1,0,0-39.64Zm2.47,22.19a3.34,3.34,0,0,1-5.64-1.68.59.59,0,0,1-.23.05H604.63a20.52,20.52,0,0,1,13,19.06,20.56,20.56,0,0,1-19.1-13v15.64a.59.59,0,0,1-.05.23,3.35,3.35,0,1,1-1.38,0,.85.85,0,0,1,0-.23V1204A20.4,20.4,0,0,1,578,1217.24a20.5,20.5,0,0,1,13-19.08H575.4a.59.59,0,0,1-.23-.05,3.35,3.35,0,1,1,0-1.38.85.85,0,0,1,.23,0h15.25A20.68,20.68,0,0,1,578,1177.6,20.41,20.41,0,0,1,597.11,1191v-16a.85.85,0,0,1,0-.23,3.38,3.38,0,1,1,1.38,0,.59.59,0,0,1,.05.23v15.76a20.54,20.54,0,0,1,16.21-12.89,20.21,20.21,0,0,1,2.89-.18A20.67,20.67,0,0,1,605,1196.69h15.4a.85.85,0,0,1,.23,0,3.35,3.35,0,1,1,5.64,3.06Z" transform="translate(70.57 73.72)"/><path class="cls-21" d="M573,1172.57v-7a19.72,19.72,0,0,0-9.28-2.31,19.81,19.81,0,0,0,2.32,9.3Z" transform="translate(70.57 73.72)"/><path class="cls-21" d="M563.73,1231.6a19.81,19.81,0,0,0,9.3-2.32v-7h-7A19.72,19.72,0,0,0,563.73,1231.6Z" transform="translate(70.57 73.72)"/><path class="cls-21" d="M622.78,1222.28v7a19.72,19.72,0,0,0,9.28,2.31,19.66,19.66,0,0,0-2.32-9.3Z" transform="translate(70.57 73.72)"/><path class="cls-21" d="M632,1163.25a19.69,19.69,0,0,0-9.3,2.32v7h7A19.75,19.75,0,0,0,632,1163.25Z" transform="translate(70.57 73.72)"/><path class="cls-21" d="M594.53,1197.42a3.32,3.32,0,1,1,3.31,3.31A3.31,3.31,0,0,1,594.53,1197.42Z" transform="translate(70.57 73.72)"/><path class="cls-21" d="M921.88,1177.6h-6.12v-6.11a19.82,19.82,0,1,0-39.63,0v6.11H870a19.82,19.82,0,1,0,0,39.64h6.11v6.11a19.82,19.82,0,1,0,39.63,0v-6.11h6.12a19.82,19.82,0,0,0,0-39.64Zm2.46,22.19a3.35,3.35,0,0,1-5.64-1.68.54.54,0,0,1-.22.05H902.74a20.53,20.53,0,0,1,13,19.06,20.58,20.58,0,0,1-19.11-13v15.64a.85.85,0,0,1,0,.23,3.38,3.38,0,1,1-1.38,0,.59.59,0,0,1,0-.23V1204a20.39,20.39,0,0,1-19.06,13.25,20.51,20.51,0,0,1,12.94-19.08H873.5a.64.64,0,0,1-.23-.05,3.23,3.23,0,0,1-.9,1.68,3.34,3.34,0,1,1,0-4.73,3.2,3.2,0,0,1,.9,1.67.93.93,0,0,1,.23,0h15.25a20.67,20.67,0,0,1-12.6-19.09A20.41,20.41,0,0,1,895.21,1191v-16a.59.59,0,0,1,0-.23,3.35,3.35,0,1,1,1.38,0,.85.85,0,0,1,0,.23v15.76a20.55,20.55,0,0,1,16.21-12.89,20.34,20.34,0,0,1,2.9-.18,20.69,20.69,0,0,1-12.71,19.06h15.4a.78.78,0,0,1,.22,0,3.29,3.29,0,0,1,.91-1.67,3.34,3.34,0,0,1,4.73,4.73Z" transform="translate(70.57 73.72)"/><path class="cls-21" d="M871.09,1172.57v-7a19.72,19.72,0,0,0-9.28-2.31,19.7,19.7,0,0,0,2.33,9.3Z" transform="translate(70.57 73.72)"/><path class="cls-21" d="M861.83,1231.6a19.85,19.85,0,0,0,9.31-2.32v-7h-7A19.72,19.72,0,0,0,861.83,1231.6Z" transform="translate(70.57 73.72)"/><path class="cls-21" d="M920.88,1222.28v7a19.75,19.75,0,0,0,9.28,2.31,19.66,19.66,0,0,0-2.32-9.3Z" transform="translate(70.57 73.72)"/><path class="cls-21" d="M930.14,1163.25a19.69,19.69,0,0,0-9.3,2.32v7h7A19.75,19.75,0,0,0,930.14,1163.25Z" transform="translate(70.57 73.72)"/><path class="cls-21" d="M892.63,1197.42a3.32,3.32,0,1,1,3.32,3.31A3.32,3.32,0,0,1,892.63,1197.42Z" transform="translate(70.57 73.72)"/><path class="cls-4" d="M64.12,69.51A5,5,0,0,1,60.58,68L48.11,55.57a5,5,0,1,1,7.07-7.07L67.65,61a5,5,0,0,1-3.53,8.54Z" transform="translate(70.57 73.72)"/><path class="cls-4" d="M247,252a5,5,0,0,1-3.54-1.47L231,238.06a5,5,0,0,1,7.07-7.07l12.47,12.47A5,5,0,0,1,247,252Z" transform="translate(70.57 73.72)"/><path class="cls-4" d="M364.63,369.63a5,5,0,0,1-3.54-1.47l-12.47-12.47a5,5,0,1,1,7.07-7.07l12.47,12.47a5,5,0,0,1-3.53,8.54Z" transform="translate(70.57 73.72)"/><path class="cls-4" d="M232.82,367.68a5,5,0,0,1-3.53-8.53l12.47-12.47a5,5,0,0,1,7.07,7.07l-12.47,12.47A5,5,0,0,1,232.82,367.68Z" transform="translate(70.57 73.72)"/><path class="cls-4" d="M350.45,250.05a5,5,0,0,1-3.53-8.54L359.39,229a5,5,0,0,1,7.07,7.08L354,248.59A5,5,0,0,1,350.45,250.05Z" transform="translate(70.57 73.72)"/><path class="cls-4" d="M546.49,551.49A5,5,0,0,1,543,550l-12.47-12.48a5,5,0,0,1,7.08-7.07L550,543a5,5,0,0,1-3.54,8.53Z" transform="translate(70.57 73.72)"/><path class="cls-4" d="M664.12,669.12a5,5,0,0,1-3.54-1.46l-12.47-12.48a5,5,0,0,1,7.08-7.07l12.47,12.48a5,5,0,0,1-3.54,8.53Z" transform="translate(70.57 73.72)"/><path class="cls-4" d="M532.32,667.17a5,5,0,0,1-3.54-8.53l12.47-12.47a5,5,0,1,1,7.07,7.07l-12.47,12.47A5,5,0,0,1,532.32,667.17Z" transform="translate(70.57 73.72)"/><path class="cls-4" d="M650,549.54a5,5,0,0,1-3.54-8.53l12.48-12.47a5,5,0,0,1,7.07,7.07l-12.48,12.47A5,5,0,0,1,650,549.54Z" transform="translate(70.57 73.72)"/><path class="cls-4" d="M849,854a4.94,4.94,0,0,1-3.53-1.46L833,840.07a5,5,0,0,1,7.07-7.07l12.47,12.48A5,5,0,0,1,849,854Z" transform="translate(70.57 73.72)"/><path class="cls-4" d="M966.64,971.64a4.94,4.94,0,0,1-3.53-1.46l-12.47-12.47a5,5,0,1,1,7.07-7.07l12.47,12.47a5,5,0,0,1-3.54,8.53Z" transform="translate(70.57 73.72)"/><path class="cls-4" d="M834.84,969.7a5,5,0,0,1-3.54-8.54l12.48-12.47a5,5,0,1,1,7.07,7.07l-12.48,12.47A5,5,0,0,1,834.84,969.7Z" transform="translate(70.57 73.72)"/><path class="cls-4" d="M952.47,852.07a5,5,0,0,1-3.54-8.54l12.48-12.47a5,5,0,0,1,7.07,7.07L956,850.6A5,5,0,0,1,952.47,852.07Z" transform="translate(70.57 73.72)"/><path class="cls-4" d="M1148.17,1153.17a5,5,0,0,1-3.54-1.47l-12.47-12.47a5,5,0,0,1,7.07-7.07l12.47,12.47a5,5,0,0,1,0,7.07A5,5,0,0,1,1148.17,1153.17Z" transform="translate(70.57 73.72)"/><path class="cls-4" d="M1265.8,1270.8a5,5,0,0,1-3.54-1.47l-12.47-12.47a5,5,0,1,1,7.07-7.07l12.47,12.47a5,5,0,0,1-3.53,8.54Z" transform="translate(70.57 73.72)"/><path class="cls-4" d="M1134,1268.85a5,5,0,0,1-3.53-8.54l12.47-12.46a5,5,0,1,1,7.07,7.07l-12.47,12.47A5,5,0,0,1,1134,1268.85Z" transform="translate(70.57 73.72)"/><path class="cls-4" d="M1251.62,1151.22a5,5,0,0,1-3.53-8.54l12.47-12.47a5,5,0,0,1,7.07,7.08l-12.47,12.47A5,5,0,0,1,1251.62,1151.22Z" transform="translate(70.57 73.72)"/><path class="cls-4" d="M844.22,1153.17a5,5,0,0,1-3.54-1.47l-12.47-12.47a5,5,0,0,1,7.07-7.07l12.47,12.47a5,5,0,0,1-3.53,8.54Z" transform="translate(70.57 73.72)"/><path class="cls-4" d="M961.85,1270.8a5,5,0,0,1-3.54-1.47l-12.47-12.47a5,5,0,1,1,7.07-7.07l12.47,12.47a5,5,0,0,1-3.53,8.54Z" transform="translate(70.57 73.72)"/><path class="cls-4" d="M830,1268.85a5,5,0,0,1-3.53-8.54L839,1247.85a5,5,0,0,1,7.07,7.07l-12.47,12.47A5,5,0,0,1,830,1268.85Z" transform="translate(70.57 73.72)"/><path class="cls-4" d="M947.68,1151.22a5,5,0,0,1-3.54-8.54l12.47-12.47a5,5,0,0,1,7.07,7.08l-12.47,12.47A5,5,0,0,1,947.68,1151.22Z" transform="translate(70.57 73.72)"/><path class="cls-4" d="M542.8,1153.17a5,5,0,0,1-3.53-1.47l-12.47-12.47a5,5,0,0,1,7.07-7.07l12.47,12.47a5,5,0,0,1-3.54,8.54Z" transform="translate(70.57 73.72)"/><path class="cls-4" d="M660.43,1270.8a5,5,0,0,1-3.53-1.47l-12.47-12.47a5,5,0,1,1,7.07-7.07L664,1262.26a5,5,0,0,1-3.54,8.54Z" transform="translate(70.57 73.72)"/><path class="cls-4" d="M528.63,1268.85a5,5,0,0,1-3.54-8.54l12.48-12.46a5,5,0,0,1,7.07,7.07l-12.48,12.47A5,5,0,0,1,528.63,1268.85Z" transform="translate(70.57 73.72)"/><path class="cls-4" d="M646.26,1151.22a5,5,0,0,1-3.53-8.54l12.47-12.47a5,5,0,0,1,7.07,7.08l-12.47,12.47A5,5,0,0,1,646.26,1151.22Z" transform="translate(70.57 73.72)"/><path class="cls-4" d="M247.91,1153.17a5,5,0,0,1-3.53-1.47l-12.47-12.47a5,5,0,0,1,7.07-7.07l12.47,12.47a5,5,0,0,1-3.54,8.54Z" transform="translate(70.57 73.72)"/><path class="cls-4" d="M365.54,1270.8a5,5,0,0,1-3.53-1.47l-12.47-12.47a5,5,0,1,1,7.07-7.07l12.47,12.47a5,5,0,0,1-3.54,8.54Z" transform="translate(70.57 73.72)"/><path class="cls-4" d="M233.74,1268.85a5,5,0,0,1-3.54-8.54l12.48-12.46a5,5,0,0,1,7.07,7.07l-12.48,12.47A5,5,0,0,1,233.74,1268.85Z" transform="translate(70.57 73.72)"/><path class="cls-4" d="M351.37,1151.22a5,5,0,0,1-3.54-8.54l12.48-12.47a5,5,0,0,1,7.07,7.08l-12.48,12.47A5,5,0,0,1,351.37,1151.22Z" transform="translate(70.57 73.72)"/><path class="cls-4" d="M-51.4,1153.17a5,5,0,0,1-3.53-1.47l-12.47-12.47a5,5,0,0,1,0-7.07,5,5,0,0,1,7.07,0l12.47,12.47a5,5,0,0,1,0,7.07A5,5,0,0,1-51.4,1153.17Z" transform="translate(70.57 73.72)"/><path class="cls-4" d="M66.23,1270.8a5,5,0,0,1-3.53-1.47l-12.47-12.47a5,5,0,1,1,7.07-7.07l12.47,12.47a5,5,0,0,1-3.54,8.54Z" transform="translate(70.57 73.72)"/><path class="cls-4" d="M-65.57,1268.85a5,5,0,0,1-3.54-1.46,5,5,0,0,1,0-7.08l12.48-12.46a5,5,0,0,1,7.07,0,5,5,0,0,1,0,7.07L-62,1267.39A5,5,0,0,1-65.57,1268.85Z" transform="translate(70.57 73.72)"/><path class="cls-4" d="M52.06,1151.22a5,5,0,0,1-3.54-8.54L61,1130.21a5,5,0,0,1,7.07,7.08l-12.48,12.47A5,5,0,0,1,52.06,1151.22Z" transform="translate(70.57 73.72)"/><path class="cls-4" d="M1148.17,853.91a5,5,0,0,1-3.54-1.47L1132.16,840a5,5,0,0,1,7.07-7.07l12.47,12.47a5,5,0,0,1,0,7.07A5,5,0,0,1,1148.17,853.91Z" transform="translate(70.57 73.72)"/><path class="cls-4" d="M1265.8,971.54a5,5,0,0,1-3.54-1.47l-12.47-12.47a5,5,0,1,1,7.07-7.07L1269.33,963a5,5,0,0,1-3.53,8.54Z" transform="translate(70.57 73.72)"/><path class="cls-4" d="M1134,969.59a5,5,0,0,1-3.53-8.54l12.47-12.46a5,5,0,1,1,7.07,7.07l-12.47,12.47A5,5,0,0,1,1134,969.59Z" transform="translate(70.57 73.72)"/><path class="cls-4" d="M1251.62,852a5,5,0,0,1-3.53-8.54L1260.56,831a5,5,0,0,1,7.07,7.08l-12.47,12.47A5,5,0,0,1,1251.62,852Z" transform="translate(70.57 73.72)"/><path class="cls-4" d="M542.8,853.91a5,5,0,0,1-3.53-1.47L526.8,840a5,5,0,0,1,7.07-7.07l12.47,12.47a5,5,0,0,1-3.54,8.54Z" transform="translate(70.57 73.72)"/><path class="cls-4" d="M660.43,971.54a5,5,0,0,1-3.53-1.47L644.43,957.6a5,5,0,0,1,7.07-7.07L664,963a5,5,0,0,1-3.54,8.54Z" transform="translate(70.57 73.72)"/><path class="cls-4" d="M528.63,969.59a5,5,0,0,1-3.54-8.54l12.48-12.46a5,5,0,0,1,7.07,7.07l-12.48,12.47A5,5,0,0,1,528.63,969.59Z" transform="translate(70.57 73.72)"/><path class="cls-4" d="M646.26,852a5,5,0,0,1-3.53-8.54L655.2,831a5,5,0,0,1,7.07,7.08L649.8,850.5A5,5,0,0,1,646.26,852Z" transform="translate(70.57 73.72)"/><path class="cls-4" d="M247.91,853.91a5,5,0,0,1-3.53-1.47L231.91,840A5,5,0,1,1,239,832.9l12.47,12.47a5,5,0,0,1-3.54,8.54Z" transform="translate(70.57 73.72)"/><path class="cls-4" d="M365.54,971.54a5,5,0,0,1-3.53-1.47L349.54,957.6a5,5,0,0,1,7.07-7.07L369.08,963a5,5,0,0,1-3.54,8.54Z" transform="translate(70.57 73.72)"/><path class="cls-4" d="M233.74,969.59a5,5,0,0,1-3.54-8.54l12.48-12.46a5,5,0,0,1,7.07,7.07l-12.48,12.47A5,5,0,0,1,233.74,969.59Z" transform="translate(70.57 73.72)"/><path class="cls-4" d="M351.37,852a5,5,0,0,1-3.54-8.54L360.31,831a5,5,0,0,1,7.07,7.08L354.9,850.5A5,5,0,0,1,351.37,852Z" transform="translate(70.57 73.72)"/><path class="cls-4" d="M-51.4,853.91a5,5,0,0,1-3.53-1.47L-67.4,840a5,5,0,0,1,0-7.07,5,5,0,0,1,7.07,0l12.47,12.47a5,5,0,0,1,0,7.07A5,5,0,0,1-51.4,853.91Z" transform="translate(70.57 73.72)"/><path class="cls-4" d="M66.23,971.54a5,5,0,0,1-3.53-1.47L50.23,957.6a5,5,0,0,1,7.07-7.07L69.77,963a5,5,0,0,1-3.54,8.54Z" transform="translate(70.57 73.72)"/><path class="cls-4" d="M-65.57,969.59a5,5,0,0,1-3.54-1.46,5,5,0,0,1,0-7.08l12.48-12.46a5,5,0,0,1,7.07,0,5,5,0,0,1,0,7.07L-62,968.13A5,5,0,0,1-65.57,969.59Z" transform="translate(70.57 73.72)"/><path class="cls-4" d="M52.06,852a5,5,0,0,1-3.54-8.54L61,831A5,5,0,0,1,68.07,838L55.59,850.5A5,5,0,0,1,52.06,852Z" transform="translate(70.57 73.72)"/><path class="cls-4" d="M849,554.52a4.94,4.94,0,0,1-3.53-1.46L833,540.59a5,5,0,1,1,7.07-7.07L852.55,546a5,5,0,0,1-3.54,8.53Z" transform="translate(70.57 73.72)"/><path class="cls-4" d="M966.64,672.15a4.94,4.94,0,0,1-3.53-1.46l-12.47-12.47a5,5,0,1,1,7.07-7.07l12.47,12.47a5,5,0,0,1-3.54,8.53Z" transform="translate(70.57 73.72)"/><path class="cls-4" d="M834.84,670.21a5,5,0,0,1-3.54-8.54l12.48-12.47a5,5,0,1,1,7.07,7.07l-12.48,12.47A5,5,0,0,1,834.84,670.21Z" transform="translate(70.57 73.72)"/><path class="cls-4" d="M952.47,552.58a5,5,0,0,1-3.54-8.54l12.48-12.47a5,5,0,0,1,7.07,7.07L956,551.11A5,5,0,0,1,952.47,552.58Z" transform="translate(70.57 73.72)"/><path class="cls-4" d="M1148.17,554.42a5,5,0,0,1-3.54-1.47l-12.47-12.47a5,5,0,0,1,7.07-7.07l12.47,12.47a5,5,0,0,1,0,7.07A5,5,0,0,1,1148.17,554.42Z" transform="translate(70.57 73.72)"/><path class="cls-4" d="M1265.8,672.05a5,5,0,0,1-3.54-1.47l-12.47-12.47a5,5,0,1,1,7.07-7.07l12.47,12.47a5,5,0,0,1-3.53,8.54Z" transform="translate(70.57 73.72)"/><path class="cls-4" d="M1134,670.1a5,5,0,0,1-3.53-8.53l12.47-12.47a5,5,0,1,1,7.07,7.07l-12.47,12.47A5,5,0,0,1,1134,670.1Z" transform="translate(70.57 73.72)"/><path class="cls-4" d="M1251.62,552.47a5,5,0,0,1-3.53-8.54l12.47-12.47a5,5,0,0,1,7.07,7.08L1255.16,551A5,5,0,0,1,1251.62,552.47Z" transform="translate(70.57 73.72)"/><path class="cls-4" d="M247.91,554.42a5,5,0,0,1-3.53-1.47l-12.47-12.47a5,5,0,1,1,7.07-7.07l12.47,12.47a5,5,0,0,1-3.54,8.54Z" transform="translate(70.57 73.72)"/><path class="cls-4" d="M365.54,672.05a5,5,0,0,1-3.53-1.47l-12.47-12.47a5,5,0,0,1,7.07-7.07l12.47,12.47a5,5,0,0,1-3.54,8.54Z" transform="translate(70.57 73.72)"/><path class="cls-4" d="M233.74,670.1a5,5,0,0,1-3.54-8.53l12.48-12.47a5,5,0,0,1,7.07,7.07l-12.48,12.47A5,5,0,0,1,233.74,670.1Z" transform="translate(70.57 73.72)"/><path class="cls-4" d="M351.37,552.47a5,5,0,0,1-3.54-8.54l12.48-12.47a5,5,0,0,1,7.07,7.08L354.9,551A5,5,0,0,1,351.37,552.47Z" transform="translate(70.57 73.72)"/><path class="cls-4" d="M-51.4,554.42A5,5,0,0,1-54.93,553L-67.4,540.48a5,5,0,0,1,0-7.07,5,5,0,0,1,7.07,0l12.47,12.47a5,5,0,0,1,0,7.07A5,5,0,0,1-51.4,554.42Z" transform="translate(70.57 73.72)"/><path class="cls-4" d="M66.23,672.05a5,5,0,0,1-3.53-1.47L50.23,658.11A5,5,0,0,1,57.3,651l12.47,12.47a5,5,0,0,1-3.54,8.54Z" transform="translate(70.57 73.72)"/><path class="cls-4" d="M-65.57,670.1a5,5,0,0,1-3.54-1.46,5,5,0,0,1,0-7.07l12.48-12.47a5,5,0,0,1,7.07,0,5,5,0,0,1,0,7.07L-62,668.64A5,5,0,0,1-65.57,670.1Z" transform="translate(70.57 73.72)"/><path class="cls-4" d="M52.06,552.47a5,5,0,0,1-3.54-8.54L61,531.46a5,5,0,0,1,7.07,7.08L55.59,551A5,5,0,0,1,52.06,552.47Z" transform="translate(70.57 73.72)"/><path class="cls-4" d="M546.49,252.88a5,5,0,0,1-3.54-1.46l-12.47-12.48a5,5,0,0,1,7.08-7.07L550,244.35a5,5,0,0,1-3.54,8.53Z" transform="translate(70.57 73.72)"/><path class="cls-4" d="M664.12,370.51a5,5,0,0,1-3.54-1.46l-12.47-12.48a5,5,0,0,1,7.08-7.07L667.66,362a5,5,0,0,1-3.54,8.53Z" transform="translate(70.57 73.72)"/><path class="cls-4" d="M532.32,368.56a5,5,0,0,1-3.54-8.53l12.47-12.47a5,5,0,1,1,7.07,7.07L535.85,367.1A5,5,0,0,1,532.32,368.56Z" transform="translate(70.57 73.72)"/><path class="cls-4" d="M650,250.93a5,5,0,0,1-3.54-8.53l12.48-12.47A5,5,0,0,1,666,237l-12.48,12.47A5,5,0,0,1,650,250.93Z" transform="translate(70.57 73.72)"/><path class="cls-4" d="M849,255.91a4.94,4.94,0,0,1-3.53-1.46L833,242a5,5,0,1,1,7.07-7.07l12.47,12.47a5,5,0,0,1-3.54,8.53Z" transform="translate(70.57 73.72)"/><path class="cls-4" d="M966.64,373.54a4.94,4.94,0,0,1-3.53-1.46l-12.47-12.47a5,5,0,1,1,7.07-7.07L970.18,365a5,5,0,0,1-3.54,8.53Z" transform="translate(70.57 73.72)"/><path class="cls-4" d="M834.84,371.6a5,5,0,0,1-3.54-8.54l12.48-12.47a5,5,0,1,1,7.07,7.07l-12.48,12.47A5,5,0,0,1,834.84,371.6Z" transform="translate(70.57 73.72)"/><path class="cls-4" d="M952.47,254a5,5,0,0,1-3.54-8.54L961.41,233a5,5,0,0,1,7.07,7.07L956,252.5A5,5,0,0,1,952.47,254Z" transform="translate(70.57 73.72)"/><path class="cls-4" d="M1148.17,255.81a5,5,0,0,1-3.54-1.47l-12.47-12.47a5,5,0,0,1,7.07-7.07l12.47,12.47a5,5,0,0,1,0,7.07A5,5,0,0,1,1148.17,255.81Z" transform="translate(70.57 73.72)"/><path class="cls-4" d="M1265.8,373.44a5,5,0,0,1-3.54-1.47l-12.47-12.47a5,5,0,1,1,7.07-7.07l12.47,12.47a5,5,0,0,1-3.53,8.54Z" transform="translate(70.57 73.72)"/><path class="cls-4" d="M1134,371.49a5,5,0,0,1-3.53-8.53l12.47-12.47a5,5,0,1,1,7.07,7.07L1137.53,370A5,5,0,0,1,1134,371.49Z" transform="translate(70.57 73.72)"/><path class="cls-4" d="M1251.62,253.86a5,5,0,0,1-3.53-8.54l12.47-12.47a5,5,0,0,1,7.07,7.08l-12.47,12.47A5,5,0,0,1,1251.62,253.86Z" transform="translate(70.57 73.72)"/><path class="cls-4" d="M247-49.3a5,5,0,0,1-3.54-1.46L231-63.24a5,5,0,0,1,0-7.07,5,5,0,0,1,7.07,0l12.47,12.48a5,5,0,0,1,0,7.07A5,5,0,0,1,247-49.3Z" transform="translate(70.57 73.72)"/><path class="cls-4" d="M364.63,68.33a5,5,0,0,1-3.54-1.46L348.62,54.39a5,5,0,1,1,7.07-7.07L368.16,59.8a5,5,0,0,1-3.53,8.53Z" transform="translate(70.57 73.72)"/><path class="cls-4" d="M232.82,66.38a4.94,4.94,0,0,1-3.53-1.46,5,5,0,0,1,0-7.07l12.47-12.47a5,5,0,1,1,7.07,7.07L236.36,64.92A5,5,0,0,1,232.82,66.38Z" transform="translate(70.57 73.72)"/><path class="cls-4" d="M350.45-51.25a5,5,0,0,1-3.53-1.46,5,5,0,0,1,0-7.07l12.47-12.47a5,5,0,0,1,7.07,0,5,5,0,0,1,0,7.07L354-52.71A5,5,0,0,1,350.45-51.25Z" transform="translate(70.57 73.72)"/><path class="cls-4" d="M546.49-48.42A5,5,0,0,1,543-49.88L530.48-62.35a5,5,0,0,1,0-7.08,5,5,0,0,1,7.08,0L550-56.95a5,5,0,0,1,0,7.07A4.94,4.94,0,0,1,546.49-48.42Z" transform="translate(70.57 73.72)"/><path class="cls-4" d="M664.12,69.21a5,5,0,0,1-3.54-1.46L648.11,55.28a5,5,0,1,1,7.08-7.07l12.47,12.47a5,5,0,0,1,0,7.07A4.94,4.94,0,0,1,664.12,69.21Z" transform="translate(70.57 73.72)"/><path class="cls-4" d="M532.32,67.27a5,5,0,0,1-3.54-8.54l12.47-12.47a5,5,0,1,1,7.07,7.07L535.85,65.8A5,5,0,0,1,532.32,67.27Z" transform="translate(70.57 73.72)"/><path class="cls-4" d="M650-50.36a5,5,0,0,1-3.54-1.47,5,5,0,0,1,0-7.07l12.48-12.47a5,5,0,0,1,7.07,0,5,5,0,0,1,0,7.07L653.48-51.83A5,5,0,0,1,650-50.36Z" transform="translate(70.57 73.72)"/><path class="cls-4" d="M849-45.38a5,5,0,0,1-3.53-1.47L833-59.32a5,5,0,0,1,0-7.07,5,5,0,0,1,7.07,0l12.47,12.47a5,5,0,0,1,0,7.07A5,5,0,0,1,849-45.38Z" transform="translate(70.57 73.72)"/><path class="cls-4" d="M966.64,72.25a5,5,0,0,1-3.53-1.47L950.64,58.31a5,5,0,1,1,7.07-7.07l12.47,12.47a5,5,0,0,1-3.54,8.54Z" transform="translate(70.57 73.72)"/><path class="cls-4" d="M834.84,70.3a5,5,0,0,1-3.54-8.54l12.48-12.47a5,5,0,1,1,7.07,7.08L838.37,68.83A5,5,0,0,1,834.84,70.3Z" transform="translate(70.57 73.72)"/><path class="cls-4" d="M952.47-47.33a5,5,0,0,1-3.54-1.47,5,5,0,0,1,0-7.07l12.48-12.47a5,5,0,0,1,7.07,0,5,5,0,0,1,0,7.07L956-48.8A5,5,0,0,1,952.47-47.33Z" transform="translate(70.57 73.72)"/><path class="cls-4" d="M1148.17-45.49a5,5,0,0,1-3.54-1.46l-12.47-12.48a5,5,0,0,1,0-7.07,5,5,0,0,1,7.07,0L1151.7-54a5,5,0,0,1,0,7.07A5,5,0,0,1,1148.17-45.49Z" transform="translate(70.57 73.72)"/><path class="cls-4" d="M1265.8,72.14a5,5,0,0,1-3.54-1.46L1249.79,58.2a5,5,0,1,1,7.07-7.07l12.47,12.48a5,5,0,0,1-3.53,8.53Z" transform="translate(70.57 73.72)"/><path class="cls-4" d="M1134,70.19a5,5,0,0,1-3.53-8.53l12.47-12.47a5,5,0,1,1,7.07,7.07l-12.47,12.47A5,5,0,0,1,1134,70.19Z" transform="translate(70.57 73.72)"/><path class="cls-4" d="M1251.62-47.44a5,5,0,0,1-3.53-1.46,5,5,0,0,1,0-7.07l12.47-12.47a5,5,0,0,1,7.07,0,5,5,0,0,1,0,7.07L1255.16-48.9A5,5,0,0,1,1251.62-47.44Z" transform="translate(70.57 73.72)"/><path class="cls-4" d="M-51.4,255.81a5,5,0,0,1-3.53-1.47L-67.4,241.87a5,5,0,0,1,0-7.07,5,5,0,0,1,7.07,0l12.47,12.47a5,5,0,0,1,0,7.07A5,5,0,0,1-51.4,255.81Z" transform="translate(70.57 73.72)"/><path class="cls-4" d="M66.23,373.44A5,5,0,0,1,62.7,372L50.23,359.5a5,5,0,0,1,7.07-7.07L69.77,364.9a5,5,0,0,1-3.54,8.54Z" transform="translate(70.57 73.72)"/><path class="cls-4" d="M-65.57,371.49A5,5,0,0,1-69.11,370a5,5,0,0,1,0-7.07l12.48-12.47a5,5,0,0,1,7.07,0,5,5,0,0,1,0,7.07L-62,370A5,5,0,0,1-65.57,371.49Z" transform="translate(70.57 73.72)"/><path class="cls-4" d="M52.06,253.86a5,5,0,0,1-3.54-8.54L61,232.85a5,5,0,0,1,7.07,7.08L55.59,252.4A5,5,0,0,1,52.06,253.86Z" transform="translate(70.57 73.72)"/></g></g></svg>