<svg id="OBJECTS" xmlns="http://www.w3.org/2000/svg" xmlns:xlink="http://www.w3.org/1999/xlink" viewBox="0 0 92.91 405.39"><defs><style>.cls-1{fill:none;}.cls-2{fill:#fa4b48;}.cls-3{fill:#ce3636;}.cls-4{fill:#f2dab3;}.cls-5{fill:#ff8440;}.cls-6{fill:#ad2121;}.cls-7{fill:#ffab3f;}.cls-8{fill:#e56829;}.cls-9{fill:#500b14;}.cls-10{fill:#fbf6e5;}.cls-11{clip-path:url(#clip-path);}.cls-12{fill:#f0bc59;}.cls-13{clip-path:url(#clip-path-2);}.cls-14{clip-path:url(#clip-path-3);}</style><clipPath id="clip-path"><ellipse class="cls-1" cx="62.23" cy="140.35" rx="21.86" ry="23.83"/></clipPath><clipPath id="clip-path-2"><ellipse class="cls-1" cx="48.79" cy="87.02" rx="17.86" ry="19.47"/></clipPath><clipPath id="clip-path-3"><ellipse class="cls-1" cx="72.82" cy="45.21" rx="19.37" ry="14.87" transform="translate(21.17 113.61) rotate(-84.77)"/></clipPath></defs><path class="cls-2" d="M61,346.92a6.46,6.46,0,0,1-3.32,2.73c-1.69.46-3.44-.34-5-1.11a1.92,1.92,0,0,1-.95-.77,1.85,1.85,0,0,1,.17-1.48,7.81,7.81,0,0,1,2.65-3.93,5.08,5.08,0,0,1,3.13-.65,10.69,10.69,0,0,1,2.23.48,1.15,1.15,0,0,1,.8,1A2.23,2.23,0,0,0,61,344a3.42,3.42,0,0,1,.61,1.45A2.42,2.42,0,0,1,61,346.92Z"/><path class="cls-3" d="M56.37,345.51c.26.66.93,1.16,1,1.88a1.46,1.46,0,0,1-.78,1.28,2.72,2.72,0,0,1-1.54.27,5,5,0,0,1-2.59-1,.93.93,0,0,1-.37-1.27,5.61,5.61,0,0,1,1.36-2.07,2.63,2.63,0,0,1,1.21-.71,1.28,1.28,0,0,1,1.29.4A4.77,4.77,0,0,1,56.37,345.51Z"/><path class="cls-2" d="M15.77,292.69a12.51,12.51,0,0,0-1.19-3.62,13.78,13.78,0,0,0-2.29-3.84c-.24-.26-.53-.53-.48-.71s.63-.22,1.16-.14a6.51,6.51,0,0,1,4.72,3,6.58,6.58,0,0,1,.84,4.28,6.26,6.26,0,0,1-.89,2.39c-.24.39-.51.5-.64.27a.42.42,0,0,0-.36-.2c-.24,0-.51,0-.65-.23A4.18,4.18,0,0,1,15.77,292.69Z"/><path class="cls-3" d="M16.51,288.66c-.3.11-.42.65-.79.53a2.6,2.6,0,0,1-.93-.91c-.31-.42-.6-.87-.89-1.29-.51-.74-1.05-1.4-1.42-2-.09-.14-.18-.29-.1-.37s.32-.08.56,0a5.49,5.49,0,0,1,2.61,1.15,4.8,4.8,0,0,1,1.23,1.42,1.79,1.79,0,0,1,.29,1.35C17,288.71,16.69,288.59,16.51,288.66Z"/><path class="cls-2" d="M29.78,333.07a6.48,6.48,0,0,1-3.16-2.92c-.69-1.61-.14-3.45.41-5.12a1.89,1.89,0,0,1,.63-1,1.88,1.88,0,0,1,1.49,0c1.56.4,3.22.86,4.26,2.09a5,5,0,0,1,1.07,3,10.18,10.18,0,0,1-.17,2.27,1.15,1.15,0,0,1-.84.93,2.32,2.32,0,0,0-.81.42,3.37,3.37,0,0,1-1.35.81A2.5,2.5,0,0,1,29.78,333.07Z"/><path class="cls-3" d="M30.55,328.33c-.62.36-1,1.09-1.73,1.23a1.46,1.46,0,0,1-1.38-.6,2.68,2.68,0,0,1-.47-1.48,5,5,0,0,1,.61-2.7.9.9,0,0,1,1.2-.54A5.59,5.59,0,0,1,31,325.3a2.68,2.68,0,0,1,.88,1.1,1.3,1.3,0,0,1-.22,1.33A4.53,4.53,0,0,1,30.55,328.33Z"/><path class="cls-2" d="M37.05,301.61a5.63,5.63,0,0,1,2.25-2.16,5.62,5.62,0,0,1,3.6,0,.78.78,0,0,1,.63,1.29,6,6,0,0,1-1.74,2.81,4.46,4.46,0,0,1-2.2.85,7.7,7.7,0,0,1-1.59,0,.63.63,0,0,1-.6-.48,1,1,0,0,0-.25-.5,1.61,1.61,0,0,1-.48-.81A1.65,1.65,0,0,1,37.05,301.61Z"/><path class="cls-3" d="M40.35,301.84c-.22-.37-.71-.59-.76-1a1.06,1.06,0,0,1,.5-.9,2.39,2.39,0,0,1,1.08-.39,3.62,3.62,0,0,1,1.87.24.68.68,0,0,1,.34.28.62.62,0,0,1,0,.46,4.07,4.07,0,0,1-.89,1.48,2.19,2.19,0,0,1-.83.61.93.93,0,0,1-.92-.06C40.5,302.35,40.47,302.07,40.35,301.84Z"/><path class="cls-2" d="M33.25,249.77a5.52,5.52,0,0,1,.16,3.12,5.63,5.63,0,0,1-2.34,2.72,1.08,1.08,0,0,1-.72.31c-.3,0-.5-.37-.67-.67a6,6,0,0,1-1-3.16,4.36,4.36,0,0,1,.8-2.21,7.64,7.64,0,0,1,1-1.22.64.64,0,0,1,.76-.14,1.08,1.08,0,0,0,.53.14,1.54,1.54,0,0,1,.93.17A1.65,1.65,0,0,1,33.25,249.77Z"/><path class="cls-3" d="M30.92,252.11c.42.08.91-.15,1.27.1a1.06,1.06,0,0,1,.36,1,2.39,2.39,0,0,1-.42,1.06,3.43,3.43,0,0,1-1.41,1.25.61.61,0,0,1-.43.08.69.69,0,0,1-.32-.33,4.07,4.07,0,0,1-.53-1.64,2.39,2.39,0,0,1,.07-1,.92.92,0,0,1,.66-.65C30.43,251.89,30.67,252.06,30.92,252.11Z"/><path class="cls-3" d="M38.87,398a6.74,6.74,0,1,1,.65-8.17A6.81,6.81,0,0,1,38.87,398Z"/><path class="cls-2" d="M31.64,404a4.39,4.39,0,0,1-.78-3.65c.37-1.33,1.49-2.22,2.29-3.29a4.77,4.77,0,0,0,.84-1.59c0-.14.09-.66.32-.45a3.61,3.61,0,0,1,.25.3,9.55,9.55,0,0,0,3.2,2,4.22,4.22,0,0,1,2.48,2.87,4.52,4.52,0,0,1-.77,3.59,3,3,0,0,1-1.62.86c-.64.15-1.27.35-1.9.53a3.92,3.92,0,0,1-3.6-.38,4.21,4.21,0,0,1-.71-.81C31.39,403.58,31.83,404.22,31.64,404Z"/><path class="cls-3" d="M35.64,400.09c-1,.31-2.71,1.12-3-.51a3.06,3.06,0,0,1,.47-1.78c.31-.64.65-1.26.92-1.92,0-.1.16-.64.35-.52a3.46,3.46,0,0,1,.51.57c.48.51,1,1,1.52,1.46a2,2,0,0,1,.81,1.75c-.18.76-1,.76-1.59.95C35.46,400.14,35.75,400.05,35.64,400.09Z"/><path class="cls-2" d="M23.2,394.58a4.42,4.42,0,0,1,3.23-1.87c1.36-.06,2.55.73,3.79,1.16a4.93,4.93,0,0,0,1.66.31c.1,0,.71-.09.7.07s-.34.56-.45.79a13.34,13.34,0,0,0-.77,3.66,4,4,0,0,1-2.19,3,4.33,4.33,0,0,1-3.54.14,3.26,3.26,0,0,1-1.2-1.27c-.36-.56-.75-1.11-1.12-1.68a3.82,3.82,0,0,1-.71-3.3,3.49,3.49,0,0,1,.6-1Z"/><path class="cls-3" d="M28.1,397.19c-.37-.57-1-1-1.09-1.73A1.27,1.27,0,0,1,28.19,394a8.17,8.17,0,0,1,2.26.2c.33,0,.66.1,1,.13.13,0,.83,0,.77.17a11,11,0,0,1-.75,1.39c-.14.29-.27.59-.41.88-.27.6-.61,1.33-1.28,1.55-.9.3-1.26-.56-1.67-1.16C28.05,397.11,28.17,397.28,28.1,397.19Z"/><path class="cls-2" d="M29.5,383.65a4.46,4.46,0,0,1,2.77,2.5c.46,1.24.12,2.56.07,3.83a5,5,0,0,0,.22,1.81c0,.11.28.54.2.65s-.71-.09-.82-.12a10.34,10.34,0,0,0-3.54.32,4.17,4.17,0,0,1-3.62-.85,4.51,4.51,0,0,1-1.5-3.44,3.06,3.06,0,0,1,.8-1.58c.46-.54.87-1.12,1.32-1.66a3.71,3.71,0,0,1,3.21-1.68,4,4,0,0,1,.89.22Z"/><path class="cls-3" d="M28.53,389.13c.45-.56.72-1.35,1.43-1.64a1.36,1.36,0,0,1,1.71,1c.39,1.06.38,2.24.69,3.32,0,.18.14.43-.14.38s-.74-.16-1.11-.22-.88-.11-1.32-.17c-.68-.09-1.54-.18-1.92-.84s.23-1.3.66-1.84Z"/><path class="cls-2" d="M41.83,386.26a4.43,4.43,0,0,1-1.65,3.52c-1.11.8-2.54.84-3.8,1.26a4.5,4.5,0,0,0-1.46.75c-.07,0-.45.44-.5.22s0-.59-.09-.88c-.22-1.34-1.11-2.42-1.64-3.65a3.9,3.9,0,0,1,.19-3.62A4,4,0,0,1,36,381.77a6,6,0,0,1,1.81.55c.64.26,1.29.45,1.92.74a3.24,3.24,0,0,1,2.08,2.74,3.57,3.57,0,0,1,0,.46C41.81,386.72,41.85,385.61,41.83,386.26Z"/><path class="cls-3" d="M36.33,387a6.62,6.62,0,0,1,1.79.65,1.24,1.24,0,0,1,.19,1.74c-.69.92-2,1.28-3,1.85-.11.07-.57.46-.71.38s-.09-.66-.11-.82c-.1-.74-.28-1.46-.4-2.19a1.8,1.8,0,0,1,.46-1.83c.56-.4,1.23,0,1.78.22Z"/><path class="cls-2" d="M43.16,398.81a4.52,4.52,0,0,1-3.6-.31c-1.14-.7-1.71-2-2.4-3.1A5.05,5.05,0,0,0,36,394.11c-.18-.13-.39-.24-.57-.38s.23-.32.37-.38a10,10,0,0,0,3-2.5,4.15,4.15,0,0,1,3.42-1.39,4.48,4.48,0,0,1,3.25,2,3.31,3.31,0,0,1,.22,1.82c-.06.72,0,1.46-.09,2.18a3.48,3.48,0,0,1-1.88,3.16,3.73,3.73,0,0,1-.56.2Z"/><path class="cls-3" d="M40.72,393.81a7.18,7.18,0,0,1-.07,1.91,1.19,1.19,0,0,1-1.46.75,3.84,3.84,0,0,1-1.65-1.2,18.67,18.67,0,0,0-1.46-1.35c-.08-.07-.39-.25-.23-.37a5.8,5.8,0,0,1,.87-.41c.61-.3,1.18-.65,1.78-1a1.87,1.87,0,0,1,1.81-.18c.65.42.44,1.17.41,1.81C40.71,394,40.73,393.58,40.72,393.81Z"/><path class="cls-4" d="M35.46,394.68a.8.8,0,0,0,.53-1.22.66.66,0,0,0,.17-.45.76.76,0,0,0-.41-.63l-.19-.07a.69.69,0,0,0,0-.51.66.66,0,0,0-.65-.41.91.91,0,0,0-.78-.67.89.89,0,0,0-.86.56,1,1,0,0,0-1.38,1.32.83.83,0,0,0,0,1.59.87.87,0,0,0,1.07,1.13.83.83,0,0,0,1.59,0,.63.63,0,0,0,.71,0A.64.64,0,0,0,35.46,394.68Z"/><path class="cls-5" d="M34.14,392.19a.45.45,0,0,0,.11.43.44.44,0,0,0,.64-.59.44.44,0,0,0-.75.16Z"/><path class="cls-5" d="M33,391.87a.74.74,0,0,0-.44.24.57.57,0,0,0-.13.47.74.74,0,0,0,.63.5.78.78,0,0,0,.5-.05.61.61,0,0,0,.21-.79A.76.76,0,0,0,33,391.87Z"/><path class="cls-5" d="M35.08,393.55a.44.44,0,0,0-.38-.23.32.32,0,0,0-.23.4.43.43,0,0,0,.39.28.28.28,0,0,0,.32-.17A.34.34,0,0,0,35.08,393.55Z"/><path class="cls-5" d="M33.18,393.82a.57.57,0,0,0-.38.43.48.48,0,0,0,.17.42.81.81,0,0,0,.41.21.66.66,0,0,0,.5,0,.53.53,0,0,0,.27-.52.64.64,0,0,0-.36-.48A.8.8,0,0,0,33.18,393.82Z"/><path class="cls-5" d="M32.42,393.38a.25.25,0,0,0-.3.07.24.24,0,0,0,.39.29A.25.25,0,0,0,32.42,393.38Z"/><path class="cls-3" d="M21.64,365.32a4.78,4.78,0,1,1-3.54-4.63A4.83,4.83,0,0,1,21.64,365.32Z"/><path class="cls-2" d="M20.67,371.92a3.17,3.17,0,0,1-2.15-1.56,7.84,7.84,0,0,1-.35-2.82,3.29,3.29,0,0,0-.31-1.24c-.05-.09-.27-.39,0-.39a1.26,1.26,0,0,1,.27,0,6.71,6.71,0,0,0,2.65-.46,3,3,0,0,1,2.68.34,3.2,3.2,0,0,1,1.29,2.26,2.14,2.14,0,0,1-.44,1.23c-.27.38-.51.78-.76,1.18A2.77,2.77,0,0,1,21.43,372a2.82,2.82,0,0,1-.76-.09C20.36,371.84,20.9,372,20.67,371.92Z"/><path class="cls-3" d="M21,368c-.37.63-.9,1.88-1.82,1.15a2.13,2.13,0,0,1-.6-1.16c-.14-.49-.25-1-.43-1.45,0-.08-.21-.42-.06-.44a2.47,2.47,0,0,1,.54.05c.5,0,1,0,1.5.05a1.4,1.4,0,0,1,1.26.54c.26.49-.16.87-.39,1.26Z"/><path class="cls-2" d="M11.76,371a3.14,3.14,0,0,1,.82-2.52,7.36,7.36,0,0,1,2.55-1.19,3.72,3.72,0,0,0,1-.62c.05,0,.33-.39.4-.3a2.62,2.62,0,0,1,.14.63,9.63,9.63,0,0,0,1.33,2.3,2.82,2.82,0,0,1,.28,2.64,3.06,3.06,0,0,1-1.8,1.76,2.34,2.34,0,0,1-1.23-.1l-1.4-.36A2.3,2.3,0,0,1,11.76,371C11.75,370.82,11.77,371.22,11.76,371Z"/><path class="cls-3" d="M15.59,370a3.57,3.57,0,0,1-1.4-.39.9.9,0,0,1,0-1.32,5.89,5.89,0,0,1,1.29-1L16,367c.07-.06.42-.41.48-.27a7.55,7.55,0,0,1,.27,1.09l.21.65a1.81,1.81,0,0,1,.05,1.44c-.33.58-.93.3-1.43.17Z"/><path class="cls-2" d="M9.89,362.22a3.15,3.15,0,0,1,2.65,0,6.81,6.81,0,0,1,1.86,2,3.62,3.62,0,0,0,1,.85c.07,0,.4.15.41.25s-.41.29-.48.32a7.26,7.26,0,0,0-1.72,1.86,3,3,0,0,1-2.32,1.27,3.2,3.2,0,0,1-2.43-1.11,2.14,2.14,0,0,1-.33-1.21c0-.5-.07-1-.09-1.5a2.66,2.66,0,0,1,.9-2.42,2.39,2.39,0,0,1,.57-.3C10.2,362.1,9.66,362.3,9.89,362.22Z"/><path class="cls-3" d="M12,365.57c0-.51-.27-1.05,0-1.55a1,1,0,0,1,1.39-.27c.71.37,1.26,1,1.94,1.42.11.07.28.16.11.27s-.47.26-.7.41-.52.36-.77.54a1.73,1.73,0,0,1-1.42.47c-.59-.19-.5-.8-.52-1.29C12,365.43,12,365.65,12,365.57Z"/><path class="cls-2" d="M17.65,357.73a3.17,3.17,0,0,1,.8,2.65A9.63,9.63,0,0,1,17,362.85a3.29,3.29,0,0,0-.42,1.09c0,.05,0,.44-.16.35a6,6,0,0,1-.46-.42,12.1,12.1,0,0,0-2.6-1.15,2.75,2.75,0,0,1-1.62-2,2.81,2.81,0,0,1,.66-2.59,3.79,3.79,0,0,1,1.22-.57c.46-.17.89-.38,1.36-.52a2.33,2.33,0,0,1,2.41.45l.22.24C17.85,358,17.34,357.38,17.65,357.73Z"/><path class="cls-3" d="M15.11,360.76a4.76,4.76,0,0,1,1.26-.51.87.87,0,0,1,.92.83,6.74,6.74,0,0,1-.7,2.4c0,.1-.08.52-.2.54s-.36-.3-.45-.38c-.4-.34-.84-.64-1.25-1a1.27,1.27,0,0,1-.62-1.18c.1-.48.64-.6,1-.73Z"/><path class="cls-2" d="M24.32,363.73a3.22,3.22,0,0,1-2.05,1.54,6.1,6.1,0,0,1-2.75-.49,3.31,3.31,0,0,0-1.21-.13c-.17,0-.33.05-.49.06s0-.27,0-.37a7.31,7.31,0,0,0,.39-2.75,2.91,2.91,0,0,1,1.15-2.35,3.14,3.14,0,0,1,2.65-.5,2.35,2.35,0,0,1,1,.86c.31.41.68.78,1,1.2a2.49,2.49,0,0,1,.51,2.56c-.06.13-.13.25-.2.37C24,364.28,24.44,363.53,24.32,363.73Z"/><path class="cls-3" d="M20.65,362.25c.28.36.69.6.87,1a.86.86,0,0,1-.42,1.09,2.67,2.67,0,0,1-1.43.15,11.22,11.22,0,0,0-1.42,0c-.08,0-.32.06-.3-.08a3.52,3.52,0,0,1,.27-.63c.18-.45.31-.91.48-1.36s.4-.87.87-.95.79.4,1.08.76Z"/><path class="cls-4" d="M18.28,365.21a.57.57,0,0,0,0-.66.61.61,0,0,0-.33-.24.44.44,0,0,0-.12-.32.55.55,0,0,0-.52-.14l-.13.06a.47.47,0,0,0-.24-.28.49.49,0,0,0-.54.1.63.63,0,0,0-.73,0,.62.62,0,0,0-.18.7.7.7,0,0,0-.11,1.35.6.6,0,0,0,.05.71.61.61,0,0,0,.69.16.62.62,0,0,0,.52.38.62.62,0,0,0,.58-.3.59.59,0,0,0,.71,0,.61.61,0,0,0,.14-.7.43.43,0,0,0,.18-.8Z"/><path class="cls-5" d="M16.41,364.52a.29.29,0,0,0,.26.17.31.31,0,0,0,.32-.28.32.32,0,0,0-.27-.33.33.33,0,0,0-.29.13A.31.31,0,0,0,16.41,364.52Z"/><path class="cls-5" d="M15.64,364.91a.51.51,0,0,0-.13.33.41.41,0,0,0,.16.31.54.54,0,0,0,.57,0,.53.53,0,0,0,.24-.27.44.44,0,0,0-.26-.52A.53.53,0,0,0,15.64,364.91Z"/><path class="cls-5" d="M17.55,364.79a.33.33,0,0,0-.31.06.23.23,0,0,0,.06.32.32.32,0,0,0,.34,0,.22.22,0,0,0,.09-.25A.24.24,0,0,0,17.55,364.79Z"/><path class="cls-5" d="M16.67,365.84a.4.4,0,0,0,0,.41.34.34,0,0,0,.28.14.59.59,0,0,0,.32-.09.49.49,0,0,0,.25-.26.38.38,0,0,0-.11-.4.43.43,0,0,0-.42-.08A.57.57,0,0,0,16.67,365.84Z"/><path class="cls-5" d="M16.06,366a.19.19,0,0,0-.12.18.17.17,0,0,0,.15.16.18.18,0,0,0,.19-.19A.19.19,0,0,0,16.06,366Z"/><path class="cls-3" d="M53.24,363a5.52,5.52,0,1,1-4.09-5.34A5.58,5.58,0,0,1,53.24,363Z"/><path class="cls-6" d="M52.12,370.57a3.6,3.6,0,0,1-2.48-1.79,9,9,0,0,1-.4-3.27,4,4,0,0,0-.37-1.43c0-.1-.3-.45,0-.44a1.65,1.65,0,0,1,.32,0,7.66,7.66,0,0,0,3.06-.53,3.48,3.48,0,0,1,3.09.39,3.77,3.77,0,0,1,1.5,2.62,2.43,2.43,0,0,1-.51,1.41c-.31.44-.59.91-.88,1.37a3.2,3.2,0,0,1-2.4,1.74,3.32,3.32,0,0,1-.88-.11C51.77,370.49,52.39,370.64,52.12,370.57Z"/><path class="cls-3" d="M52.44,366c-.42.73-1,2.17-2.1,1.33a2.48,2.48,0,0,1-.69-1.34c-.16-.56-.29-1.13-.49-1.67,0-.09-.25-.49-.07-.51a2.66,2.66,0,0,1,.62.06c.57.05,1.15,0,1.73.06s1.18.1,1.45.62-.18,1-.45,1.45C52.36,366.16,52.49,365.94,52.44,366Z"/><path class="cls-6" d="M41.83,369.49a3.64,3.64,0,0,1,.94-2.91,8.86,8.86,0,0,1,2.95-1.38,3.88,3.88,0,0,0,1.19-.71c.06-.06.38-.46.46-.35a2.58,2.58,0,0,1,.16.73,11.24,11.24,0,0,0,1.54,2.66,3.28,3.28,0,0,1,.33,3.05,3.58,3.58,0,0,1-2.08,2,2.68,2.68,0,0,1-1.43-.12l-1.61-.41A3.14,3.14,0,0,1,42,370.46a2.91,2.91,0,0,1-.21-1C41.82,369.31,41.85,369.77,41.83,369.49Z"/><path class="cls-3" d="M46.26,368.39a4.08,4.08,0,0,1-1.62-.45,1,1,0,0,1-.07-1.52,6.6,6.6,0,0,1,1.5-1.12c.22-.15.45-.3.67-.47s.49-.47.56-.31a10.08,10.08,0,0,1,.31,1.26c.07.25.15.5.23.75a2.13,2.13,0,0,1,.07,1.66c-.39.67-1.07.35-1.65.2Z"/><path class="cls-6" d="M39.67,359.37a3.67,3.67,0,0,1,3.06,0,7.88,7.88,0,0,1,2.15,2.3,4.08,4.08,0,0,0,1.13,1c.09,0,.47.17.48.29s-.48.33-.56.38a8.12,8.12,0,0,0-2,2.14,3.42,3.42,0,0,1-2.68,1.46,3.67,3.67,0,0,1-2.8-1.27,2.5,2.5,0,0,1-.38-1.41c0-.58-.08-1.15-.11-1.73a3.06,3.06,0,0,1,1-2.79,3,3,0,0,1,.66-.35Z"/><path class="cls-3" d="M42.09,363.24c0-.59-.3-1.21,0-1.78a1.12,1.12,0,0,1,1.6-.33c.82.44,1.46,1.16,2.25,1.65.12.08.32.19.12.31s-.54.31-.8.48-.6.41-.9.61a2,2,0,0,1-1.64.55c-.67-.22-.57-.92-.6-1.49C42.08,363.08,42.1,363.34,42.09,363.24Z"/><path class="cls-6" d="M48.63,354.19a3.63,3.63,0,0,1,.93,3.05,11.17,11.17,0,0,1-1.64,2.86,4.17,4.17,0,0,0-.48,1.26c0,.06,0,.51-.18.41s-.35-.34-.53-.49a13.52,13.52,0,0,0-3-1.33,3.18,3.18,0,0,1-1.87-2.31,3.26,3.26,0,0,1,.76-3A4.79,4.79,0,0,1,44,354c.53-.2,1-.44,1.57-.61a2.69,2.69,0,0,1,2.78.53,3.45,3.45,0,0,1,.26.28Z"/><path class="cls-3" d="M45.7,357.69a5.67,5.67,0,0,1,1.45-.59,1,1,0,0,1,1.07,1c.09.93-.54,1.89-.81,2.77,0,.11-.1.59-.23.62s-.42-.35-.52-.44c-.46-.4-1-.73-1.44-1.12a1.46,1.46,0,0,1-.73-1.37c.13-.55.75-.68,1.21-.83Z"/><path class="cls-6" d="M56.33,361.12A3.75,3.75,0,0,1,54,362.9a7.15,7.15,0,0,1-3.18-.57,4.13,4.13,0,0,0-1.4-.15c-.19,0-.37.06-.56.07s0-.32,0-.43a8.08,8.08,0,0,0,.45-3.17,3.43,3.43,0,0,1,1.32-2.73,3.7,3.7,0,0,1,3.07-.56,2.65,2.65,0,0,1,1.14,1c.36.48.79.91,1.15,1.39a2.86,2.86,0,0,1,.58,3,3,3,0,0,1-.23.43C55.92,361.76,56.47,360.88,56.33,361.12Z"/><path class="cls-3" d="M52.1,359.4c.32.42.79.7,1,1.2a1,1,0,0,1-.48,1.27A3.22,3.22,0,0,1,51,362a14.78,14.78,0,0,0-1.63,0c-.09,0-.38.06-.35-.1a4.56,4.56,0,0,1,.31-.73c.2-.51.36-1,.56-1.56s.46-1,1-1.1.91.47,1.25.87C52.19,359.53,52,359.26,52.1,359.4Z"/><path class="cls-4" d="M49.36,362.82a.66.66,0,0,0,0-.76.63.63,0,0,0-.37-.27.53.53,0,0,0-.15-.37.61.61,0,0,0-.6-.16.51.51,0,0,0-.15.07.55.55,0,0,0-.27-.33.59.59,0,0,0-.63.11.7.7,0,0,0-1,.84.81.81,0,0,0-.12,1.56.68.68,0,0,0,.85,1,.71.71,0,0,0,1.27.1.67.67,0,0,0,1-.86.5.5,0,0,0,.44-.39A.51.51,0,0,0,49.36,362.82Z"/><path class="cls-5" d="M47.19,362a.39.39,0,0,0,.31.2.36.36,0,0,0,.06-.71.35.35,0,0,0-.33.15A.36.36,0,0,0,47.19,362Z"/><path class="cls-5" d="M46.31,362.48a.53.53,0,0,0-.14.38.43.43,0,0,0,.18.36.61.61,0,0,0,.65,0,.63.63,0,0,0,.28-.3.51.51,0,0,0-.3-.61A.61.61,0,0,0,46.31,362.48Z"/><path class="cls-5" d="M48.51,362.34a.39.39,0,0,0-.36.07.26.26,0,0,0,.08.37.37.37,0,0,0,.4,0c.08-.06.15-.19.09-.28A.23.23,0,0,0,48.51,362.34Z"/><path class="cls-5" d="M47.51,363.55a.44.44,0,0,0,0,.47.39.39,0,0,0,.33.17.82.82,0,0,0,.37-.1.58.58,0,0,0,.28-.3.45.45,0,0,0-.13-.47.51.51,0,0,0-.48-.09A.59.59,0,0,0,47.51,363.55Z"/><path class="cls-5" d="M46.8,363.7a.2.2,0,0,0-.15.2.21.21,0,0,0,.18.18.2.2,0,0,0,.22-.21A.21.21,0,0,0,46.8,363.7Z"/><path class="cls-2" d="M81.54,295.67l-.69.17a1.16,1.16,0,0,1,0-.18l-.43.1a14.82,14.82,0,0,0-.49-1.88l-.73.24a13.73,13.73,0,0,1,.5,2.06l-.33.23,0,.1,0,0a10.76,10.76,0,0,1,.56,2.2,14.07,14.07,0,0,1-12.17,13.9l.11.76a15,15,0,0,0,10.62-6.92,13.83,13.83,0,0,0,1.07-2.1,17.63,17.63,0,0,1-1.5,3.81c-1.94,3.63-4.88,6.63-7.73,9.53l.55.53a52.13,52.13,0,0,0,6.8-7.92,53.37,53.37,0,0,1-6.26,9.15L72,320a58.58,58.58,0,0,0,5.42-7.6,72.81,72.81,0,0,1-5.68,8.75l.63.45A63.36,63.36,0,0,0,78.93,311a23.15,23.15,0,0,0,2.22-9.54,18.92,18.92,0,0,0-.06-4.18,31.45,31.45,0,0,1-.63,12.92,90.11,90.11,0,0,1-4.88,13.73l.71.3a92,92,0,0,0,4.92-13.85A31.15,31.15,0,0,0,81.54,295.67Z"/><path class="cls-2" d="M37.75,254.79a28.25,28.25,0,0,0,1.94,17.89C45.23,284.59,60,291.37,72.6,287.84s21.73-16.94,20.31-30-13.17-24.2-26.29-24.93S40.6,242,37.75,254.79Z"/><path class="cls-3" d="M81.6,248.75c-3.34-7.22-9.57-13.47-17.86-15.82a27.26,27.26,0,0,0-9.13,2.2C72.55,241.5,80,261.84,80.38,280.32c.84.29,1.69.55,2.54.81C86.42,270.59,86.59,259.19,81.6,248.75Z"/><path class="cls-3" d="M80.37,284.16c0-1.26,0-2.55,0-3.84-18-6.13-34.29-17.95-35.73-38.23a29.19,29.19,0,0,0-2,2.32c-2.3,22.6,16.71,36.73,37.42,40Z"/><path class="cls-6" d="M57.29,261a32.44,32.44,0,0,1,15.64-10.27,27,27,0,0,1,12-1.1A18.69,18.69,0,0,1,91.55,252c-.06-.18-.13-.35-.2-.53A19.25,19.25,0,0,0,85,249.29a27.08,27.08,0,0,0-12.14,1.11A32.8,32.8,0,0,0,57,260.78a26,26,0,0,0-5.9,17.84,16.3,16.3,0,0,0,2.14,7.32l.59.27a15.7,15.7,0,0,1-2.37-7.62A25.56,25.56,0,0,1,57.29,261Z"/><path class="cls-6" d="M39.16,259.67a28,28,0,0,1,7.49-12.51,39.22,39.22,0,0,1,12.28-8c4.17-1.78,11.49-4.11,19.16-2.83l-.94-.5c-7.39-1-14.33,1.28-18.36,3a39.63,39.63,0,0,0-12.4,8.11,28.27,28.27,0,0,0-7.57,12.66,28.6,28.6,0,0,0-.91,8c.12.5.26,1,.42,1.51A29.6,29.6,0,0,1,39.16,259.67Z"/><path class="cls-6" d="M49.89,266.72c2.37-7.92,10-15.57,18.51-18.6,8-2.85,15.85-2.61,21.7.52l-.3-.55c-5.89-3-13.64-3.12-21.52-.31C59.65,250.85,52,258.6,49.54,266.62A25.53,25.53,0,0,0,51,284.77l.55.31A25.11,25.11,0,0,1,49.89,266.72Z"/><path class="cls-6" d="M45.86,243.56a36.68,36.68,0,0,1,27.38-9.38c-.49-.16-1-.31-1.48-.44a37,37,0,0,0-26.14,9.56,35.54,35.54,0,0,0-7.42,9.78q-.26.84-.45,1.71a.11.11,0,0,0,0,.05A35.64,35.64,0,0,1,45.86,243.56Z"/><path class="cls-2" d="M82.92,281.13c-.16.49-.33,1-.51,1.47.47-.38.93-.78,1.37-1.19Z"/><path class="cls-2" d="M80.38,280.32c0,1.29,0,2.58,0,3.84.7-.48,1.38-1,2-1.56.18-.48.35-1,.51-1.47C82.07,280.87,81.22,280.61,80.38,280.32Z"/><path class="cls-6" d="M91.94,260.27a5.32,5.32,0,0,0-.37-.66s0,0,0-.06v0a9.23,9.23,0,0,0-1.64-1.78,20.39,20.39,0,0,0-18.16-3.93,26.6,26.6,0,0,0-15.21,11.2,19.58,19.58,0,0,0-3.71,11.19c.12,4,2.21,8.07,5.8,9.81,2.71,1.32,5.88,1.2,8.87.79,6.86-1,13.71-3.47,18.63-8.34a20.12,20.12,0,0,0,6.08-15.66A3.85,3.85,0,0,0,91.94,260.27Z"/><path class="cls-7" d="M62.49,282.29a24.1,24.1,0,0,0,5.15-.55l-.11-.47a25.61,25.61,0,0,1-21.9-5.76,27.13,27.13,0,0,1-.69-5.81,28,28,0,0,1,2.68-12.09A42.6,42.6,0,0,0,63.8,275.88l.25-.4A42.22,42.22,0,0,1,48,257.27c0-.08-.06-.15-.1-.22A27.59,27.59,0,0,1,52,251a33.15,33.15,0,0,1,15.62-9.44,36.52,36.52,0,0,1,4.14,4.11,37.24,37.24,0,0,1,8.73,20.78l.47-.05a37.6,37.6,0,0,0-8.84-21,36.74,36.74,0,0,0-3.94-4l.73-.2a28.93,28.93,0,0,1,13.68-.51l.28.07A27.63,27.63,0,0,1,86,244.91a28.45,28.45,0,0,1,2.9,23.25l.45.15a28.91,28.91,0,0,0-2.94-23.65A28.37,28.37,0,0,0,83.7,241c.36.11.71.22,1,.35-.25-.26-.52-.52-.78-.76l-.88-.25a29.31,29.31,0,0,0-3.23-3,28.51,28.51,0,0,0-4.5-2.39,28.67,28.67,0,0,1,6.91,5.18,29.61,29.61,0,0,0-13.51.59l-1.05.29a37.9,37.9,0,0,0-11.43-6.57l-.7.26a37.36,37.36,0,0,1,11.57,6.47,33.38,33.38,0,0,0-15.53,9.48,27.35,27.35,0,0,0-4,5.8,42.19,42.19,0,0,1-3.32-14.06l-.44.49A42.37,42.37,0,0,0,47.36,257a28.41,28.41,0,0,0-2.9,12.67A27.29,27.29,0,0,0,45,275c-.49-.47-1-.95-1.42-1.46a25.5,25.5,0,0,1-6.14-17.18,27,27,0,0,0-.34,3.23,25.64,25.64,0,0,0,6.13,14.27,24,24,0,0,0,2,2,29,29,0,0,0,2.53,6.8l.94.7a28.47,28.47,0,0,1-2.85-7A26.42,26.42,0,0,0,62.49,282.29Z"/><path class="cls-7" d="M90.06,268.5c-.49-.73-2.31-3.26-2.74-3.9A9.37,9.37,0,0,0,80.89,261c-6.12-1-12.38,1.62-17.18,5.54a17,17,0,0,0-5.33,6.71,8.62,8.62,0,0,0,.8,8.24c.44.59,2.19,3.18,2.74,3.9,1.68,2.2,4.53,3.17,7.27,3.47a21.27,21.27,0,0,0,20-9.82C91.15,275.87,92.14,271.6,90.06,268.5Z"/><path class="cls-8" d="M80.28,260.93a18.16,18.16,0,0,0-7,.57c5.61,6.31,9.43,14,12.33,21.9a19.91,19.91,0,0,0,3.62-4.35,15.11,15.11,0,0,0,.77-1.43A99.35,99.35,0,0,0,80.28,260.93Z"/><path class="cls-8" d="M83.29,265.44c-5.85-.94-11.83,1.55-16.42,5.3a16.27,16.27,0,0,0-5.09,6.41,8.26,8.26,0,0,0,.76,7.88c1.6,2.09,4.32,3,6.94,3.31A20.33,20.33,0,0,0,88.61,279c1.86-3,2.81-7.12.82-10.08A8.94,8.94,0,0,0,83.29,265.44Z"/><path class="cls-9" d="M82.52,266.62c-5.25-.85-10.61,1.38-14.72,4.75a14.56,14.56,0,0,0-4.57,5.74,7.4,7.4,0,0,0,.68,7.07c1.43,1.88,3.88,2.71,6.23,3a18.21,18.21,0,0,0,17.15-8.42c1.67-2.72,2.52-6.38.74-9A8,8,0,0,0,82.52,266.62Z"/><path class="cls-10" d="M64.14,272.45a17.92,17.92,0,0,1,1.41-1.6,25.33,25.33,0,0,1-2.67-3c-.63.63-1.24,1.27-1.81,1.95Z"/><path class="cls-10" d="M60.29,270.81c-.16.22-.32.43-.46.65.82.69,1.56,1.48,2.41,2.14.23.19.48.36.72.53.13-.22.28-.43.43-.64Z"/><path class="cls-10" d="M60.13,276.2c.4.4.8.78,1.2,1.17a20.51,20.51,0,0,1,1-2.13l-.51-.37c-.89-.7-1.72-1.57-2.61-2.31a9.63,9.63,0,0,0-.76,2.06A16.75,16.75,0,0,1,60.13,276.2Z"/><path class="cls-10" d="M60.87,278.71l-.86-.83c-.57-.56-1.15-1.26-1.79-1.83a7.09,7.09,0,0,0,0,.8c.13,2.24,1.33,4.26,2.49,6.18a6.78,6.78,0,0,1,.16-4.31Z"/><path class="cls-8" d="M89.08,275.32l-10-1.29a3.31,3.31,0,0,0-.06-3.15,3.46,3.46,0,0,0-2.38-1.33,7.33,7.33,0,0,0-4.55.86,5.27,5.27,0,0,1-1.38-1.74l-.43.21a5.86,5.86,0,0,0,1.36,1.77,10.79,10.79,0,0,0-1.37,1,6.37,6.37,0,0,0-2,2.49,3.21,3.21,0,0,0,.29,3.05,3.74,3.74,0,0,0,2.55,1.27c-1.19,3-2.49,6-3.89,8.84l-.37.76,1-.63-.08-.14c1.38-2.87,2.67-5.82,3.85-8.79a7.87,7.87,0,0,0,7.06-3.66l.17-.31L89,275.8Z"/><path class="cls-8" d="M77.44,321l-.69-.33a45.64,45.64,0,0,0-4.33-45.25L73,275A46.44,46.44,0,0,1,77.44,321Z"/><path class="cls-8" d="M52.36,93.36H51.6c-1.76,24.25-3.52,48.83-2.67,73.3,1.26,36.68,8,67.54,20.13,94.36l.7-.32C57.62,234,51.06,203.21,49.7,166.63,48.78,142.17,50.3,117.55,52.36,93.36Z"/><path class="cls-5" d="M69.34,322.16l-.48-.6A28.76,28.76,0,0,0,79,294.18l.76-.15A29.54,29.54,0,0,1,69.34,322.16Z"/><path class="cls-5" d="M75.63,321.88l-.64-.42a34.49,34.49,0,0,0,4.3-27.16l.74-.2A35.25,35.25,0,0,1,75.63,321.88Z"/><path class="cls-5" d="M73.11,323.51l-.59-.49A31.71,31.71,0,0,0,79,295.24l.75-.19A32.52,32.52,0,0,1,73.11,323.51Z"/><path class="cls-5" d="M73,309.33a5.55,5.55,0,0,1-5.06-8l.69.34a4.8,4.8,0,0,0,5.75,6.71c2.56-.81,4-3.62,4.42-6a28.47,28.47,0,0,0,.39-4.42c0-1.23.1-2.5.27-3.75l.77.11a34.64,34.64,0,0,0-.27,3.67,30.38,30.38,0,0,1-.4,4.54c-.5,2.58-2.06,5.66-5,6.57A5.16,5.16,0,0,1,73,309.33Z"/><path class="cls-5" d="M68.37,316.81l-.32-.7A20,20,0,0,0,79.51,294l.75-.14a20.8,20.8,0,0,1-11.89,22.92Z"/><path class="cls-5" d="M80.84,317.65l-.52-.57A9.68,9.68,0,0,0,83.11,310a30.58,30.58,0,0,0-1.25-7.69l-.07-.26a27.18,27.18,0,0,1-1.16-8.19l.76,0a26.89,26.89,0,0,0,1.15,8l.06.27A30.76,30.76,0,0,1,83.88,310,10.5,10.5,0,0,1,80.84,317.65Z"/><path class="cls-7" d="M79.22,296.91c.76-1.3,1.13-1.35,2.54-.81-.36-.92.3-2.29-.64-2.57a2.29,2.29,0,0,0-2.59.88A1.79,1.79,0,0,0,79.22,296.91Z"/><path class="cls-2" d="M1.85,267.59A29.23,29.23,0,0,1,17,232.8l.33.69A28.43,28.43,0,0,0,2.59,267.36Z"/><path class="cls-2" d="M3.1,274.79c-3.37-5-3.3-11.12-2.65-15.43A37.94,37.94,0,0,1,17,233.65l.42.65a37.15,37.15,0,0,0-16.2,25.18c-.63,4.17-.71,10.13,2.53,14.87Z"/><path class="cls-2" d="M6.08,273.59a22.27,22.27,0,0,1-3.33-12.94,40.45,40.45,0,0,1,2.87-13.09c2.43-6.49,5.32-10.77,9.1-13.46l.45.62c-3.65,2.6-6.46,6.76-8.83,13.11a39.66,39.66,0,0,0-2.82,12.84,21.74,21.74,0,0,0,3.2,12.49Z"/><path class="cls-2" d="M12.07,269a31.3,31.3,0,0,1,5.42-36.19l.55.54a30.54,30.54,0,0,0-5.29,35.3Z"/><path class="cls-2" d="M12.62,264.88A40.13,40.13,0,0,1,15,234.7l.69.34a39.42,39.42,0,0,0-2.35,29.61Z"/><path class="cls-2" d="M13.2,260.11a50.13,50.13,0,0,1,1.69-24.61l.73.24A49.32,49.32,0,0,0,14,260Z"/><path class="cls-2" d="M14.63,266.7l-.64-.42a13.74,13.74,0,0,0,1.87-8.1,44.19,44.19,0,0,0-1.15-7.24l-.27-1.26a29.77,29.77,0,0,1-.83-8.73,11.87,11.87,0,0,1,3.7-7.95l.51.58A11.06,11.06,0,0,0,14.38,241a28.68,28.68,0,0,0,.82,8.5l.27,1.26a45.12,45.12,0,0,1,1.15,7.36A14.38,14.38,0,0,1,14.63,266.7Z"/><path class="cls-8" d="M63.29,130.44a446.12,446.12,0,0,1-14.89,54l.73.25a444.2,444.2,0,0,0,14.94-54.23Z"/><path class="cls-2" d="M68,189.83a28.25,28.25,0,0,1-2,17.89c-5.54,11.91-20.25,18.69-32.9,15.16s-21.74-16.94-20.32-30S26.05,168.68,39.16,168,65.19,177,68,189.83Z"/><path class="cls-3" d="M24.19,183.79C27.52,176.57,33.76,170.32,42,168a27.25,27.25,0,0,1,9.14,2.2c-17.94,6.37-25.34,26.71-25.77,45.19-.85.29-1.7.55-2.55.81C19.37,205.63,19.2,194.23,24.19,183.79Z"/><path class="cls-3" d="M25.42,219.21c0-1.27-.05-2.56,0-3.85,18-6.13,34.29-18,35.72-38.23a29.32,29.32,0,0,1,2,2.32c2.3,22.6-16.71,36.73-37.43,40Z"/><path class="cls-6" d="M48.5,196.05a32.38,32.38,0,0,0-15.65-10.26,26.81,26.81,0,0,0-12-1.11A18.75,18.75,0,0,0,14.23,187c.07-.18.14-.35.2-.53a19.23,19.23,0,0,1,6.39-2.16A27.22,27.22,0,0,1,33,185.44a32.85,32.85,0,0,1,15.82,10.38,25.94,25.94,0,0,1,5.89,17.84A16.42,16.42,0,0,1,52.54,221l-.6.27a15.7,15.7,0,0,0,2.38-7.62A25.66,25.66,0,0,0,48.5,196.05Z"/><path class="cls-6" d="M66.62,194.71a27.9,27.9,0,0,0-7.48-12.5,39.11,39.11,0,0,0-12.29-8c-4.16-1.78-11.49-4.11-19.15-2.83.31-.17.62-.34.94-.5,7.38-.94,14.33,1.28,18.35,3A39.69,39.69,0,0,1,59.39,182,28.36,28.36,0,0,1,67,194.62a28.85,28.85,0,0,1,.9,8c-.12.5-.26,1-.41,1.51A29.63,29.63,0,0,0,66.62,194.71Z"/><path class="cls-6" d="M55.9,201.76c-2.38-7.92-10-15.57-18.52-18.6-8-2.85-15.84-2.61-21.69.53.09-.19.19-.37.29-.56,5.89-2.95,13.65-3.11,21.52-.31,8.63,3.07,16.34,10.82,18.74,18.84a25.47,25.47,0,0,1-1.48,18.15l-.55.31A25.11,25.11,0,0,0,55.9,201.76Z"/><path class="cls-6" d="M59.93,178.6a36.69,36.69,0,0,0-27.39-9.38c.5-.16,1-.31,1.49-.44a37,37,0,0,1,26.14,9.56,35.7,35.7,0,0,1,7.41,9.78c.17.56.33,1.13.46,1.71,0,0,0,0,0,.06A35.89,35.89,0,0,0,59.93,178.6Z"/><path class="cls-2" d="M22.86,216.17l.51,1.48c-.46-.39-.93-.78-1.37-1.2Z"/><path class="cls-2" d="M25.41,215.36c0,1.29,0,2.58,0,3.85-.71-.49-1.39-1-2.05-1.56l-.51-1.48C23.71,215.91,24.56,215.65,25.41,215.36Z"/><path class="cls-6" d="M13.84,195.31a5.38,5.38,0,0,1,.38-.66.14.14,0,0,1,0-.06v0a8.87,8.87,0,0,1,1.63-1.78A20.4,20.4,0,0,1,34,188.92a26.74,26.74,0,0,1,15.22,11.2,19.49,19.49,0,0,1,3.7,11.19c-.11,4-2.2,8.07-5.79,9.81-2.71,1.32-5.89,1.2-8.87.79-6.86-.95-13.72-3.47-18.63-8.34a20.08,20.08,0,0,1-6.08-15.66A3.85,3.85,0,0,1,13.84,195.31Z"/><path class="cls-7" d="M43.3,217.33a24.1,24.1,0,0,1-5.15-.55l.1-.47a25.59,25.59,0,0,0,21.9-5.76,27.14,27.14,0,0,0,.7-5.81,27.82,27.82,0,0,0-2.69-12.09A42.47,42.47,0,0,1,42,210.92l-.25-.4A42.13,42.13,0,0,0,57.8,192.31l.09-.22A27.47,27.47,0,0,0,53.81,186a33.13,33.13,0,0,0-15.62-9.44,36.43,36.43,0,0,0-4.13,4.11,37.27,37.27,0,0,0-8.73,20.78l-.48-.05a37.71,37.71,0,0,1,8.85-21,36.74,36.74,0,0,1,3.94-4l-.73-.2a29,29,0,0,0-13.69-.51l-.27.07A27.27,27.27,0,0,0,19.78,180a28.38,28.38,0,0,0-2.89,23.24l-.46.15a28.88,28.88,0,0,1,2.95-23.65A28.37,28.37,0,0,1,22.09,176l-1.06.35.79-.76.87-.25a29.13,29.13,0,0,1,3.23-3,29,29,0,0,1,4.5-2.4,28.88,28.88,0,0,0-6.9,5.18,29.57,29.57,0,0,1,13.5.59l1.06.29a38.11,38.11,0,0,1,11.43-6.57l.7.26a37.36,37.36,0,0,0-11.57,6.47,33.52,33.52,0,0,1,15.53,9.48,28.38,28.38,0,0,1,4,5.8,42.18,42.18,0,0,0,3.31-14.06l.45.49a42.62,42.62,0,0,1-3.48,14.12,28.42,28.42,0,0,1,2.91,12.67,28.11,28.11,0,0,1-.56,5.25c.49-.47,1-1,1.41-1.45a25.55,25.55,0,0,0,6.15-17.19,29.21,29.21,0,0,1,.33,3.23,24.58,24.58,0,0,1-8.07,16.23,29,29,0,0,1-2.54,6.8l-.94.7a28.47,28.47,0,0,0,2.85-7A26.28,26.28,0,0,1,43.3,217.33Z"/><path class="cls-7" d="M15.72,203.54c.49-.73,2.32-3.25,2.75-3.9a9.32,9.32,0,0,1,6.43-3.59c6.12-1,12.38,1.62,17.18,5.55a16.93,16.93,0,0,1,5.32,6.7,8.61,8.61,0,0,1-.79,8.24c-.45.59-2.2,3.19-2.75,3.91-1.67,2.19-4.52,3.16-7.26,3.46a21.28,21.28,0,0,1-20-9.82C14.64,210.91,13.65,206.64,15.72,203.54Z"/><path class="cls-8" d="M25.5,196a18.15,18.15,0,0,1,7,.57c-5.61,6.31-9.42,14-12.32,21.9a20,20,0,0,1-3.63-4.35c-.27-.46-.53-.94-.76-1.43A98.62,98.62,0,0,1,25.5,196Z"/><path class="cls-8" d="M22.5,200.48c5.85-.94,11.83,1.55,16.42,5.3A16.36,16.36,0,0,1,44,212.19a8.26,8.26,0,0,1-.76,7.88c-1.6,2.09-4.32,3-7,3.31A20.32,20.32,0,0,1,17.18,214c-1.86-3-2.81-7.12-.83-10.08A9,9,0,0,1,22.5,200.48Z"/><path class="cls-9" d="M23.26,201.66c5.25-.85,10.62,1.38,14.73,4.75a14.61,14.61,0,0,1,4.57,5.75,7.38,7.38,0,0,1-.69,7.06c-1.43,1.88-3.87,2.72-6.22,3a18.24,18.24,0,0,1-17.16-8.42c-1.66-2.72-2.51-6.38-.73-9A8,8,0,0,1,23.26,201.66Z"/><path class="cls-10" d="M41.65,207.49a16.57,16.57,0,0,0-1.42-1.6,25.14,25.14,0,0,0,2.67-3,25.63,25.63,0,0,1,1.82,1.94Z"/><path class="cls-10" d="M45.5,205.85c.15.22.31.43.46.66-.83.68-1.57,1.48-2.41,2.13-.24.19-.48.36-.72.53-.14-.21-.28-.43-.43-.64Z"/><path class="cls-10" d="M45.66,211.24c-.4.4-.81.78-1.21,1.17a19.37,19.37,0,0,0-1-2.13c.16-.12.34-.24.5-.37.9-.7,1.72-1.57,2.62-2.3a9.9,9.9,0,0,1,.76,2A16.75,16.75,0,0,0,45.66,211.24Z"/><path class="cls-10" d="M44.92,213.75l.85-.83c.57-.56,1.15-1.26,1.8-1.83a7.12,7.12,0,0,1,0,.8c-.13,2.24-1.32,4.26-2.48,6.18a6.85,6.85,0,0,0-.16-4.31Z"/><path class="cls-8" d="M16.71,210.37l10-1.3a3.34,3.34,0,0,1,.07-3.15,3.44,3.44,0,0,1,2.38-1.33,7.41,7.41,0,0,1,4.55.86,5.54,5.54,0,0,0,1.38-1.74l.43.21a5.74,5.74,0,0,1-1.36,1.77,12.19,12.19,0,0,1,1.36.95,6.31,6.31,0,0,1,2,2.49,3.18,3.18,0,0,1-.3,3.05,3.72,3.72,0,0,1-2.54,1.27c1.19,3,2.49,6,3.89,8.84l.36.76-1-.63.09-.14c-1.38-2.87-2.67-5.82-3.85-8.79a7.9,7.9,0,0,1-7.07-3.66l-.16-.3-10.14,1.31Z"/><path class="cls-8" d="M6.71,274.85a35,35,0,0,1,3.59-34.6,68,68,0,0,1,7.88-8.54c2-2,4.1-4,5.95-6.13,3-3.55,7.86-10.61,6-18.06l.74-.19c1.93,7.79-3.05,15.09-6.18,18.75-1.87,2.18-4,4.21-6,6.18a67.86,67.86,0,0,0-7.79,8.45,34.2,34.2,0,0,0-3.5,33.82Z"/><path class="cls-5" d="M5.73,265.08a15.62,15.62,0,0,1-3.05-20.85c2.29-3.39,5.76-5.68,9.12-7.89a51.27,51.27,0,0,0,5.91-4.3l.51.57a50.23,50.23,0,0,1-6,4.37c-3.44,2.27-6.7,4.42-8.91,7.68a14.86,14.86,0,0,0,2.91,19.83Z"/><path class="cls-5" d="M14.1,267.69A24.42,24.42,0,0,1,14,237.51c.26-.34.54-.67.81-1a11.6,11.6,0,0,0,2.64-4.32l.75.19A12.46,12.46,0,0,1,15.45,237c-.28.33-.55.66-.81,1a23.64,23.64,0,0,0,.07,29.22Z"/><path class="cls-5" d="M12.81,276.11l-.76-.08c.44-4.26-1-8.5-2.35-12.59-1.3-3.87-2.64-7.87-2.48-12A20.68,20.68,0,0,1,10.78,241a36.87,36.87,0,0,1,7.53-8.07l.49.59a36.09,36.09,0,0,0-7.38,7.9A20,20,0,0,0,8,251.49c-.15,4,1.17,7.9,2.44,11.71C11.82,267.37,13.27,271.68,12.81,276.11Z"/><path class="cls-5" d="M5.73,261a19.83,19.83,0,0,1,6-23.67c.68-.53,1.42-1,2.13-1.51A16,16,0,0,0,18.33,232l.63.45a16.74,16.74,0,0,1-4.63,4c-.7.47-1.43,1-2.09,1.48a19.06,19.06,0,0,0-5.8,22.75Z"/><path class="cls-5" d="M12.05,264.78l-.63-.44c1.77-2.53,2.48-5.9,2.22-10.62-.06-1.1-.17-2.22-.27-3.3a38.65,38.65,0,0,1-.17-8c.54-4.47,2.75-8,5.92-9.51l.33.69c-2.93,1.37-5,4.7-5.48,8.91a37.86,37.86,0,0,0,.17,7.89c.1,1.09.2,2.22.26,3.33C14.67,258.57,13.93,262.1,12.05,264.78Z"/><path class="cls-5" d="M12.32,272.77c-1.27-6.95-2.59-14.13-2.07-21.33.57-8.1,3.56-15,8.41-19.43l.52.57c-4.7,4.3-7.6,11-8.17,18.91-.51,7.11.8,14.24,2.07,21.14Z"/><path class="cls-5" d="M10.51,274.75a34.59,34.59,0,0,1,6.55-41.56l.53.55a33.82,33.82,0,0,0-6.4,40.64Z"/><path class="cls-7" d="M16.61,231.73a2,2,0,0,1,3,0,2,2,0,0,1,.33,1.92.59.59,0,0,1-1.07.1,2.32,2.32,0,0,0-1.77-1.21c-.24,0-.53-.05-.62-.27A.48.48,0,0,1,16.61,231.73Z"/><rect class="cls-8" x="61.21" y="-8.5" width="0.45" height="127.23"/><ellipse class="cls-2" cx="58.68" cy="140.32" rx="22.25" ry="23.83"/><path class="cls-9" d="M36.48,138.8c0,.5,0,1,0,1.52,0,13.16,10,23.83,22.25,23.83,12.06,0,21.87-10.28,22.23-23.11C66.08,140.53,51.26,139.88,36.48,138.8Z"/><ellipse class="cls-5" cx="61.84" cy="140.32" rx="22.25" ry="23.83"/><g class="cls-11"><rect class="cls-7" x="61.86" y="111.93" width="0.74" height="56.85"/><rect class="cls-7" x="36.16" y="139.98" width="52.15" height="0.74"/><rect class="cls-7" x="61.86" y="113.08" width="0.74" height="54.55" transform="translate(-78.5 78.99) rotate(-42.53)"/><rect class="cls-7" x="34.96" y="139.98" width="54.55" height="0.74" transform="translate(-83.27 91.35) rotate(-47.48)"/><rect class="cls-7" x="61.86" y="112.28" width="0.74" height="56.15" transform="translate(-46.71 32.16) rotate(-21.29)"/><rect class="cls-7" x="35.78" y="139.98" width="52.89" height="0.74" transform="translate(-53.2 39.12) rotate(-24.84)"/><rect class="cls-7" x="61.86" y="113.94" width="0.74" height="52.83" transform="translate(-91.3 140.76) rotate(-66.24)"/><rect class="cls-7" x="34.12" y="139.98" width="56.21" height="0.74" transform="translate(-91 149.97) rotate(-69.68)"/><rect class="cls-7" x="61.86" y="112.02" width="0.74" height="56.66" transform="translate(-25.11 14.09) rotate(-10.76)"/><rect class="cls-7" x="36.06" y="139.98" width="52.35" height="0.74" transform="translate(-29.38 17.15) rotate(-12.72)"/><rect class="cls-7" x="61.86" y="113.55" width="0.74" height="53.6" transform="translate(-88.12 109.25) rotate(-54.4)"/><rect class="cls-7" x="34.49" y="139.98" width="55.47" height="0.74" transform="translate(-90.1 121.21) rotate(-58.93)"/><rect class="cls-7" x="61.86" y="112.67" width="0.74" height="55.36" transform="translate(-65.58 55.28) rotate(-32.44)"/><rect class="cls-7" x="35.37" y="139.98" width="53.71" height="0.74" transform="translate(-72 65.83) rotate(-37.05)"/><rect class="cls-7" x="61.86" y="114.2" width="0.74" height="52.3" transform="translate(-87.53 174.17) rotate(-78.81)"/><rect class="cls-7" x="33.88" y="139.98" width="56.7" height="0.74" transform="translate(-86.43 178.7) rotate(-80.55)"/><rect class="cls-7" x="61.86" y="111.95" width="0.74" height="56.8" transform="translate(-12.13 6.03) rotate(-5.06)"/><rect class="cls-7" x="36.13" y="139.98" width="52.19" height="0.74" transform="translate(-14.32 7.27) rotate(-6)"/><rect class="cls-7" x="61.86" y="113.3" width="0.74" height="54.1" transform="translate(-83.77 92.85) rotate(-48.07)"/><rect class="cls-7" x="34.73" y="139.98" width="54.99" height="0.74" transform="translate(-87.26 105.37) rotate(-52.92)"/><rect class="cls-7" x="61.86" y="112.45" width="0.74" height="55.81" transform="translate(-56.08 42.51) rotate(-26.5)"/><rect class="cls-7" x="35.6" y="139.98" width="53.25" height="0.74" transform="translate(-62.85 51.32) rotate(-30.64)"/><rect class="cls-7" x="61.86" y="114.08" width="0.74" height="52.54" transform="translate(-90.45 156.5) rotate(-72.13)"/><rect class="cls-7" x="33.99" y="139.98" width="56.48" height="0.74" transform="translate(-89.52 163.68) rotate(-74.83)"/><rect class="cls-7" x="61.86" y="112.13" width="0.74" height="56.45" transform="translate(-36 22.36) rotate(-15.87)"/><rect class="cls-7" x="35.94" y="139.98" width="52.57" height="0.74" transform="translate(-41.63 27.29) rotate(-18.66)"/><rect class="cls-7" x="61.86" y="113.75" width="0.74" height="53.2" transform="translate(-90.47 124.41) rotate(-60.13)"/><rect class="cls-7" x="34.3" y="139.98" width="55.86" height="0.74" transform="translate(-91.22 135.31) rotate(-64.21)"/><rect class="cls-7" x="61.86" y="112.89" width="0.74" height="54.93" transform="matrix(0.79, -0.61, 0.61, 0.79, -72.98, 67.61)"/><rect class="cls-7" x="35.15" y="139.98" width="54.16" height="0.74" transform="translate(-78.65 79.32) rotate(-42.67)"/><rect class="cls-7" x="61.86" y="114.26" width="0.74" height="52.18" transform="translate(-83.19 189.6) rotate(-84.8)"/><rect class="cls-7" x="33.82" y="139.98" width="56.81" height="0.74" transform="translate(-82.46 191.69) rotate(-85.62)"/></g><ellipse class="cls-9" cx="62.31" cy="140.32" rx="19" ry="20.85"/><ellipse class="cls-12" cx="62.31" cy="141.2" rx="18.19" ry="19.97"/><path class="cls-5" d="M62.31,158.14l-18-18,18-18,18,18Zm-17.49-18,17.49,17.49,17.48-17.49L62.31,122.65Z"/><rect class="cls-5" x="59.7" y="133.68" width="8.56" height="11.54"/><rect class="cls-9" x="61.56" y="136.19" width="3.72" height="6.52"/><rect class="cls-5" x="61.01" y="127.72" width="1.73" height="4.93"/><rect class="cls-5" x="64.43" y="127.72" width="1.73" height="4.93"/><rect class="cls-5" x="61.1" y="147.18" width="1.73" height="4.93"/><rect class="cls-5" x="64.52" y="147.18" width="1.73" height="4.93"/><rect class="cls-5" x="50.6" y="140.71" width="7.07" height="2.49"/><rect class="cls-5" x="50.6" y="135.8" width="7.07" height="2.49"/><rect class="cls-5" x="71.05" y="140.12" width="5.56" height="1.95"/><rect class="cls-5" x="71.05" y="136.27" width="5.56" height="1.95"/><rect class="cls-8" x="47.35" y="-8.5" width="0.45" height="77.32"/><ellipse class="cls-2" cx="45.89" cy="86.99" rx="18.18" ry="19.47"/><path class="cls-9" d="M27.75,85.75c0,.41,0,.82,0,1.24,0,10.75,8.14,19.47,18.18,19.47,9.85,0,17.87-8.4,18.16-18.88C51.94,87.16,39.83,86.63,27.75,85.75Z"/><ellipse class="cls-5" cx="48.47" cy="86.99" rx="18.18" ry="19.47"/><g class="cls-13"><rect class="cls-7" x="48.49" y="63.79" width="0.61" height="46.45"/><rect class="cls-7" x="27.49" y="86.71" width="42.61" height="0.61"/><rect class="cls-7" x="48.49" y="64.73" width="0.61" height="44.57" transform="translate(-45.99 55.87) rotate(-42.53)"/><rect class="cls-7" x="26.5" y="86.71" width="44.57" height="0.61" transform="translate(-48.32 64.15) rotate(-47.47)"/><rect class="cls-7" x="48.49" y="64.07" width="0.61" height="45.88" transform="translate(-28.26 23.65) rotate(-21.29)"/><rect class="cls-7" x="27.18" y="86.71" width="43.22" height="0.61" transform="translate(-32.04 28.54) rotate(-24.84)"/><rect class="cls-7" x="48.49" y="65.43" width="0.61" height="43.17" transform="translate(-50.51 96.61) rotate(-66.24)"/><rect class="cls-7" x="25.82" y="86.71" width="45.93" height="0.61" transform="translate(-49.75 102.55) rotate(-69.68)"/><rect class="cls-7" x="48.49" y="63.87" width="0.61" height="46.3" transform="translate(-15.39 10.64) rotate(-10.76)"/><rect class="cls-7" x="27.4" y="86.71" width="42.77" height="0.61" transform="matrix(0.98, -0.22, 0.22, 0.98, -17.96, 12.88)"/><rect class="cls-7" x="48.49" y="65.11" width="0.61" height="43.8" transform="translate(-50.36 76.03) rotate(-54.4)"/><rect class="cls-7" x="26.13" y="86.71" width="45.33" height="0.61" transform="translate(-50.92 83.89) rotate(-58.93)"/><rect class="cls-7" x="48.49" y="64.4" width="0.61" height="45.24" transform="translate(-39.06 39.75) rotate(-32.44)"/><rect class="cls-7" x="26.84" y="86.71" width="43.89" height="0.61" transform="translate(-42.58 46.97) rotate(-37.06)"/><rect class="cls-7" x="48.49" y="65.65" width="0.61" height="42.74" transform="matrix(0.19, -0.98, 0.98, 0.19, -46.04, 118)"/><rect class="cls-7" x="25.62" y="86.71" width="46.33" height="0.61" transform="translate(-45.05 120.87) rotate(-80.56)"/><rect class="cls-7" x="48.49" y="63.81" width="0.61" height="46.42" transform="translate(-7.48 4.64) rotate(-5.06)"/><rect class="cls-7" x="27.47" y="86.71" width="42.65" height="0.61" transform="translate(-8.83 5.58) rotate(-6)"/><rect class="cls-7" x="48.49" y="64.91" width="0.61" height="44.2" transform="translate(-48.55 65.16) rotate(-48.07)"/><rect class="cls-7" x="26.32" y="86.71" width="44.94" height="0.61" transform="translate(-50.05 73.46) rotate(-52.91)"/><rect class="cls-7" x="48.49" y="64.21" width="0.61" height="45.6" transform="translate(-33.7 30.91) rotate(-26.5)"/><rect class="cls-7" x="27.03" y="86.71" width="43.51" height="0.61" transform="translate(-37.55 37.03) rotate(-30.65)"/><rect class="cls-7" x="48.49" y="65.55" width="0.61" height="42.93" transform="translate(-49 106.75) rotate(-72.13)"/><rect class="cls-7" x="25.71" y="86.71" width="46.15" height="0.61" transform="translate(-47.96 111.32) rotate(-74.82)"/><rect class="cls-7" x="48.49" y="63.95" width="0.61" height="46.13" transform="translate(-21.93 16.65) rotate(-15.87)"/><rect class="cls-7" x="27.31" y="86.71" width="42.96" height="0.61" transform="translate(-25.27 20.18) rotate(-18.66)"/><rect class="cls-7" x="48.49" y="65.28" width="0.61" height="43.47" transform="translate(-50.97 85.98) rotate(-60.13)"/><rect class="cls-7" x="25.97" y="86.71" width="45.64" height="0.61" transform="translate(-50.79 93.09) rotate(-64.21)"/><rect class="cls-7" x="48.49" y="64.57" width="0.61" height="44.89" transform="translate(-43.1 48.18) rotate(-37.81)"/><rect class="cls-7" x="26.66" y="86.71" width="44.25" height="0.61" transform="translate(-46.06 56.1) rotate(-42.67)"/><rect class="cls-7" x="48.49" y="65.7" width="0.61" height="42.64" transform="translate(-42.29 127.72) rotate(-84.8)"/><rect class="cls-7" x="25.58" y="86.71" width="46.42" height="0.61" transform="translate(-41.69 129.04) rotate(-85.64)"/></g><ellipse class="cls-9" cx="48.85" cy="86.99" rx="15.53" ry="17.04"/><ellipse class="cls-12" cx="48.85" cy="87.71" rx="14.87" ry="16.31"/><path class="cls-5" d="M48.85,101.55,34.14,86.84,48.85,72.12,63.57,86.84ZM34.57,86.84l14.28,14.28L63.14,86.84,48.85,72.55Z"/><rect class="cls-5" x="46.72" y="81.56" width="7" height="9.43"/><rect class="cls-9" x="48.24" y="83.61" width="3.04" height="5.33"/><rect class="cls-5" x="47.79" y="76.7" width="1.42" height="4.03"/><rect class="cls-5" x="50.59" y="76.7" width="1.42" height="4.03"/><rect class="cls-5" x="47.87" y="92.59" width="1.42" height="4.03"/><rect class="cls-5" x="50.67" y="92.59" width="1.42" height="4.03"/><rect class="cls-5" x="39.29" y="87.31" width="5.78" height="2.03"/><rect class="cls-5" x="39.29" y="83.29" width="5.78" height="2.03"/><rect class="cls-5" x="56" y="86.83" width="4.54" height="1.6"/><rect class="cls-5" x="56" y="83.68" width="4.54" height="1.6"/><rect class="cls-8" x="73.06" y="-8.5" width="0.45" height="53.68"/><path class="cls-2" d="M60.73,40.7c-2.62,10.28,1.71,21,9.66,24s16.51-3,19.13-13.28-1.71-21-9.66-23.95S63.35,30.42,60.73,40.7Z"/><path class="cls-9" d="M89.79,50.17q-.12.6-.27,1.2C86.9,61.65,78.34,67.6,70.39,64.65c-7.8-2.89-12.11-13.28-9.79-23.38C70.29,44.43,80,47.47,89.79,50.17Z"/><ellipse class="cls-5" cx="73.08" cy="45.28" rx="19.39" ry="15.12" transform="translate(22.29 114.64) rotate(-85.57)"/><g class="cls-14"><polygon class="cls-7" points="66.93 67.32 67.41 67.5 78.71 23.1 78.23 22.92 66.93 67.32"/><polygon class="cls-7" points="55.88 39.24 89.62 51.75 89.76 51.17 56.02 38.66 55.88 39.24"/><polygon class="cls-7" points="57.02 56.75 88.87 34.2 88.61 33.67 56.77 56.22 57.02 56.75"/><polygon class="cls-7" points="80.53 65.46 80.98 65.2 65.11 24.96 64.66 25.22 80.53 65.46"/><polygon class="cls-7" points="61.22 63.39 84.81 27.41 84.42 27.03 60.83 63.01 61.22 63.39"/><polygon class="cls-7" points="85.97 59.87 86.31 59.42 59.67 30.55 59.33 31 85.97 59.87"/><polygon class="cls-7" points="55.09 48.02 90.61 43 90.55 42.39 55.03 47.42 55.09 48.02"/><polygon class="cls-7" points="73.65 68.15 74.15 68.12 71.99 22.26 71.49 22.3 73.65 68.15"/><polygon class="cls-7" points="64.09 65.82 82 24.88 81.55 24.6 63.64 65.54 64.09 65.82"/><polygon class="cls-7" points="88.07 56.1 88.32 55.57 57.57 34.32 57.32 34.84 88.07 56.1"/><polygon class="cls-7" points="55.7 52.46 90.1 38.54 89.94 37.96 55.54 51.88 55.7 52.46"/><polygon class="cls-7" points="77.11 67.27 77.6 67.13 68.52 23.14 68.03 23.29 77.11 67.27"/><polygon class="cls-7" points="58.73 60.13 87.23 30.75 86.91 30.29 58.41 59.66 58.73 60.13"/><polygon class="cls-7" points="83.27 63.17 83.67 62.82 62.37 27.25 61.97 27.6 83.27 63.17"/><polygon class="cls-7" points="55.19 43.32 90.4 47.7 90.45 47.1 55.24 42.72 55.19 43.32"/><polygon class="cls-7" points="70.02 68.13 70.52 68.21 75.61 22.29 75.12 22.21 70.02 68.13"/><polygon class="cls-7" points="65.81 66.82 80.3 23.82 79.83 23.6 65.34 66.59 65.81 66.82"/><polygon class="cls-7" points="88.97 53.85 89.17 53.29 56.67 36.57 56.47 37.13 88.97 53.85"/><polygon class="cls-7" points="56.31 54.78 89.54 36.19 89.33 35.64 56.1 54.22 56.31 54.78"/><polygon class="cls-7" points="78.95 66.42 79.43 66.22 66.69 23.99 66.21 24.2 78.95 66.42"/><polygon class="cls-7" points="59.98 61.94 86.02 28.9 85.66 28.48 59.62 61.52 59.98 61.94"/><polygon class="cls-7" points="84.76 61.51 85.13 61.1 60.88 28.91 60.51 29.32 84.76 61.51"/><polygon class="cls-7" points="55.04 45.81 90.6 45.21 90.6 44.6 55.04 45.2 55.04 45.81"/><polygon class="cls-7" points="71.94 68.26 72.44 68.28 73.7 22.16 73.2 22.14 71.94 68.26"/><polygon class="cls-7" points="62.64 64.73 83.42 26.02 83 25.69 62.22 64.4 62.64 64.73"/><polygon class="cls-7" points="87.12 58 87.41 57.51 58.52 32.42 58.23 32.91 87.12 58"/><polygon class="cls-7" points="55.32 50.32 90.43 40.69 90.32 40.1 55.2 49.73 55.32 50.32"/><polygon class="cls-7" points="75.44 67.81 75.94 67.72 70.2 22.61 69.7 22.7 75.44 67.81"/><polygon class="cls-7" points="57.76 58.37 88.17 32.55 87.88 32.05 57.47 57.87 57.76 58.37"/><polygon class="cls-7" points="81.83 64.47 82.27 64.17 63.8 25.94 63.37 26.25 81.83 64.47"/><polygon class="cls-7" points="55.49 41.12 90.05 49.89 90.15 49.3 55.59 40.52 55.49 41.12"/><polygon class="cls-7" points="68.35 67.79 68.84 67.92 77.29 22.63 76.8 22.5 68.35 67.79"/></g><ellipse class="cls-9" cx="72.78" cy="45.16" rx="16.94" ry="12.93" transform="translate(20.84 113.27) rotate(-84.5)"/><path class="cls-12" d="M60.83,41.49c-2.19,8.61,1.3,17.55,7.8,20s13.55-2.62,15.74-11.23-1.3-17.55-7.8-20S63,32.88,60.83,41.49Z"/><path class="cls-5" d="M61.16,40.7,76.39,31l8.08,18.39L69.23,59.09Zm15.13-9.34L61.5,40.83l7.84,17.85,14.79-9.47Z"/><polygon class="cls-5" points="67.95 47.56 73.49 49.62 75.78 40.6 70.24 38.55 67.95 47.56"/><polygon class="cls-9" points="70.37 46.32 72.78 47.21 74.08 42.12 71.67 41.22 70.37 46.32"/><polygon class="cls-5" points="74.02 39.07 75.14 39.49 76.12 35.64 75 35.22 74.02 39.07"/><polygon class="cls-5" points="71.8 38.25 72.92 38.67 73.9 34.81 72.78 34.4 71.8 38.25"/><polygon class="cls-5" points="70.09 54.25 71.21 54.66 72.19 50.81 71.07 50.39 70.09 54.25"/><polygon class="cls-5" points="67.88 53.43 69 53.84 69.98 49.99 68.86 49.57 67.88 53.43"/><polygon class="cls-5" points="75.69 46.58 75.2 48.52 79.78 50.22 80.27 48.28 75.69 46.58"/><polygon class="cls-5" points="76.67 42.74 76.18 44.69 80.75 46.38 81.25 44.44 76.67 42.74"/><polygon class="cls-5" points="63.56 41.58 63.18 43.11 66.77 44.44 67.16 42.91 63.56 41.58"/><polygon class="cls-5" points="64.33 38.57 63.94 40.09 67.54 41.43 67.93 39.9 64.33 38.57"/></svg>