<svg id="OBJECTS" xmlns="http://www.w3.org/2000/svg" xmlns:xlink="http://www.w3.org/1999/xlink" viewBox="0 0 99.43 405.39"><defs><style>.cls-1{fill:none;}.cls-2{fill:#fa4b48;}.cls-3{fill:#ce3636;}.cls-4{fill:#f2dab3;}.cls-5{fill:#ff8440;}.cls-6{fill:#ad2121;}.cls-7{fill:#e56829;}.cls-8{fill:#ffab3f;}.cls-9{fill:#500b14;}.cls-10{fill:#fbf6e5;}.cls-11{clip-path:url(#clip-path);}.cls-12{fill:#f0bc59;}.cls-13{clip-path:url(#clip-path-2);}</style><clipPath id="clip-path"><circle class="cls-1" cx="64.77" cy="115.06" r="24.29"/></clipPath><clipPath id="clip-path-2"><circle class="cls-1" cx="55.37" cy="59.71" r="17.77" transform="translate(-13.86 102.57) rotate(-78.92)"/></clipPath></defs><path class="cls-2" d="M41.83,84a5.31,5.31,0,0,1-2.72,2.24c-1.38.37-2.82-.28-4.11-.92a1.51,1.51,0,0,1-.77-.63,1.53,1.53,0,0,1,.14-1.21,6.33,6.33,0,0,1,2.17-3.22,4.14,4.14,0,0,1,2.56-.53,8.32,8.32,0,0,1,1.83.4.93.93,0,0,1,.65.78,2.08,2.08,0,0,0,.25.71,2.74,2.74,0,0,1,.51,1.18A2.08,2.08,0,0,1,41.83,84Z"/><path class="cls-3" d="M38.08,82.79c.21.54.76,1,.8,1.54a1.19,1.19,0,0,1-.64,1A2.27,2.27,0,0,1,37,85.6a4.09,4.09,0,0,1-2.12-.8,1,1,0,0,1-.37-.45.94.94,0,0,1,.07-.59,4.56,4.56,0,0,1,1.11-1.69,2.15,2.15,0,0,1,1-.59,1.07,1.07,0,0,1,1.06.33A4,4,0,0,1,38.08,82.79Z"/><path class="cls-2" d="M97.41,62.45a14.45,14.45,0,0,0-3.13,2.79,15.61,15.61,0,0,0-2.87,4c-.16.36-.3.77-.5.8s-.5-.54-.65-1.1a7.12,7.12,0,0,1,1-6.1,7.3,7.3,0,0,1,3.94-2.74A7,7,0,0,1,98,60c.51.07.73.3.56.52a.48.48,0,0,0,0,.46c.1.25.27.5.06.76A4.48,4.48,0,0,1,97.41,62.45Z"/><path class="cls-3" d="M93,63.48c.24.25.83.13.88.56a2.79,2.79,0,0,1-.51,1.34c-.29.5-.62,1-.91,1.46-.52.84-1,1.68-1.36,2.3-.11.16-.22.32-.34.27s-.21-.28-.29-.54a6.06,6.06,0,0,1,0-3.14,5.29,5.29,0,0,1,.89-1.87c.42-.55,1-.92,1.24-.88S92.87,63.33,93,63.48Z"/><path class="cls-2" d="M84.29,41.45a14.38,14.38,0,0,0-1.3-4,15.49,15.49,0,0,0-2.53-4.24c-.26-.28-.58-.58-.53-.77s.7-.25,1.28-.16a7.14,7.14,0,0,1,5.2,3.34,7.29,7.29,0,0,1,.92,4.71,6.82,6.82,0,0,1-1,2.63c-.27.44-.57.55-.71.3a.45.45,0,0,0-.39-.22c-.27,0-.57,0-.73-.25A5.13,5.13,0,0,1,84.29,41.45Z"/><path class="cls-3" d="M85.11,37c-.33.12-.46.72-.87.59a3,3,0,0,1-1-1c-.34-.46-.66-1-1-1.42-.56-.81-1.16-1.54-1.57-2.16-.1-.16-.2-.33-.11-.42s.35-.08.62-.05a6,6,0,0,1,2.87,1.27,5.11,5.11,0,0,1,1.36,1.56,2,2,0,0,1,.31,1.48C85.59,37.07,85.31,36.94,85.11,37Z"/><path class="cls-2" d="M87.49,20.42A6.07,6.07,0,0,1,90,18a6.21,6.21,0,0,1,4,0,1.21,1.21,0,0,1,.77.38c.19.28.06.68-.07,1a6.63,6.63,0,0,1-1.92,3.1,4.88,4.88,0,0,1-2.41.93,8,8,0,0,1-1.76,0,.68.68,0,0,1-.66-.53,1.31,1.31,0,0,0-.27-.54,1.91,1.91,0,0,1-.54-.9A1.9,1.9,0,0,1,87.49,20.42Z"/><path class="cls-3" d="M91.12,20.67c-.24-.41-.78-.65-.84-1.13a1.15,1.15,0,0,1,.56-1A2.67,2.67,0,0,1,92,18.11a3.88,3.88,0,0,1,2,.27.7.7,0,0,1,.38.31.8.8,0,0,1,0,.5,4.83,4.83,0,0,1-1,1.63,2.57,2.57,0,0,1-.92.68,1,1,0,0,1-1-.08C91.29,21.23,91.26,20.92,91.12,20.67Z"/><path class="cls-3" d="M38.18,29.19a6.21,6.21,0,1,1-4.6-6A6.27,6.27,0,0,1,38.18,29.19Z"/><path class="cls-2" d="M36.92,37.75a4.08,4.08,0,0,1-2.79-2c-.56-1.14-.34-2.45-.45-3.67a4.45,4.45,0,0,0-.41-1.61c-.06-.12-.34-.51-.06-.5.12,0,.24,0,.36,0A8.64,8.64,0,0,0,37,29.41a3.9,3.9,0,0,1,3.47.44,4.18,4.18,0,0,1,1.69,2.94,2.79,2.79,0,0,1-.58,1.59c-.35.49-.66,1-1,1.53a3.59,3.59,0,0,1-2.7,2,3.73,3.73,0,0,1-1-.12Z"/><path class="cls-3" d="M37.28,32.64c-.47.82-1.16,2.44-2.36,1.49a2.83,2.83,0,0,1-.78-1.5c-.18-.63-.33-1.27-.55-1.89,0-.09-.28-.54-.08-.57a3.33,3.33,0,0,1,.7.07c.65.06,1.29,0,1.94.07a1.82,1.82,0,0,1,1.64.69c.34.64-.21,1.14-.51,1.64C37.19,32.79,37.34,32.55,37.28,32.64Z"/><path class="cls-2" d="M25.35,36.54a4.14,4.14,0,0,1,1.06-3.27c.91-.88,2.2-1.08,3.32-1.55a4.32,4.32,0,0,0,1.33-.81c.07-.06.43-.5.52-.38s.12.59.18.82a12.87,12.87,0,0,0,1.73,3,3.68,3.68,0,0,1,.37,3.43A4,4,0,0,1,31.52,40a3.11,3.11,0,0,1-1.6-.13l-1.81-.46a3.54,3.54,0,0,1-2.52-1.83,3.32,3.32,0,0,1-.24-1.08C25.34,36.33,25.37,36.85,25.35,36.54Z"/><path class="cls-3" d="M30.33,35.3a4.93,4.93,0,0,1-1.82-.5,1.18,1.18,0,0,1-.07-1.72,7.36,7.36,0,0,1,1.67-1.25c.26-.17.51-.34.76-.53.09-.07.55-.53.63-.35a11.17,11.17,0,0,1,.35,1.41c.08.29.17.57.26.85a2.43,2.43,0,0,1,.08,1.87c-.44.75-1.21.39-1.86.22Z"/><path class="cls-2" d="M22.93,25.16a4.17,4.17,0,0,1,3.44,0,9.08,9.08,0,0,1,2.42,2.59,4.59,4.59,0,0,0,1.26,1.1c.1,0,.53.2.54.33s-.54.37-.63.42A9.36,9.36,0,0,0,27.72,32a3.83,3.83,0,0,1-3,1.64,4.17,4.17,0,0,1-3.15-1.43,2.77,2.77,0,0,1-.43-1.58c0-.65-.09-1.3-.12-1.95a3.43,3.43,0,0,1,1.16-3.13,3.37,3.37,0,0,1,.75-.4Z"/><path class="cls-3" d="M25.65,29.51c0-.66-.34-1.36,0-2a1.24,1.24,0,0,1,1.79-.36c.92.48,1.64,1.3,2.53,1.85.14.09.36.21.13.34s-.61.35-.9.54-.67.46-1,.69c-.53.37-1.17.83-1.84.61s-.65-1-.68-1.67C25.64,29.34,25.65,29.62,25.65,29.51Z"/><path class="cls-2" d="M33,19.34a4.11,4.11,0,0,1,1,3.44C33.76,24,32.81,24.91,32.2,26a4.79,4.79,0,0,0-.54,1.42c0,.07,0,.57-.2.46s-.39-.38-.6-.55c-1-.79-2.26-1-3.38-1.49a3.61,3.61,0,0,1-2.11-2.6,3.67,3.67,0,0,1,.86-3.36,5.52,5.52,0,0,1,1.59-.75c.59-.22,1.16-.48,1.76-.67a3,3,0,0,1,3.13.59l.29.31C33.27,19.67,32.6,18.88,33,19.34Z"/><path class="cls-3" d="M29.7,23.27a6.2,6.2,0,0,1,1.63-.66,1.14,1.14,0,0,1,1.2,1.08c.1,1-.61,2.13-.91,3.12,0,.12-.1.66-.25.69s-.47-.39-.59-.49c-.52-.45-1.09-.83-1.62-1.26a1.65,1.65,0,0,1-.81-1.54c.14-.62.83-.77,1.35-.94Z"/><path class="cls-2" d="M41.65,27.13a4.15,4.15,0,0,1-2.65,2,8,8,0,0,1-3.57-.64,4.44,4.44,0,0,0-1.58-.17c-.21,0-.42.07-.63.08s0-.36,0-.49a9.29,9.29,0,0,0,.5-3.56,3.8,3.8,0,0,1,1.49-3.06,4.13,4.13,0,0,1,3.45-.64A3,3,0,0,1,40,21.76c.41.54.89,1,1.29,1.56a3.21,3.21,0,0,1,.66,3.32,3.29,3.29,0,0,1-.26.49C41.19,27.85,41.81,26.86,41.65,27.13Z"/><path class="cls-3" d="M36.9,25.2c.35.47.89.79,1.12,1.35A1.1,1.1,0,0,1,37.48,28a3.56,3.56,0,0,1-1.86.2,16.14,16.14,0,0,0-1.84,0c-.1,0-.42.07-.39-.11a4.22,4.22,0,0,1,.35-.82c.23-.58.4-1.17.62-1.76s.52-1.13,1.13-1.23,1,.52,1.41,1C37,25.34,36.76,25,36.9,25.2Z"/><path class="cls-4" d="M33.82,29a.75.75,0,0,0,0-.86.76.76,0,0,0-.42-.3.53.53,0,0,0-.16-.41.67.67,0,0,0-.67-.18.51.51,0,0,0-.17.07.65.65,0,0,0-.31-.36.63.63,0,0,0-.7.12.83.83,0,0,0-1,0,.8.8,0,0,0-.24.91.91.91,0,0,0-.13,1.75.77.77,0,0,0,.95,1.13.8.8,0,0,0,1.43.11A.78.78,0,0,0,33.4,31a.76.76,0,0,0,.18-.9.58.58,0,0,0,.5-.44A.59.59,0,0,0,33.82,29Z"/><path class="cls-5" d="M31.38,28.15a.43.43,0,0,0,.35.23.4.4,0,0,0,.06-.8.41.41,0,0,0-.37.16A.43.43,0,0,0,31.38,28.15Z"/><path class="cls-5" d="M30.39,28.65a.66.66,0,0,0-.16.44.49.49,0,0,0,.2.4.69.69,0,0,0,.73,0,.73.73,0,0,0,.32-.35.56.56,0,0,0-.34-.67A.69.69,0,0,0,30.39,28.65Z"/><path class="cls-5" d="M32.87,28.5a.42.42,0,0,0-.41.08.3.3,0,0,0,.09.42A.4.4,0,0,0,33,29a.26.26,0,0,0,.11-.32A.32.32,0,0,0,32.87,28.5Z"/><path class="cls-5" d="M31.73,29.86a.53.53,0,0,0,0,.53.47.47,0,0,0,.37.19.88.88,0,0,0,.41-.12.61.61,0,0,0,.32-.33.48.48,0,0,0-.14-.52.56.56,0,0,0-.54-.11A.7.7,0,0,0,31.73,29.86Z"/><path class="cls-5" d="M30.94,30a.22.22,0,0,0-.16.23.21.21,0,0,0,.19.2.23.23,0,0,0,.25-.24A.23.23,0,0,0,30.94,30Z"/><path class="cls-3" d="M13.82,20.38a4.83,4.83,0,0,1-6,4.62,4.78,4.78,0,0,1,2.49-9.24A4.82,4.82,0,0,1,13.82,20.38Z"/><path class="cls-2" d="M12.85,27a3.13,3.13,0,0,1-2.15-1.55,7.87,7.87,0,0,1-.35-2.82A3.29,3.29,0,0,0,10,21.36c0-.09-.27-.39,0-.39a1.26,1.26,0,0,1,.27,0,6.71,6.71,0,0,0,2.65-.46,3,3,0,0,1,2.67.34,3.24,3.24,0,0,1,1.3,2.26,2.09,2.09,0,0,1-.44,1.22c-.27.39-.51.79-.76,1.19a2.8,2.8,0,0,1-2.08,1.51,3.3,3.3,0,0,1-.76-.1C12.54,26.9,13.08,27,12.85,27Z"/><path class="cls-3" d="M13.13,23c-.37.63-.9,1.87-1.82,1.15a2.13,2.13,0,0,1-.6-1.16c-.14-.49-.25-1-.43-1.45,0-.08-.21-.42-.06-.44a2.47,2.47,0,0,1,.54.05c.5,0,1,0,1.5,0a1.4,1.4,0,0,1,1.26.54c.26.49-.16.87-.39,1.26C13.06,23.15,13.17,23,13.13,23Z"/><path class="cls-2" d="M3.94,26a3.17,3.17,0,0,1,.82-2.52,7.36,7.36,0,0,1,2.55-1.19,3.72,3.72,0,0,0,1-.62c.05-.05.33-.39.4-.3a2.62,2.62,0,0,1,.14.63,9.63,9.63,0,0,0,1.33,2.3A2.82,2.82,0,0,1,10.49,27a3.06,3.06,0,0,1-1.8,1.76,2.45,2.45,0,0,1-1.23-.1c-.46-.13-.93-.24-1.39-.36a2.72,2.72,0,0,1-1.95-1.41A2.57,2.57,0,0,1,3.94,26C3.93,25.88,4,26.28,3.94,26Z"/><path class="cls-3" d="M7.77,25.09a3.9,3.9,0,0,1-1.39-.39.9.9,0,0,1-.06-1.32,5.89,5.89,0,0,1,1.29-1l.58-.4c.07-.06.42-.41.49-.27a9.13,9.13,0,0,1,.26,1.09l.21.65a1.78,1.78,0,0,1,0,1.43c-.33.58-.92.3-1.43.18Z"/><path class="cls-2" d="M2.08,17.28a3.18,3.18,0,0,1,2.65,0,6.93,6.93,0,0,1,1.86,2,3.44,3.44,0,0,0,1,.85c.08,0,.4.15.41.25s-.41.29-.48.33a7.06,7.06,0,0,0-1.72,1.85,3,3,0,0,1-2.32,1.27A3.2,3.2,0,0,1,1,22.71,2.14,2.14,0,0,1,.7,21.5c0-.5-.07-1-.09-1.5a2.6,2.6,0,0,1,.89-2.41,2.49,2.49,0,0,1,.58-.31Z"/><path class="cls-3" d="M4.17,20.63c0-.51-.26-1.05,0-1.54a1,1,0,0,1,1.38-.28c.71.37,1.26,1,1.94,1.42.11.07.28.16.11.27s-.47.26-.7.41-.51.36-.77.54a1.72,1.72,0,0,1-1.42.47c-.59-.19-.49-.8-.52-1.29C4.16,20.49,4.17,20.71,4.17,20.63Z"/><path class="cls-2" d="M9.83,12.8a3.14,3.14,0,0,1,.8,2.64,9.34,9.34,0,0,1-1.41,2.47A3.29,3.29,0,0,0,8.8,19c0,.05,0,.44-.15.35a4.69,4.69,0,0,1-.47-.42,12.1,12.1,0,0,0-2.6-1.15,2.75,2.75,0,0,1-1.62-2,2.8,2.8,0,0,1,.66-2.58,4.28,4.28,0,0,1,1.22-.58c.46-.17.9-.37,1.36-.52a2.33,2.33,0,0,1,2.41.46l.22.24C10,13.05,9.52,12.44,9.83,12.8Z"/><path class="cls-3" d="M7.29,15.82a4.74,4.74,0,0,1,1.26-.5.87.87,0,0,1,.92.82,6.74,6.74,0,0,1-.7,2.41c0,.09-.08.51-.19.53s-.37-.3-.46-.38c-.4-.34-.84-.64-1.25-1a1.26,1.26,0,0,1-.62-1.18c.11-.48.64-.6,1-.73Z"/><path class="cls-2" d="M16.49,18.79a3.22,3.22,0,0,1-2,1.55,6.25,6.25,0,0,1-2.75-.5,3.55,3.55,0,0,0-1.21-.13c-.17,0-.33.05-.49.06s0-.27,0-.37a7.26,7.26,0,0,0,.39-2.74,2.94,2.94,0,0,1,1.14-2.36,3.2,3.2,0,0,1,2.66-.49,2.31,2.31,0,0,1,1,.85c.32.41.68.78,1,1.2a2.45,2.45,0,0,1,.51,2.56,2.64,2.64,0,0,1-.2.37C16.14,19.35,16.62,18.59,16.49,18.79Z"/><path class="cls-3" d="M12.83,17.31c.27.36.69.61.87,1a.85.85,0,0,1-.42,1.09,2.71,2.71,0,0,1-1.44.15c-.47,0-.94,0-1.41,0-.08,0-.32.06-.3-.08a3.52,3.52,0,0,1,.27-.63c.18-.45.31-.91.48-1.36s.4-.87.87-.95.79.41,1.08.76Z"/><path class="cls-4" d="M10.46,20.27a.57.57,0,0,0,0-.66.55.55,0,0,0-.33-.23.41.41,0,0,0-.12-.32.53.53,0,0,0-.52-.14l-.13,0a.47.47,0,0,0-.24-.28.49.49,0,0,0-.54.1.62.62,0,0,0-.72,0,.61.61,0,0,0-.19.7.71.71,0,0,0-.11,1.35.6.6,0,0,0,.74.87.62.62,0,0,0,.52.38.62.62,0,0,0,.58-.3.59.59,0,0,0,.71,0,.61.61,0,0,0,.14-.7.43.43,0,0,0,.18-.8Z"/><path class="cls-5" d="M8.59,19.58a.29.29,0,0,0,.26.17.31.31,0,0,0,.32-.28.32.32,0,0,0-.27-.33.31.31,0,0,0-.28.13A.29.29,0,0,0,8.59,19.58Z"/><path class="cls-5" d="M7.82,20a.45.45,0,0,0-.12.33.4.4,0,0,0,.15.31.54.54,0,0,0,.57,0,.53.53,0,0,0,.24-.27.44.44,0,0,0-.26-.52A.53.53,0,0,0,7.82,20Z"/><path class="cls-5" d="M9.73,19.85a.33.33,0,0,0-.31.06.23.23,0,0,0,.06.32.3.3,0,0,0,.34,0A.21.21,0,0,0,9.91,20,.24.24,0,0,0,9.73,19.85Z"/><path class="cls-5" d="M8.86,20.9a.4.4,0,0,0,0,.41.34.34,0,0,0,.28.14.59.59,0,0,0,.32-.09.49.49,0,0,0,.25-.26.38.38,0,0,0-.11-.4.43.43,0,0,0-.42-.08A.52.52,0,0,0,8.86,20.9Z"/><path class="cls-5" d="M8.24,21a.19.19,0,0,0-.12.18.18.18,0,0,0,.15.16.18.18,0,0,0,.19-.18A.19.19,0,0,0,8.24,21Z"/><path class="cls-3" d="M91.44,155.33a6.08,6.08,0,1,1-4.5-5.88A6.14,6.14,0,0,1,91.44,155.33Z"/><path class="cls-6" d="M90.21,163.72a4,4,0,0,1-2.73-2c-.55-1.12-.34-2.4-.45-3.6a4.09,4.09,0,0,0-.4-1.57c-.06-.12-.33-.5,0-.49a2.21,2.21,0,0,1,.35,0,8.68,8.68,0,0,0,3.37-.58,3.86,3.86,0,0,1,3.4.43,4.1,4.1,0,0,1,1.65,2.88,2.71,2.71,0,0,1-.56,1.55c-.35.49-.65,1-1,1.51a3,3,0,0,1-3.61,1.8Z"/><path class="cls-3" d="M90.56,158.71c-.46.8-1.14,2.39-2.31,1.47a2.86,2.86,0,0,1-.77-1.48c-.17-.62-.31-1.24-.54-1.84,0-.1-.27-.53-.07-.56a3.91,3.91,0,0,1,.68.06c.64.06,1.27,0,1.91.07a1.76,1.76,0,0,1,1.6.68c.34.62-.2,1.11-.5,1.6C90.47,158.86,90.62,158.62,90.56,158.71Z"/><path class="cls-6" d="M78.88,162.53a4,4,0,0,1,1-3.2c.89-.87,2.16-1.06,3.26-1.52a4.58,4.58,0,0,0,1.3-.79c.06-.06.42-.5.51-.38s.11.58.18.81a12.4,12.4,0,0,0,1.69,2.92,3.62,3.62,0,0,1,.36,3.36A4,4,0,0,1,84.92,166a3.22,3.22,0,0,1-1.57-.13l-1.77-.46a3.45,3.45,0,0,1-2.47-1.78,3,3,0,0,1-.23-1.07C78.86,162.33,78.9,162.84,78.88,162.53Z"/><path class="cls-3" d="M83.75,161.32a4.77,4.77,0,0,1-1.78-.49,1.15,1.15,0,0,1-.07-1.68,6.84,6.84,0,0,1,1.64-1.23c.25-.17.5-.34.74-.52s.54-.52.62-.34a10.69,10.69,0,0,1,.34,1.38c.08.28.17.56.26.84a2.31,2.31,0,0,1,.07,1.82c-.42.74-1.18.38-1.82.22Z"/><path class="cls-6" d="M76.5,151.39a4,4,0,0,1,3.37,0,8.68,8.68,0,0,1,2.37,2.53A4.58,4.58,0,0,0,83.48,155c.1.05.51.19.52.32s-.52.37-.61.41a9.29,9.29,0,0,0-2.19,2.36,3.78,3.78,0,0,1-3,1.61,4.06,4.06,0,0,1-3.08-1.4,2.72,2.72,0,0,1-.42-1.55c0-.63-.09-1.27-.12-1.91a3.36,3.36,0,0,1,1.14-3.06,3,3,0,0,1,.73-.39Z"/><path class="cls-3" d="M79.17,155.65c0-.65-.34-1.34,0-2a1.24,1.24,0,0,1,1.77-.36c.9.48,1.6,1.27,2.47,1.82.14.08.35.2.13.33s-.6.34-.88.53-.66.45-1,.68c-.51.35-1.14.81-1.8.6s-.63-1-.66-1.64C79.16,155.48,79.17,155.75,79.17,155.65Z"/><path class="cls-6" d="M86.36,145.68a4,4,0,0,1,1,3.37c-.27,1.2-1.2,2.09-1.79,3.14a4.35,4.35,0,0,0-.53,1.39c0,.06,0,.56-.2.45a7.55,7.55,0,0,1-.59-.54A14.87,14.87,0,0,0,81,152a3.5,3.5,0,0,1-2.06-2.54,3.6,3.6,0,0,1,.84-3.3,5.13,5.13,0,0,1,1.55-.73c.58-.21,1.14-.48,1.73-.66a3,3,0,0,1,3.06.58l.28.3C86.63,146,86,145.24,86.36,145.68Z"/><path class="cls-3" d="M83.14,149.54a5.85,5.85,0,0,1,1.6-.65,1.11,1.11,0,0,1,1.17,1.05c.1,1-.6,2.09-.89,3.06,0,.11-.1.65-.25.68s-.46-.38-.57-.48c-.51-.44-1.07-.81-1.59-1.24a1.59,1.59,0,0,1-.8-1.5c.14-.61.82-.76,1.33-.92Z"/><path class="cls-6" d="M94.84,153.31a4.1,4.1,0,0,1-2.6,2,8,8,0,0,1-3.49-.63,4.28,4.28,0,0,0-1.55-.17c-.2,0-.41.07-.61.08s0-.35,0-.48a9.1,9.1,0,0,0,.49-3.48,3.77,3.77,0,0,1,1.46-3,4,4,0,0,1,3.38-.63,2.93,2.93,0,0,1,1.25,1.09c.4.52.87,1,1.26,1.52a3.14,3.14,0,0,1,.65,3.26,4.31,4.31,0,0,1-.26.47Z"/><path class="cls-3" d="M90.18,151.43c.35.46.88.77,1.11,1.32a1.1,1.1,0,0,1-.53,1.39,3.54,3.54,0,0,1-1.83.19c-.6,0-1.2-.06-1.8,0-.1,0-.41.08-.38-.1a4.69,4.69,0,0,1,.34-.8c.23-.57.4-1.16.61-1.73s.51-1.11,1.11-1.21,1,.52,1.37,1Z"/><path class="cls-4" d="M87.17,155.19a.72.72,0,0,0,0-.84.7.7,0,0,0-.41-.3.57.57,0,0,0-.16-.4.67.67,0,0,0-.66-.18l-.16.07a.65.65,0,0,0-.3-.35.61.61,0,0,0-.69.12.81.81,0,0,0-.93,0,.8.8,0,0,0-.24.89.93.93,0,0,0-.71.82.91.91,0,0,0,.58.9.78.78,0,0,0,.06.9.77.77,0,0,0,.88.21.79.79,0,0,0,.66.49.82.82,0,0,0,.74-.38.77.77,0,0,0,.9-.06.78.78,0,0,0,.18-.89.55.55,0,0,0,.23-1Z"/><path class="cls-5" d="M84.78,154.31a.43.43,0,0,0,.34.23.41.41,0,0,0,.41-.36.4.4,0,0,0-.34-.42.38.38,0,0,0-.37.16A.42.42,0,0,0,84.78,154.31Z"/><path class="cls-5" d="M83.81,154.81a.67.67,0,0,0-.16.42.56.56,0,0,0,.2.4.69.69,0,0,0,.72,0,.78.78,0,0,0,.31-.34.55.55,0,0,0-.34-.66A.67.67,0,0,0,83.81,154.81Z"/><path class="cls-5" d="M86.24,154.66a.4.4,0,0,0-.4.08.28.28,0,0,0,.08.4.39.39,0,0,0,.44,0,.27.27,0,0,0,.11-.31A.29.29,0,0,0,86.24,154.66Z"/><path class="cls-5" d="M85.13,156a.51.51,0,0,0,0,.52.43.43,0,0,0,.37.18.73.73,0,0,0,.4-.11.68.68,0,0,0,.32-.33.49.49,0,0,0-.15-.51.59.59,0,0,0-.53-.11A.7.7,0,0,0,85.13,156Z"/><path class="cls-5" d="M84.35,156.15a.22.22,0,0,0,0,.43.22.22,0,1,0,0-.43Z"/><path class="cls-2" d="M95.77,280.6c-.63-2.06-2.85-3.19-4.61-3.77-4.3-1.44-9-1.34-13.52-1.24-2,0-4,.08-6.06,0a14,14,0,0,1-4.74-.85,6,6,0,0,1-3.47-3.44l.73-.25a5.19,5.19,0,0,0,3,3,13,13,0,0,0,4.47.79c2,.08,4,0,6,0,4.59-.1,9.34-.2,13.78,1.28,1.92.64,4.37,1.9,5.1,4.27Z"/><path class="cls-2" d="M96.77,275.05c-2.93-2-6.87-2.95-11.71-2.71a71.46,71.46,0,0,0-7.2.86c-1.69.26-3.44.53-5.17.71a16.81,16.81,0,0,1-4.69-.05,7.35,7.35,0,0,1-4.22-2.21l.58-.51a6.63,6.63,0,0,0,3.78,2,16,16,0,0,0,4.47,0c1.71-.17,3.45-.44,5.13-.7a72.7,72.7,0,0,1,7.28-.86c5-.25,9.12.71,12.19,2.84Z"/><path class="cls-2" d="M88.43,286.21a29.69,29.69,0,0,1-25.25-13.87l.65-.41A29,29,0,0,0,93,285.08l.13.75A28.71,28.71,0,0,1,88.43,286.21Z"/><path class="cls-2" d="M90.64,288.68a31.16,31.16,0,0,1-27.56-16.5l.68-.36a30.39,30.39,0,0,0,28.37,16.05l0,.77C91.66,288.67,91.15,288.68,90.64,288.68Z"/><path class="cls-2" d="M93.29,290.78a37.46,37.46,0,0,1-16.85-3.64c-6.61-3.29-11.59-9-13.32-15.38l.74-.2c1.68,6.13,6.51,11.7,12.93,14.9,5.6,2.78,12.3,3.94,19.9,3.44l0,.77C95.57,290.74,94.42,290.78,93.29,290.78Z"/><path class="cls-2" d="M85.83,283.3a30.64,30.64,0,0,1-17.71-5.61c-1.28-.91-3-2.35-3.21-4.35l.76-.09c.18,1.7,1.74,3,2.89,3.82a29.9,29.9,0,0,0,23.38,4.81l.16.75A29.36,29.36,0,0,1,85.83,283.3Z"/><path class="cls-2" d="M86.93,281.19a37.1,37.1,0,0,1-12-1.69A26.32,26.32,0,0,1,64.71,273l.55-.54a25.41,25.41,0,0,0,10,6.27c6.46,2.2,13.68,1.71,20,1.27l0,.77C92.64,281,89.8,281.19,86.93,281.19Z"/><path class="cls-2" d="M95.53,283.5c-3.62-2.66-8.28-3.61-12.37-4.18-.82-.12-1.64-.22-2.47-.33A46.17,46.17,0,0,1,70,276.75c-2.52-1-4.18-2.22-5.09-3.82l.67-.38c.81,1.44,2.35,2.58,4.7,3.48a45.64,45.64,0,0,0,10.55,2.2c.83.11,1.65.21,2.47.33,4.19.58,9,1.56,12.72,4.32Z"/><path class="cls-2" d="M96.72,286.7a135.39,135.39,0,0,1-27.48-10.3c-1.4-.71-2.95-1.59-3.55-3.12l.72-.28c.5,1.28,1.84,2,3.17,2.71A134.35,134.35,0,0,0,96.91,286Z"/><path class="cls-2" d="M95.65,277.81c-2.66-2.54-6.59-3-9.43-3-1.68,0-3.4.22-5.06.4s-3.55.39-5.34.41c-3,0-7.12-.53-9.92-3.33l.55-.54c2.61,2.6,6.55,3.11,9.36,3.1,1.76,0,3.54-.21,5.26-.4s3.42-.38,5.14-.41c3-.05,7.13.47,10,3.19Z"/><path class="cls-7" d="M53.76,70.69a1256.08,1256.08,0,0,1,4.61,141.83h.77a1258.75,1258.75,0,0,0-4.6-141.84Z"/><path class="cls-2" d="M37.49,200.17c-7,5.18-11.65,13.22-13.52,21.74-1.75,8-1.14,16.61,2.71,23.79,5.21,9.73,15.74,15.75,26.55,17.95a46.21,46.21,0,0,0,21.15-.4,35.26,35.26,0,0,0,17.85-11.09c8.6-10.27,9.59-25.9,3.3-37.72S76.4,194.86,63.06,193.63C54.1,192.81,44.73,194.83,37.49,200.17Z"/><path class="cls-3" d="M71.81,235.72a29,29,0,0,0,7.53-21,24.58,24.58,0,0,0-12.58-19.84A69.21,69.21,0,0,1,71.11,235l-.16-.18a55.2,55.2,0,0,1-29.47,2.37c0,.17-.07.34-.11.5A59.55,59.55,0,0,1,41,199.13a21.29,21.29,0,0,0-7.61,6.81A26.44,26.44,0,0,0,29.25,218a27.09,27.09,0,0,0,2.57,15.27,19.84,19.84,0,0,0,7.87,8.16,11.19,11.19,0,0,1-4,3.59,8.86,8.86,0,0,1,.63,12c7,4.63,15.55,6.58,23.93,6.42s16.63-2.31,24.44-5.35a24.82,24.82,0,0,1,5.38-13.62A29.38,29.38,0,0,1,71.81,235.72Z"/><path class="cls-8" d="M80.72,257.1l-.13.37a12.28,12.28,0,0,0,4.19.73l.74,0c.22-.15.44-.3.65-.46A11.91,11.91,0,0,1,80.72,257.1Z"/><path class="cls-8" d="M29.18,241.15A27.83,27.83,0,0,0,42,248.64l.1-.38a27.45,27.45,0,0,1-13-7.75,12.76,12.76,0,0,1,7.36-16.36,50.64,50.64,0,0,0,9.43,22.47l.32-.25A50.23,50.23,0,0,1,36.85,224h0c1.54-2.71,4.44-4.69,9.11-6.21,6-1.94,11.32-2.34,15.89-1.2,5.25,1.31,10.31,5.58,11.77,9.93l.07.2a43.89,43.89,0,0,1-6.14,15.95l.34.21a44.16,44.16,0,0,0,6.23-16.34,15.3,15.3,0,0,1,20.86,9A35.92,35.92,0,0,1,81.5,252.2l.22.33A36.29,36.29,0,0,0,95.2,236a7.77,7.77,0,0,1,3,4.82c.07-.26.15-.52.22-.79a8.17,8.17,0,0,0-2.93-4.31,1.83,1.83,0,0,0-.08-.25,34.87,34.87,0,0,0,1.36-4.24,36,36,0,0,0,.86-12c-.19-.53-.38-1.05-.59-1.57a35.56,35.56,0,0,1-.66,13.48,32.73,32.73,0,0,1-1.17,3.76,15.71,15.71,0,0,0-21-8.89,42.8,42.8,0,0,0,.51-5.31A44.15,44.15,0,0,0,71,201.47a22.91,22.91,0,0,1,15.24,1.69l-1.22-1a23.42,23.42,0,0,0-14.18-1.09q-.66-1.47-1.44-2.91a29.75,29.75,0,0,0-2.61-4l-.59-.09A27.18,27.18,0,0,1,69,198.37c.42.78.82,1.56,1.19,2.36-4.24-3.74-10.64-5.4-16.9-4.34a32.26,32.26,0,0,0-15.57,8,51.59,51.59,0,0,1,1.68-5.47l-.54.33a54.27,54.27,0,0,0-1.65,5.59l-.18.17a17.58,17.58,0,0,0-7,2.88l-.67,1a17.42,17.42,0,0,1,7.69-3.47A51.06,51.06,0,0,0,36,220.23c.09,1.18.23,2.35.4,3.52a13.15,13.15,0,0,0-7.95,16,26.46,26.46,0,0,1-2.87-3.94A27.05,27.05,0,0,1,23,230.17c0,.42,0,.85,0,1.27a27.34,27.34,0,0,0,2.18,4.61,27.88,27.88,0,0,0,3.53,4.68,1.34,1.34,0,0,1,.07.18,12.25,12.25,0,0,0,.15,8.42c.35.48.72.94,1.1,1.39a7.88,7.88,0,0,1-.4-.76A11.84,11.84,0,0,1,29.18,241.15Zm7.23-21A50.46,50.46,0,0,1,37.59,205c5-4.47,10.41-7.31,15.78-8.23,6.41-1.08,13,.72,17.09,4.71l.08.08h0A43.66,43.66,0,0,1,74.3,220.7a42.63,42.63,0,0,1-.49,5.18c-1.7-4.36-6.6-8.4-11.86-9.71-4.65-1.17-10.07-.76-16.11,1.21-4.54,1.47-7.44,3.38-9.08,6C36.61,222.31,36.49,221.26,36.41,220.2Z"/><path class="cls-8" d="M40.55,254.88a15.6,15.6,0,0,1-4.27,1.34l.08-.21a13,13,0,0,1-1.52-.67c.54.43,1.1.84,1.67,1.25a16.3,16.3,0,0,0,4.21-1.35Z"/><path class="cls-6" d="M93.68,242.3a11.74,11.74,0,0,1-1-1.85,11,11,0,0,1-.5-2,12.81,12.81,0,0,0-.42-1.81c-1.26-3.86-5.58-5.73-9-6.62-3.64-1-6.38-.8-8.35.46a20.59,20.59,0,0,0-14.55-9,27,27,0,0,0-17.09,3.7,21,21,0,0,0-8.42,8.32A12.88,12.88,0,0,0,34,245a12,12,0,0,0,.4,10l.81.65a11.62,11.62,0,0,1-.81-10.56l0-.09,0-.09a12.44,12.44,0,0,1,.33-11.25A20.66,20.66,0,0,1,43,225.49a26.53,26.53,0,0,1,16.84-3.64,20.17,20.17,0,0,1,14.38,9l.1.18.18-.12c1.88-1.3,4.56-1.46,8.19-.51,3.3.86,7.49,2.66,8.7,6.36a14.79,14.79,0,0,1,.4,1.75,11.93,11.93,0,0,0,.52,2.1,11.42,11.42,0,0,0,1,1.92c.19.31.39.63.57,1a10.62,10.62,0,0,1,1.27,4.44c.12-.2.23-.41.34-.62a10.93,10.93,0,0,0-1.26-4C94.08,242.94,93.88,242.61,93.68,242.3Z"/><path class="cls-6" d="M37,209.17l.08,0,0-.06a23.51,23.51,0,0,1,35.48-3l.09.09.12-.05a20.9,20.9,0,0,1,15.07.14,21.35,21.35,0,0,1,3.1,1.55c-.26-.31-.53-.61-.81-.92a21,21,0,0,0-2.15-1,21.33,21.33,0,0,0-15.23-.18,23.9,23.9,0,0,0-35.94,3A19.22,19.22,0,0,0,25.37,217c-.18.52-.35,1.05-.52,1.57.24-.4.48-.8.74-1.18A18.77,18.77,0,0,1,37,209.17Z"/><path class="cls-6" d="M36.82,216.84h.07l0-.06a27,27,0,0,1,38.9-4.05l.07.06.1,0a18.13,18.13,0,0,1,13.61,2.74A17.84,17.84,0,0,1,97,227.16v.12l.11,0a19,19,0,0,1,2.34,1.06l0-.47a18,18,0,0,0-2.06-.92,18.18,18.18,0,0,0-7.55-11.81A18.5,18.5,0,0,0,76,212.36a27.39,27.39,0,0,0-39.35,4.12c-5,1.28-9.51,5.47-11.69,11a25.05,25.05,0,0,0-1.66,7.37c.09.67.19,1.35.31,2a25.75,25.75,0,0,1,1.72-9.23C27.48,222.19,31.88,218.07,36.82,216.84Z"/><path class="cls-8" d="M82.06,244c-3.81-2.93-11.58-4.86-19.66-5.16a49.75,49.75,0,0,0-15.48,1.63c-4.25,1.28-7.06,3.28-8.2,5.4-.91,1.69-.69,10.34,1.64,12.13,3.15,2.41,9.53,3.9,16.08,4.45a67.65,67.65,0,0,0,12.81-.1,34.43,34.43,0,0,0,10.81-2.76C84.71,257.26,84.9,246.14,82.06,244Z"/><path class="cls-7" d="M53,239.18l1.47,23c.66.08,1.32.14,2,.2l1.8.13-1-23.71C55.77,238.89,54.36,239,53,239.18Z"/><path class="cls-7" d="M46.92,240.42a21,21,0,0,0-3.36,1.3l1.58,18.56A43.78,43.78,0,0,0,53,262l-1.64-22.59A32.13,32.13,0,0,0,46.92,240.42Z"/><path class="cls-9" d="M48.9,248c-3.67,1.11-6.09,2.84-7.07,4.66s-.59,3.55,1.42,5.09c2.71,2.08,8.21,3.37,13.85,3.84a58.14,58.14,0,0,0,11-.09,29.53,29.53,0,0,0,9.31-2.38c4.49-2.2,5-5.54,1.73-8.07s-10-4.19-16.94-4.45A43.09,43.09,0,0,0,48.9,248Z"/><path class="cls-10" d="M82.5,252.47a20.8,20.8,0,0,0,.39-3.94,7,7,0,0,0-1.09-3.75,4.21,4.21,0,0,0-3.3-1.92,36.1,36.1,0,0,1-.25,5.4A12.77,12.77,0,0,1,82.5,252.47Z"/><path class="cls-7" d="M81,256.77c-4.08-1.66-8.27-3.18-12.48-4.54a1.58,1.58,0,0,0-.14-2.73c-1.32-1-4-1.69-6.83-1.8a20.47,20.47,0,0,0-3.7.2l-1.65-2.22-.32.23L57.4,248a10.72,10.72,0,0,0-1.24.3,4.69,4.69,0,0,0-2.85,1.88,1.52,1.52,0,0,0,.57,2,8.74,8.74,0,0,0,3.53,1.28l-9.8,7.38.23.31L58,253.57c.5.08,1,.14,1.52.18a23.61,23.61,0,0,0,4.45,0,11.92,11.92,0,0,0,3.76-1,4.16,4.16,0,0,0,.42-.23c4.31,1.37,8.58,2.92,12.74,4.62Z"/><path class="cls-7" d="M87,291.25a34.92,34.92,0,0,1-25.15-39.83l.76.13a34.16,34.16,0,0,0,24.59,39Z"/><path class="cls-5" d="M83.78,293a25.11,25.11,0,0,1-18-14.55c-1.2-2.81-1.5-5.18-.92-7.23l.74.21c-.53,1.88-.24,4.07.89,6.72a24.32,24.32,0,0,0,17.44,14.09Z"/><path class="cls-5" d="M93.39,284.83c-2.07-2.33-5.51-2.58-8.84-2.81l-.47,0a33.55,33.55,0,0,1-11.14-2.43,18,18,0,0,1-8.63-7.4l.67-.38a17.26,17.26,0,0,0,8.26,7.08,33.17,33.17,0,0,0,10.89,2.37l.48,0c3.32.24,7.07.5,9.35,3.07Z"/><path class="cls-5" d="M98,289.47c-3.59-2.06-7.77-2.94-12.09-3.72l-.64-.12c-4-.72-8.12-1.46-11.82-3.26-4.46-2.18-7.54-5.66-8.44-9.56l.75-.18c.85,3.68,3.78,7,8,9.05,3.61,1.75,7.68,2.49,11.61,3.2L86,285c4.39.8,8.64,1.69,12.33,3.82Z"/><path class="cls-5" d="M98.92,280.49c-2.18-3.35-6.43-5.46-11.66-5.81a52.7,52.7,0,0,0-9.56.58c-1.37.17-2.78.35-4.18.47a13.27,13.27,0,0,1-5.35-.34,5.46,5.46,0,0,1-3.78-3.84l.75-.15a4.75,4.75,0,0,0,3.27,3.26,12.74,12.74,0,0,0,5,.3c1.39-.12,2.8-.29,4.16-.46a51.4,51.4,0,0,1,9.7-.58c5.47.36,9.94,2.6,12.25,6.15Z"/><path class="cls-5" d="M90.9,279.38A90.18,90.18,0,0,0,77,278.51h-.55a18.53,18.53,0,0,1-6.2-.58c-2.08-.7-4.28-2.52-4.49-5l.77-.07c.18,2.14,2.12,3.72,4,4.34a17.81,17.81,0,0,0,5.93.54H77a90.42,90.42,0,0,1,14.05.88Z"/><path class="cls-5" d="M92.9,279.57c-3.44-2.08-7.75-2.28-10.69-2.26-1.12,0-2.23.06-3.35.1a47.33,47.33,0,0,1-8-.14,9.21,9.21,0,0,1-3.49-1.06,4.29,4.29,0,0,1-2.16-3l.77-.09a3.47,3.47,0,0,0,1.79,2.47,8.43,8.43,0,0,0,3.19,1,46.79,46.79,0,0,0,7.85.13c1.1,0,2.25-.09,3.37-.1,3,0,7.49.19,11.1,2.37Z"/><path class="cls-5" d="M97.1,288l-.74-.2a3,3,0,0,0-.79-2.64A8.28,8.28,0,0,0,93,283.47a40.64,40.64,0,0,0-14.52-3.94l-1.76-.11a24.57,24.57,0,0,1-6.06-.87c-2.33-.74-5-2.56-5.61-5.46l.75-.15c.52,2.57,3,4.21,5.09,4.88a23.69,23.69,0,0,0,5.87.83c.6,0,1.19.07,1.78.12a41.45,41.45,0,0,1,14.79,4,9.07,9.07,0,0,1,2.81,1.9A3.69,3.69,0,0,1,97.1,288Z"/><path class="cls-5" d="M87.56,289.59c-4.78-1-9.72-2.07-14.1-4.52-4.87-2.73-8.21-7-8.93-11.53l.76-.12c.68,4.26,3.88,8.36,8.55,11,4.27,2.39,9.15,3.43,13.88,4.44Z"/><path class="cls-5" d="M91,291.86a31.46,31.46,0,0,1-16.61-4.28c-5.52-3.43-9.19-8.93-9.81-14.71l.76-.08c.6,5.54,4.13,10.83,9.46,14.13a31,31,0,0,0,17,4.16v.77Z"/><path class="cls-5" d="M92.44,288.38c-5.29-.54-10.75-1.09-15.83-3.15-5.67-2.3-9.86-6.32-11.49-11l.73-.25c1.55,4.49,5.58,8.34,11.05,10.56,5,2,10.38,2.56,15.61,3.09Z"/><path class="cls-5" d="M88.6,284.7a34.27,34.27,0,0,1-22.67-9l.53-.57a33.38,33.38,0,0,0,22.15,8.8Z"/><path class="cls-8" d="M62.91,272.18a2.48,2.48,0,0,0,.1,1.91,1.72,1.72,0,0,0,1.54,1,2.93,2.93,0,0,1,2.83-2.92,2.21,2.21,0,0,0-2.21-1.78A2.64,2.64,0,0,0,62.91,272.18Z"/><rect class="cls-7" x="65.01" y="-8.5" width="0.45" height="116.86"/><circle class="cls-2" cx="65.75" cy="111.8" r="24.29" transform="translate(-63.86 116.74) rotate(-61.72)"/><path class="cls-9" d="M81.3,93.15a24.29,24.29,0,1,1-34.35,34l.77-.2C64.32,122.92,76.68,109.48,81.3,93.15Z"/><circle class="cls-5" cx="64.42" cy="114.84" r="24.29" transform="translate(-24.9 18.09) rotate(-13.42)"/><g class="cls-11"><rect class="cls-8" x="64.39" y="86.09" width="0.76" height="57.95"/><rect class="cls-8" x="35.79" y="114.68" width="57.95" height="0.76"/><rect class="cls-8" x="35.79" y="114.68" width="57.95" height="0.76" transform="translate(-62.39 79.5) rotate(-45)"/><rect class="cls-8" x="64.39" y="86.09" width="0.76" height="57.95" transform="translate(-62.39 79.51) rotate(-45.01)"/><rect class="cls-8" x="35.79" y="114.68" width="57.95" height="0.76" transform="translate(-66.46 129.7) rotate(-66.99)"/><rect class="cls-8" x="64.39" y="86.09" width="0.76" height="57.95" transform="translate(-66.46 129.66) rotate(-66.97)"/><rect class="cls-8" x="35.79" y="114.68" width="57.95" height="0.76" transform="translate(-38.37 32.62) rotate(-21.99)"/><rect class="cls-8" x="64.39" y="86.09" width="0.76" height="57.95" transform="translate(-38.38 32.63) rotate(-21.99)"/><rect class="cls-8" x="35.79" y="114.68" width="57.95" height="0.76" transform="translate(-61.04 155.14) rotate(-78.29)"/><rect class="cls-8" x="64.39" y="86.09" width="0.76" height="57.95" transform="translate(-61.03 155.17) rotate(-78.31)"/><rect class="cls-8" x="35.79" y="114.68" width="57.95" height="0.76" transform="translate(-52.53 54.44) rotate(-33.29)"/><rect class="cls-8" x="64.39" y="86.09" width="0.76" height="57.95" transform="translate(-52.53 54.43) rotate(-33.29)"/><rect class="cls-8" x="35.79" y="114.68" width="57.95" height="0.76" transform="translate(-66.7 102.77) rotate(-55.28)"/><rect class="cls-8" x="64.39" y="86.09" width="0.76" height="57.95" transform="translate(-66.7 102.77) rotate(-55.28)"/><rect class="cls-8" x="35.79" y="114.68" width="57.95" height="0.76" transform="translate(-19.5 13.41) rotate(-10.28)"/><rect class="cls-8" x="64.39" y="86.09" width="0.76" height="57.95" transform="translate(-19.51 13.42) rotate(-10.29)"/><rect class="cls-8" x="35.79" y="114.68" width="57.95" height="0.76" transform="matrix(0.1, -1, 1, 0.1, -55.98, 168.48)"/><rect class="cls-8" x="64.39" y="86.09" width="0.76" height="57.95" transform="translate(-55.99 168.47) rotate(-84.48)"/><rect class="cls-8" x="35.79" y="114.68" width="57.95" height="0.76" transform="matrix(0.77, -0.64, 0.64, 0.77, -58.39, 67.45)"/><rect class="cls-8" x="64.39" y="86.09" width="0.76" height="57.95" transform="translate(-58.38 67.43) rotate(-39.48)"/><rect class="cls-8" x="35.79" y="114.68" width="57.95" height="0.76" transform="translate(-67.26 117.03) rotate(-61.48)"/><rect class="cls-8" x="64.39" y="86.09" width="0.76" height="57.95" transform="translate(-67.26 117.01) rotate(-61.47)"/><rect class="cls-8" x="35.79" y="114.68" width="57.95" height="0.76" transform="translate(-29.98 23.1) rotate(-16.48)"/><rect class="cls-8" x="64.39" y="86.09" width="0.76" height="57.95" transform="translate(-29.98 23.1) rotate(-16.48)"/><rect class="cls-8" x="35.79" y="114.68" width="57.95" height="0.76" transform="translate(-64.31 142.87) rotate(-72.78)"/><rect class="cls-8" x="64.39" y="86.09" width="0.76" height="57.95" transform="translate(-64.31 142.88) rotate(-72.79)"/><rect class="cls-8" x="35.79" y="114.68" width="57.95" height="0.76" transform="translate(-46.17 43.46) rotate(-27.78)"/><rect class="cls-8" x="64.39" y="86.09" width="0.76" height="57.95" transform="translate(-46.17 43.45) rotate(-27.78)"/><rect class="cls-8" x="35.79" y="114.68" width="57.95" height="0.76" transform="translate(-64.91 90.2) rotate(-49.77)"/><rect class="cls-8" x="64.39" y="86.09" width="0.76" height="57.95" transform="translate(-64.91 90.2) rotate(-49.77)"/><rect class="cls-8" x="35.79" y="114.68" width="57.95" height="0.76" transform="matrix(1, -0.08, 0.08, 1, -9.35, 5.79)"/><rect class="cls-8" x="64.39" y="86.09" width="0.76" height="57.95" transform="matrix(1, -0.08, 0.08, 1, -9.33, 5.77)"/></g><circle class="cls-4" cx="64.42" cy="114.84" r="21.38" transform="matrix(0.38, -0.93, 0.93, 0.38, -66.25, 131.11)"/><ellipse class="cls-12" cx="64.42" cy="114.13" rx="21.38" ry="20.67"/><rect class="cls-5" x="59.23" y="109.65" width="11.13" height="11.13"/><rect class="cls-9" x="61.76" y="112.18" width="6.07" height="6.07"/><path class="cls-5" d="M45.3,115.22l19.5-19.5,19.5,19.5-19.5,19.5Zm19.5-19-19,19,19,19,19-19Z"/><rect class="cls-5" x="66.03" y="102.63" width="2.06" height="4.68"/><rect class="cls-5" x="61.38" y="102.63" width="2.06" height="4.68"/><rect class="cls-5" x="66.03" y="122.43" width="2.06" height="4.68"/><rect class="cls-5" x="61.38" y="122.43" width="2.06" height="4.68"/><rect class="cls-5" x="72.3" y="116.17" width="4.68" height="2.06"/><rect class="cls-5" x="72.3" y="111.52" width="4.68" height="2.06"/><rect class="cls-5" x="52.49" y="116.17" width="4.68" height="2.06"/><rect class="cls-5" x="52.49" y="111.52" width="4.68" height="2.06"/><rect class="cls-7" x="54.94" y="-8.5" width="0.45" height="65.64"/><circle class="cls-2" cx="57.02" cy="57.84" r="17.77" transform="matrix(0.69, -0.73, 0.73, 0.69, -24.18, 59.63)"/><path class="cls-9" d="M73.07,50.22A17.77,17.77,0,1,1,39.82,62.29l.57.11C52.66,64.79,65,59.65,73.07,50.22Z"/><path class="cls-5" d="M39.07,52a17.77,17.77,0,1,0,23.58-8.68A17.77,17.77,0,0,0,39.07,52Z"/><g class="cls-13"><rect class="cls-8" x="34.18" y="59.43" width="42.39" height="0.56" transform="translate(-22.04 84.97) rotate(-65.23)"/><rect class="cls-8" x="55.09" y="38.51" width="0.56" height="42.39" transform="translate(-22.05 84.95) rotate(-65.22)"/><rect class="cls-8" x="34.18" y="59.43" width="42.39" height="0.56" transform="translate(-17.22 22.82) rotate(-20.22)"/><rect class="cls-8" x="55.09" y="38.51" width="0.56" height="42.39" transform="translate(-17.23 22.82) rotate(-20.22)"/><rect class="cls-8" x="34.18" y="59.43" width="42.39" height="0.56" transform="translate(-25.76 52.68) rotate(-42.21)"/><rect class="cls-8" x="55.09" y="38.51" width="0.56" height="42.39" transform="translate(-25.75 52.67) rotate(-42.2)"/><rect class="cls-8" x="55.09" y="38.51" width="0.56" height="42.39" transform="translate(-6.96 112.1) rotate(-87.21)"/><rect class="cls-8" x="34.18" y="59.43" width="42.39" height="0.56" transform="translate(-6.96 112.11) rotate(-87.21)"/><rect class="cls-8" x="34.18" y="59.43" width="42.39" height="0.56" transform="translate(-25.56 68.72) rotate(-53.52)"/><rect class="cls-8" x="55.09" y="38.51" width="0.56" height="42.39" transform="translate(-25.56 68.73) rotate(-53.52)"/><rect class="cls-8" x="34.18" y="59.43" width="42.39" height="0.56" transform="translate(-8.23 8.86) rotate(-8.52)"/><rect class="cls-8" x="55.09" y="38.51" width="0.56" height="42.39" transform="translate(-8.23 8.86) rotate(-8.51)"/><rect class="cls-8" x="34.18" y="59.43" width="42.39" height="0.56" transform="translate(-22.64 36.37) rotate(-30.51)"/><rect class="cls-8" x="55.09" y="38.51" width="0.56" height="42.39" transform="translate(-22.64 36.37) rotate(-30.5)"/><rect class="cls-8" x="55.09" y="38.51" width="0.56" height="42.39" transform="translate(-16.29 98.37) rotate(-75.51)"/><rect class="cls-8" x="34.18" y="59.43" width="42.39" height="0.56" transform="translate(-16.28 98.39) rotate(-75.52)"/><rect class="cls-8" x="34.18" y="59.43" width="42.39" height="0.56" transform="translate(-24.11 77.4) rotate(-59.71)"/><rect class="cls-8" x="55.09" y="38.51" width="0.56" height="42.39" transform="translate(-24.11 77.4) rotate(-59.71)"/><rect class="cls-8" x="34.18" y="59.43" width="42.39" height="0.56" transform="translate(-13.35 16.02) rotate(-14.71)"/><rect class="cls-8" x="55.09" y="38.51" width="0.56" height="42.39" transform="matrix(0.97, -0.25, 0.25, 0.97, -13.33, 15.99)"/><rect class="cls-8" x="34.18" y="59.43" width="42.39" height="0.56" transform="translate(-24.71 44.93) rotate(-36.7)"/><rect class="cls-8" x="55.09" y="38.51" width="0.56" height="42.39" transform="translate(-24.7 44.91) rotate(-36.69)"/><rect class="cls-8" x="55.09" y="38.51" width="0.56" height="42.39" transform="translate(-11.7 105.88) rotate(-81.7)"/><rect class="cls-8" x="34.18" y="59.43" width="42.39" height="0.56" transform="translate(-11.71 105.87) rotate(-81.69)"/><rect class="cls-8" x="34.18" y="59.43" width="42.39" height="0.56" transform="translate(-26.05 60.91) rotate(-48.01)"/><rect class="cls-8" x="55.09" y="38.51" width="0.56" height="42.39" transform="translate(-26.05 60.92) rotate(-48.01)"/><rect class="cls-8" x="34.18" y="59.43" width="42.39" height="0.56" transform="translate(-3.06 2.99) rotate(-3.01)"/><rect class="cls-8" x="55.09" y="38.51" width="0.56" height="42.39" transform="translate(-3.06 2.99) rotate(-3.01)"/><rect class="cls-8" x="34.18" y="59.43" width="42.39" height="0.56" transform="translate(-20.04 28.99) rotate(-25)"/><rect class="cls-8" x="55.09" y="38.51" width="0.56" height="42.39" transform="translate(-20.04 28.99) rotate(-25)"/><rect class="cls-8" x="55.09" y="38.51" width="0.56" height="42.39" transform="translate(-19.68 91.31) rotate(-69.99)"/><rect class="cls-8" x="34.18" y="59.43" width="42.39" height="0.56" transform="translate(-19.68 91.3) rotate(-69.99)"/></g><circle class="cls-4" cx="55.21" cy="59.45" r="15.64" transform="translate(-5.31 5.42) rotate(-5.36)"/><ellipse class="cls-12" cx="55.42" cy="58.98" rx="15.12" ry="15.64" transform="translate(-21.35 84.59) rotate(-65.23)"/><rect class="cls-5" x="51.27" y="55.75" width="8.14" height="8.14" transform="translate(-22.16 85) rotate(-65.22)"/><rect class="cls-9" x="53.12" y="57.6" width="4.44" height="4.44" transform="translate(-22.16 85) rotate(-65.22)"/><path class="cls-5" d="M42.39,53.84l18.93-7,7,18.93-18.93,7Zm18.76-6.61L42.75,54l6.78,18.4,18.4-6.78Z"/><rect class="cls-5" x="58.27" y="52.95" width="3.42" height="1.5" transform="translate(-13.92 85.66) rotate(-65.22)"/><rect class="cls-5" x="55.19" y="51.53" width="3.42" height="1.5" transform="translate(-14.42 82.03) rotate(-65.22)"/><rect class="cls-5" x="52.2" y="66.1" width="3.42" height="1.5" transform="translate(-29.38 87.79) rotate(-65.22)"/><rect class="cls-5" x="49.12" y="64.68" width="3.42" height="1.5" transform="matrix(0.42, -0.91, 0.91, 0.42, -29.88, 84.16)"/><rect class="cls-5" x="60.52" y="62.44" width="1.5" height="3.42" transform="translate(-22.65 92.89) rotate(-65.22)"/><rect class="cls-5" x="61.94" y="59.35" width="1.5" height="3.42" transform="translate(-19.02 92.4) rotate(-65.22)"/><rect class="cls-5" x="47.37" y="56.37" width="1.5" height="3.42" transform="translate(-24.78 77.43) rotate(-65.22)"/><rect class="cls-5" x="48.79" y="53.28" width="1.5" height="3.42" transform="translate(-21.15 76.93) rotate(-65.22)"/></svg>