<?xml version="1.0" encoding="UTF-8" standalone="no" ?>
<!DOCTYPE svg PUBLIC "-//W3C//DTD SVG 1.1//EN" "http://www.w3.org/Graphics/SVG/1.1/DTD/svg11.dtd">
<svg xmlns="http://www.w3.org/2000/svg" xmlns:xlink="http://www.w3.org/1999/xlink" version="1.1" width="500" height="500" viewBox="0 0 500 500" xml:space="preserve">
<desc>Created with Fabric.js 4.6.0</desc>
<defs>
</defs>
<g transform="matrix(0.68 0 0 0.68 250 290.82)" id="sjx6RW_BZxAKzgaNFPZhu"  >
<path style="stroke: none; stroke-width: 1; stroke-dasharray: none; stroke-linecap: butt; stroke-dashoffset: 0; stroke-linejoin: miter; stroke-miterlimit: 4; fill: rgb(77,76,75); fill-rule: evenodd; opacity: 1;" vector-effect="non-scaling-stroke"  transform=" translate(-760.5, -393.6)" d="M 760.63 153.99 C 791.96 138.34 829.96 129.8 864.73 126.79 L 903.8100000000001 123.38000000000001 C 946.6200000000001 119.7 989.45 121.96000000000001 1032.31 121.96000000000001 L 1055.81 121.96000000000001 L 1055.81 145.46 C 1055.81 249.8 1055.81 354.17 1055.81 458.53 L 1055.81 470.53 C 1055.81 578.26 967.7199999999999 666.3499999999999 859.9599999999999 666.3499999999999 L 465.18999999999994 666.3499999999999 L 465.18999999999994 121.95999999999992 L 488.67999999999995 121.95999999999992 C 531.5799999999999 121.95999999999992 574.26 119.13999999999993 617.15 122.46999999999993 L 656.22 125.41999999999993 C 693.34 128.20999999999992 727.32 137.21999999999994 760.63 153.98999999999992 z" stroke-linecap="round" />
</g>
<g transform="matrix(0.68 0 0 0.68 250 291.01)" id="txbB7H4SCOVlCqcoEyqZ8"  >
<path style="stroke: none; stroke-width: 1; stroke-dasharray: none; stroke-linecap: butt; stroke-dashoffset: 0; stroke-linejoin: miter; stroke-miterlimit: 4; fill: rgb(95,183,78); fill-rule: evenodd; opacity: 1;" vector-effect="non-scaling-stroke"  transform=" translate(-760.49, -393.86)" d="M 488.68 145.46 L 488.68 413.65 L 488.68 458.53 L 488.68 470.53 L 488.68 642.86 L 660.98 642.86 L 688.07 642.86 L 859.96 642.86 C 954.76 642.86 1032.31 565.29 1032.31 470.53 L 1032.31 458.53 C 1032.31 354.78 1032.31 253.56999999999996 1032.31 145.45999999999998 C 991.1199999999999 145.45999999999998 947.6199999999999 144.45 905.8499999999999 146.80999999999997 L 866.7599999999999 150.17999999999998 C 828.5099999999999 154.82999999999998 789.8099999999998 163.76 760.4899999999999 180.67999999999998 C 728.8399999999999 162.39 694.3199999999999 153.29999999999998 654.4499999999999 148.82999999999998 L 615.3699999999999 145.85999999999999 C 572.7499999999999 143.88 529.06 145.45999999999998 488.6799999999999 145.45999999999998 z" stroke-linecap="round" />
</g>
<g transform="matrix(0.68 0 0 0.68 245.58 398.9)" id="X6ICBSrHH1sEEmolVF8ex"  >
<path style="stroke: none; stroke-width: 1; stroke-dasharray: none; stroke-linecap: butt; stroke-dashoffset: 0; stroke-linejoin: miter; stroke-miterlimit: 4; fill: rgb(137,196,95); fill-rule: evenodd; opacity: 1;" vector-effect="non-scaling-stroke"  transform=" translate(-753.96, -553.53)" d="M 537.42 642.86 L 660.98 642.86 L 688.07 642.86 L 859.96 642.86 C 901.96 642.86 940.5400000000001 627.63 970.5 602.46 C 935.51 521.12 854.63 464.20000000000005 760.48 464.20000000000005 C 651.39 464.20000000000005 560.1700000000001 540.62 537.4200000000001 642.86 z" stroke-linecap="round" />
</g>
<g transform="matrix(0.68 0 0 0.68 341.84 291.14)" id="rHh5heCa4NfWFGug2Oeu1"  >
<path style="stroke: none; stroke-width: 1; stroke-dasharray: none; stroke-linecap: butt; stroke-dashoffset: 0; stroke-linejoin: miter; stroke-miterlimit: 4; fill: rgb(74,158,75); fill-rule: evenodd; opacity: 1;" vector-effect="non-scaling-stroke"  transform=" translate(-896.4, -394.05)" d="M 760.49 642.86 L 861.97 641.36 C 903.4100000000001 641.36 941.13 626.75 970.51 602.47 C 1008.34 571.21 1032.31 523.87 1032.31 470.53000000000003 L 1032.31 458.53000000000003 C 1032.31 354.78000000000003 1032.31 253.57000000000002 1032.31 145.46000000000004 C 991.1199999999999 145.46000000000004 947.6199999999999 144.45000000000005 905.8499999999999 146.81000000000003 L 866.7599999999999 150.18000000000004 C 828.5099999999999 154.83000000000004 789.8099999999998 163.76000000000005 760.4899999999999 180.68000000000004 L 760.4899999999999 642.86 z" stroke-linecap="round" />
</g>
<g transform="matrix(0.68 0 0 0.68 320.96 398.92)" id="w_pX3xZbKlhdsO7B8idVw"  >
<path style="stroke: none; stroke-width: 1; stroke-dasharray: none; stroke-linecap: butt; stroke-dashoffset: 0; stroke-linejoin: miter; stroke-miterlimit: 4; fill: rgb(95,183,78); fill-rule: evenodd; opacity: 1;" vector-effect="non-scaling-stroke"  transform=" translate(-865.5, -553.55)" d="M 760.49 642.86 L 860.59 642.86 C 902.59 642.86 940.5500000000001 627.64 970.51 602.47 C 935.9 522.0500000000001 853.3 465.48 760.49 464.24 L 760.49 642.86 z" stroke-linecap="round" />
</g>
<g transform="matrix(0.68 0 0 0.68 250.07 70.08)" id="zthOaGzn6B22-Q-JMwjGe"  >
<path style="stroke: none; stroke-width: 1; stroke-dasharray: none; stroke-linecap: butt; stroke-dashoffset: 0; stroke-linejoin: miter; stroke-miterlimit: 4; fill: rgb(77,76,75); fill-rule: evenodd; opacity: 1;" vector-effect="non-scaling-stroke"  transform=" translate(-760.61, -66.94)" d="M 905.85 130.53 C 898.38 57.16 836.38 0 761.11 0 C 685.87 0 623.9 56.67 615.37 129.61 L 654.45 132.59 C 661.36 79.91 706.26 39.18000000000001 760.96 39.18000000000001 C 815.63 39.18000000000001 860.9300000000001 80.61000000000001 866.76 133.89 L 905.85 130.52999999999997 z" stroke-linecap="round" />
</g>
<g transform="matrix(0.68 0 0 0.68 250 357.63)" id="MV_VmEBYW-nX1AJNVltlG"  >
<path style="stroke: none; stroke-width: 1; stroke-dasharray: none; stroke-linecap: butt; stroke-dashoffset: 0; stroke-linejoin: miter; stroke-miterlimit: 4; fill: rgb(77,76,75); fill-rule: evenodd; opacity: 1;" vector-effect="non-scaling-stroke"  transform=" translate(-760.5, -492.46)" d="M 824.06 487.13 C 807.03 505.14 790.02 523.16 773 541.19 L 760.48 554.46 L 747.98 541.19 C 730.95 523.19 713.94 505.14000000000004 696.9200000000001 487.13000000000005 L 688.1100000000001 477.78000000000003 L 694.5500000000002 466.66 C 708.2000000000002 443.12 733.7400000000002 430.45000000000005 760.4800000000002 430.45000000000005 C 787.2500000000002 430.45000000000005 812.7700000000002 443.12000000000006 826.4300000000003 466.66 L 832.8800000000003 477.78000000000003 L 824.0600000000003 487.13000000000005 z" stroke-linecap="round" />
</g>
<g transform="matrix(0.68 0 0 0.68 249.99 354.97)" id="oGXR_NNtyBIE-51SKj3wp"  >
<path style="stroke: none; stroke-width: 1; stroke-dasharray: none; stroke-linecap: butt; stroke-dashoffset: 0; stroke-linejoin: miter; stroke-miterlimit: 4; fill: rgb(253,248,180); fill-rule: evenodd; opacity: 1;" vector-effect="non-scaling-stroke"  transform=" translate(-760.48, -488.52)" d="M 811.52 475.32 C 794.54 493.34 777.49 511.34 760.48 529.38 C 743.47 511.34 726.45 493.34 709.4300000000001 475.32 C 720.1800000000001 456.78999999999996 740.36 447.63 760.48 447.67 C 780.61 447.63 800.79 456.79 811.52 475.32 z" stroke-linecap="round" />
</g>
<g transform="matrix(0.68 0 0 0.68 267.23 354.97)" id="gjQiaRubcUblGsZuvnLAV"  >
<path style="stroke: none; stroke-width: 1; stroke-dasharray: none; stroke-linecap: butt; stroke-dashoffset: 0; stroke-linejoin: miter; stroke-miterlimit: 4; fill: rgb(252,208,102); fill-rule: evenodd; opacity: 1;" vector-effect="non-scaling-stroke"  transform=" translate(-786, -488.52)" d="M 811.52 475.32 C 794.54 493.34 777.49 511.34 760.48 529.38 L 760.48 447.67 C 780.61 447.63 800.79 456.79 811.52 475.32 z" stroke-linecap="round" />
</g>
<g transform="matrix(0.68 0 0 0.68 163.8 262.28)" id="PHK1tr3eiqH0l9lqrRYUn"  >
<path style="stroke: none; stroke-width: 1; stroke-dasharray: none; stroke-linecap: butt; stroke-dashoffset: 0; stroke-linejoin: miter; stroke-miterlimit: 4; fill: rgb(77,76,75); fill-rule: evenodd; opacity: 1;" vector-effect="non-scaling-stroke"  transform=" translate(-632.93, -351.35)" d="M 632.93 213.25 C 709.18 213.25 771.02 275.13 771.02 351.35 C 771.02 427.6 709.18 489.45000000000005 632.93 489.45000000000005 C 556.67 489.45000000000005 494.8499999999999 427.6 494.8499999999999 351.35 C 494.8499999999999 275.13 556.67 213.25000000000003 632.93 213.25000000000003 z" stroke-linecap="round" />
</g>
<g transform="matrix(0.68 0 0 0.68 163.8 262.28)" id="dBLNjPaRKcTatu9tqN4gs"  >
<path style="stroke: none; stroke-width: 1; stroke-dasharray: none; stroke-linecap: butt; stroke-dashoffset: 0; stroke-linejoin: miter; stroke-miterlimit: 4; fill: rgb(238,239,238); fill-rule: evenodd; opacity: 1;" vector-effect="non-scaling-stroke"  transform=" translate(-632.93, -351.35)" d="M 632.93 236.75 C 696.2199999999999 236.75 747.54 288.07 747.54 351.35 C 747.54 414.62 696.2199999999999 465.95000000000005 632.93 465.95000000000005 C 569.6199999999999 465.95000000000005 518.3299999999999 414.62000000000006 518.3299999999999 351.35 C 518.3299999999999 288.07000000000005 569.6199999999999 236.75000000000003 632.93 236.75000000000003 z" stroke-linecap="round" />
</g>
<g transform="matrix(0.68 0 0 0.68 163.8 240.75)" id="z-r-Z-hQ-hMy1huZbsb4t"  >
<path style="stroke: none; stroke-width: 1; stroke-dasharray: none; stroke-linecap: butt; stroke-dashoffset: 0; stroke-linejoin: miter; stroke-miterlimit: 4; fill: rgb(254,254,254); fill-rule: evenodd; opacity: 1;" vector-effect="non-scaling-stroke"  transform=" translate(-632.94, -319.5)" d="M 632.93 236.75 C 685.16 236.75 729.24 271.71 743.05 319.5 C 729.24 367.27 685.16 402.24 632.93 402.24 C 580.68 402.24 536.64 367.27 522.8299999999999 319.5 C 536.6399999999999 271.71 580.68 236.75 632.93 236.75 z" stroke-linecap="round" />
</g>
<g transform="matrix(0.68 0 0 0.68 336.19 262.28)" id="uNPz2IKWcGEVEmjZzQV_-"  >
<path style="stroke: none; stroke-width: 1; stroke-dasharray: none; stroke-linecap: butt; stroke-dashoffset: 0; stroke-linejoin: miter; stroke-miterlimit: 4; fill: rgb(77,76,75); fill-rule: evenodd; opacity: 1;" vector-effect="non-scaling-stroke"  transform=" translate(-888.04, -351.35)" d="M 888.05 213.25 C 964.3199999999999 213.25 1026.1299999999999 275.13 1026.1299999999999 351.35 C 1026.1299999999999 427.6 964.3199999999999 489.45000000000005 888.0499999999998 489.45000000000005 C 811.7899999999998 489.45000000000005 749.9499999999998 427.63000000000005 749.9499999999998 351.35 C 749.9499999999998 275.13 811.7899999999998 213.25000000000003 888.0499999999998 213.25000000000003 z" stroke-linecap="round" />
</g>
<g transform="matrix(0.68 0 0 0.68 336.2 262.28)" id="HVcE_ocRmOaP0-BSogEZ5"  >
<path style="stroke: none; stroke-width: 1; stroke-dasharray: none; stroke-linecap: butt; stroke-dashoffset: 0; stroke-linejoin: miter; stroke-miterlimit: 4; fill: rgb(238,239,238); fill-rule: evenodd; opacity: 1;" vector-effect="non-scaling-stroke"  transform=" translate(-888.05, -351.35)" d="M 888.05 236.75 C 951.3299999999999 236.75 1002.66 288.07 1002.66 351.35 C 1002.66 414.62 951.3299999999999 465.95000000000005 888.05 465.95000000000005 C 824.76 465.95000000000005 773.4499999999999 414.62000000000006 773.4499999999999 351.35 C 773.4499999999999 288.07000000000005 824.76 236.75000000000003 888.05 236.75000000000003 z" stroke-linecap="round" />
</g>
<g transform="matrix(0.68 0 0 0.68 336.19 240.75)" id="THwKF4aFZVaIvSa3m6VKs"  >
<path style="stroke: none; stroke-width: 1; stroke-dasharray: none; stroke-linecap: butt; stroke-dashoffset: 0; stroke-linejoin: miter; stroke-miterlimit: 4; fill: rgb(254,254,254); fill-rule: evenodd; opacity: 1;" vector-effect="non-scaling-stroke"  transform=" translate(-888.03, -319.5)" d="M 888.05 236.75 C 940.27 236.75 984.3499999999999 271.71 998.14 319.5 C 984.36 367.27 940.27 402.24 888.05 402.24 C 835.8 402.24 791.74 367.27 777.93 319.5 C 791.7399999999999 271.71 835.8 236.75 888.05 236.75 z" stroke-linecap="round" />
</g>
<g transform="matrix(0.68 0 0 0.68 173.52 264.12)" id="Vvj-Rd8fnhnsFHX9kuOZ8"  >
<path style="stroke: none; stroke-width: 1; stroke-dasharray: none; stroke-linecap: butt; stroke-dashoffset: 0; stroke-linejoin: miter; stroke-miterlimit: 4; fill: rgb(77,76,75); fill-rule: evenodd; opacity: 1;" vector-effect="non-scaling-stroke"  transform=" translate(-647.33, -354.08)" d="M 647.33 280.08 C 688.2 280.08 721.36 313.21999999999997 721.36 354.04999999999995 C 721.36 394.94999999999993 688.2 428.0799999999999 647.33 428.0799999999999 C 606.4300000000001 428.0799999999999 573.3000000000001 394.94999999999993 573.3000000000001 354.04999999999995 C 573.3000000000001 340.42999999999995 577.0100000000001 327.66999999999996 583.45 316.68999999999994 C 588.73 329.75999999999993 601.51 338.92999999999995 616.5 338.92999999999995 C 636.18 338.92999999999995 652.16 323.00999999999993 652.16 303.31999999999994 C 652.16 294.44999999999993 648.92 286.36999999999995 643.6 280.1599999999999 C 644.83 280.0799999999999 646.09 280.0799999999999 647.33 280.0799999999999 z" stroke-linecap="round" />
</g>
<g transform="matrix(0.68 0 0 0.68 326.46 264.12)" id="b_3iFYZL_qdgLeNOSO0MY"  >
<path style="stroke: none; stroke-width: 1; stroke-dasharray: none; stroke-linecap: butt; stroke-dashoffset: 0; stroke-linejoin: miter; stroke-miterlimit: 4; fill: rgb(77,76,75); fill-rule: evenodd; opacity: 1;" vector-effect="non-scaling-stroke"  transform=" translate(-873.64, -354.08)" d="M 873.62 280.08 C 914.53 280.08 947.67 313.21999999999997 947.67 354.04999999999995 C 947.67 394.94999999999993 914.53 428.0799999999999 873.62 428.0799999999999 C 832.76 428.0799999999999 799.62 394.94999999999993 799.62 354.04999999999995 C 799.62 340.42999999999995 803.3100000000001 327.66999999999996 809.73 316.68999999999994 C 815.04 329.75999999999993 827.85 338.92999999999995 842.82 338.92999999999995 C 862.5 338.92999999999995 878.45 323.00999999999993 878.45 303.31999999999994 C 878.45 294.44999999999993 875.25 286.36999999999995 869.9100000000001 280.1599999999999 C 871.1600000000001 280.0799999999999 872.3800000000001 280.0799999999999 873.6200000000001 280.0799999999999 z" stroke-linecap="round" />
</g>
</svg>